<svg width="26" height="26" viewBox="0 0 26 26" fill="none" xmlns="http://www.w3.org/2000/svg">
<path d="M1.9502 5.10715C1.9502 4.234 2.65562 3.52858 3.52877 3.52858H22.4716C23.3448 3.52858 24.0502 4.234 24.0502 5.10715C24.0502 5.9803 23.3448 6.68572 22.4716 6.68572H3.52877C2.65562 6.68572 1.9502 5.9803 1.9502 5.10715ZM1.9502 13C1.9502 12.1269 2.65562 11.4214 3.52877 11.4214H22.4716C23.3448 11.4214 24.0502 12.1269 24.0502 13C24.0502 13.8732 23.3448 14.5786 22.4716 14.5786H3.52877C2.65562 14.5786 1.9502 13.8732 1.9502 13ZM24.0502 20.8929C24.0502 21.766 23.3448 22.4714 22.4716 22.4714H3.52877C2.65562 22.4714 1.9502 21.766 1.9502 20.8929C1.9502 20.0197 2.65562 19.3143 3.52877 19.3143H22.4716C23.3448 19.3143 24.0502 20.0197 24.0502 20.8929Z" fill="black"/>
</svg>
