<svg width="26" height="27" viewBox="0 0 26 27" fill="none" xmlns="http://www.w3.org/2000/svg">
<path d="M10.3826 7.31425C10.3826 5.79788 11.5844 4.56503 13.0625 4.56503C14.5406 4.56503 15.7424 5.79788 15.7424 7.31425V9.37616H10.3826V7.31425ZM8.37266 9.37616H5.69275C4.5831 9.37616 3.68282 10.2997 3.68282 11.4381V20.373C3.68282 22.6497 5.48338 24.4969 7.70268 24.4969H18.4223C20.6416 24.4969 22.4422 22.6497 22.4422 20.373V11.4381C22.4422 10.2997 21.5419 9.37616 20.4323 9.37616H17.7523V7.31425C17.7523 4.65524 15.6545 2.50311 13.0625 2.50311C10.4705 2.50311 8.37266 4.65524 8.37266 7.31425V9.37616ZM9.37763 11.4381C9.64416 11.4381 9.89978 11.5467 10.0882 11.74C10.2767 11.9334 10.3826 12.1956 10.3826 12.469C10.3826 12.7425 10.2767 13.0047 10.0882 13.198C9.89978 13.3914 9.64416 13.5 9.37763 13.5C9.11109 13.5 8.85547 13.3914 8.66701 13.198C8.47854 13.0047 8.37266 12.7425 8.37266 12.469C8.37266 12.1956 8.47854 11.9334 8.66701 11.74C8.85547 11.5467 9.11109 11.4381 9.37763 11.4381ZM15.7424 12.469C15.7424 12.1956 15.8483 11.9334 16.0368 11.74C16.2252 11.5467 16.4808 11.4381 16.7474 11.4381C17.0139 11.4381 17.2695 11.5467 17.458 11.74C17.6465 11.9334 17.7523 12.1956 17.7523 12.469C17.7523 12.7425 17.6465 13.0047 17.458 13.198C17.2695 13.3914 17.0139 13.5 16.7474 13.5C16.4808 13.5 16.2252 13.3914 16.0368 13.198C15.8483 13.0047 15.7424 12.7425 15.7424 12.469Z" fill="black"/>
</svg>
