<svg width="40" height="40" viewBox="0 0 40 40" fill="none" xmlns="http://www.w3.org/2000/svg">
<path d="M13.625 3C14.8004 3 15.75 3.94961 15.75 5.125V7.25H24.25V5.125C24.25 3.94961 25.1996 3 26.375 3C27.5504 3 28.5 3.94961 28.5 5.125V7.25H31.6875C33.4473 7.25 34.875 8.67773 34.875 10.4375V13.625H5.125V10.4375C5.125 8.67773 6.55273 7.25 8.3125 7.25H11.5V5.125C11.5 3.94961 12.4496 3 13.625 3ZM5.125 15.75H34.875V33.8125C34.875 35.5723 33.4473 37 31.6875 37H8.3125C6.55273 37 5.125 35.5723 5.125 33.8125V15.75ZM9.375 21.0625V23.1875C9.375 23.7719 9.85313 24.25 10.4375 24.25H12.5625C13.1469 24.25 13.625 23.7719 13.625 23.1875V21.0625C13.625 20.4781 13.1469 20 12.5625 20H10.4375C9.85313 20 9.375 20.4781 9.375 21.0625ZM17.875 21.0625V23.1875C17.875 23.7719 18.3531 24.25 18.9375 24.25H21.0625C21.6469 24.25 22.125 23.7719 22.125 23.1875V21.0625C22.125 20.4781 21.6469 20 21.0625 20H18.9375C18.3531 20 17.875 20.4781 17.875 21.0625ZM27.4375 20C26.8531 20 26.375 20.4781 26.375 21.0625V23.1875C26.375 23.7719 26.8531 24.25 27.4375 24.25H29.5625C30.1469 24.25 30.625 23.7719 30.625 23.1875V21.0625C30.625 20.4781 30.1469 20 29.5625 20H27.4375ZM9.375 29.5625V31.6875C9.375 32.2719 9.85313 32.75 10.4375 32.75H12.5625C13.1469 32.75 13.625 32.2719 13.625 31.6875V29.5625C13.625 28.9781 13.1469 28.5 12.5625 28.5H10.4375C9.85313 28.5 9.375 28.9781 9.375 29.5625ZM18.9375 28.5C18.3531 28.5 17.875 28.9781 17.875 29.5625V31.6875C17.875 32.2719 18.3531 32.75 18.9375 32.75H21.0625C21.6469 32.75 22.125 32.2719 22.125 31.6875V29.5625C22.125 28.9781 21.6469 28.5 21.0625 28.5H18.9375ZM26.375 29.5625V31.6875C26.375 32.2719 26.8531 32.75 27.4375 32.75H29.5625C30.1469 32.75 30.625 32.2719 30.625 31.6875V29.5625C30.625 28.9781 30.1469 28.5 29.5625 28.5H27.4375C26.8531 28.5 26.375 28.9781 26.375 29.5625Z" fill="white"/>
</svg>
