<?xml version="1.0" encoding="UTF-8"?>
<!DOCTYPE svg PUBLIC "-//W3C//DTD SVG 1.1//EN" "http://www.w3.org/Graphics/SVG/1.1/DTD/svg11.dtd">
<!-- Creator: CorelDRAW -->
<svg xmlns="http://www.w3.org/2000/svg" xml:space="preserve" width="100mm" height="100mm" version="1.1" style="shape-rendering:geometricPrecision; text-rendering:geometricPrecision; image-rendering:optimizeQuality; fill-rule:evenodd; clip-rule:evenodd"
viewBox="0 0 10000 10000"
 xmlns:xlink="http://www.w3.org/1999/xlink"
 xmlns:xodm="http://www.corel.com/coreldraw/odm/2003">
 <defs>
  <style type="text/css">
   <![CDATA[
    .str0 {stroke:#2B2A29;stroke-width:20;stroke-miterlimit:22.9256}
    .fil1 {fill:none}
    .fil0 {fill:#FEFEFE}
    .fil2 {fill:#2B2A29}
   ]]>
  </style>
 </defs>
 <g id="Слой_x0020_1">
  <metadata id="CorelCorpID_0Corel-Layer"/>
  <g id="_1823934958704">
   <g>
    <path class="fil0" d="M5110.72 1793.14l6.99 0.22c35.47,0.94 70.83,2.25 106.11,4.02l10.98 0.58c34.12,1.8 68.14,3.93 102.06,6.48l12.69 0.99c33.22,2.6 66.34,5.53 99.34,8.83l14.24 1.48c33.02,3.42 65.95,7.15 98.79,11.3l11.83 1.5c32.61,4.2 65.08,8.76 97.48,13.65l15.01 2.28c31.88,4.93 63.7,10.19 95.37,15.79l14.47 2.54c32.11,5.78 64.07,11.93 95.93,18.38l12.61 2.55c32.71,6.74 65.3,13.85 97.75,21.29l9.09 2.04c32.86,7.61 65.54,15.64 98.11,23.96l11.74 2.98c33.12,8.56 66.07,17.48 98.88,26.77l10.45 3.03c31.67,9.04 63.24,18.43 94.62,28.15l11.35 3.57c30.07,9.41 60.01,19.13 89.81,29.17l18.39 6.25c28.03,9.58 55.96,19.4 83.75,29.51l20.05 7.4c27.09,9.99 54.03,20.22 80.87,30.75l20.98 8.29c25.75,10.23 51.38,20.71 76.89,31.4l25.02 10.57c25.13,10.72 50.1,21.66 74.98,32.81l22.6 10.16c25.22,11.47 50.32,23.23 75.29,35.16l22.17 10.62c24.61,11.93 49.07,24.13 73.44,36.5l23.06 11.71c24.18,12.44 48.19,25.17 72.1,38.02l31.11 16.88c21.36,11.71 42.6,23.59 63.77,35.67l32.08 18.48c21.27,12.34 42.44,24.83 63.46,37.51l29.7 18.11c20.81,12.78 41.54,25.66 62.13,38.78 10.67,6.79 21.26,13.65 31.86,20.53 19.69,12.76 39.31,25.66 58.78,38.71l29.75 20.19c19.01,12.98 37.98,26.1 56.77,39.36 10.47,7.37 20.88,14.84 31.26,22.31 17.91,12.87 35.76,25.85 53.46,38.97l32.04 23.95c17.31,13.07 34.48,26.24 51.6,39.55 11.22,8.73 22.43,17.49 33.58,26.34 16.03,12.7 31.94,25.58 47.79,38.53 14.24,11.59 28.38,23.28 42.46,35.06 12.81,10.72 25.59,21.51 38.27,32.35 15.88,13.58 31.64,27.28 47.33,41.08l30.99 27.49c17.02,15.21 33.88,30.61 50.66,46.1l14.42 13.43 -237 0 0 166.74 406.53 0c140.54,145.56 271.29,300.66 391.22,464.16l-1374.75 0 0 166.74 1491.34 0c99.05,148.69 189.45,303.66 270.47,464.14l-2338.78 0 0 166.73 2418.7 0c38.41,84.63 74.27,170.69 107.47,258.03l2.76 7.27c11.01,29.15 21.73,58.42 32.16,87.86l2.59 7.37 2.6 7.35c9.45,27.01 18.67,54.17 27.64,81.42l2.43 7.42 2.4 7.45 -3175.74 0 0 166.73 3226.29 0 7.93 28.47 1.94 7.13 1.94 7.13 1.94 7.13 1.92 7.15 1.91 7.15c6.14,23.06 12.08,46.17 17.85,69.4l7.62 31.14 1.74 7.2c5.19,21.65 10.21,43.38 15.06,65.15l1.6 7.28 0.12 0.48 6.23 28.59 1.56 7.3c4.65,21.87 9.14,43.77 13.48,65.74l1.43 7.32 5.62 29.34 1.39 7.35c4.41,23.76 8.65,47.58 12.73,71.44l0.38 2.28 -1836.48 0 0 166.73 1861.63 0 0.1 0.78 3.66 28.54c3.64,29.17 6.96,58.48 10.04,87.82l2.13 20.83c3.2,32.13 6.04,64.34 8.59,96.66l1.09 14.14c2.57,34.23 4.75,68.57 6.52,103.03l0.39 7.73c1.74,34.75 3.03,69.67 3.97,104.64l-1494.43 0 0 166.73 1495.57 0 -0.17 14.69 -0.09 7.35 -0.12 7.32c-0.49,29.34 -1.24,58.66 -2.28,87.86l-0.27 7.29 -0.29 7.3 -0.29 7.3c-4.44,109.41 -12.83,217.75 -24.98,325.03l-1389.34 0 0 166.73 1367.08 0c-23.86,157.59 -56.16,312.4 -95.97,464.17l-1279.67 0 0 166.73 1232.41 0c-55.36,181.79 -122.14,358.59 -199.21,529.76l-1894.71 0 -139.55 -345.93 29.8 0c319.58,0 581,-261.45 581,-580.97l0 -415.84c0,-16.46 -0.92,-29.24 -2.67,-39.02 0.42,-5.72 0.63,-11.49 0.63,-17.31 0,-131.28 -106.42,-237.71 -237.71,-237.71 -131.28,0 -237.7,106.43 -237.7,237.71 0,5.19 0.21,10.33 0.53,15.45l-0.05 1.89c0,298.11 -243.87,541.98 -541.98,541.98l-3283.64 0c-298.11,0 -541.98,-243.87 -541.98,-541.98l-0.03 -1.31c0.37,-5.29 0.56,-10.65 0.56,-16.03 0,-39.45 -9.6,-76.65 -26.62,-109.38 -41.9,-92 -125.51,-136.43 -184.19,-126.8 -8.83,-0.99 -17.8,-1.53 -26.9,-1.53 -131.28,0 -237.71,106.43 -237.71,237.71 0,4.34 0.15,8.61 0.37,12.9 -1.6,10.31 -2.45,24.52 -2.45,43.43l0 415.84c0,319.52 261.42,580.97 581,580.97l29.8 0 -139.55 345.93 -1894.74 0c-77.06,-171.17 -143.84,-347.97 -199.2,-529.76l1232.43 0 0 -166.73 -1279.69 0c-39.82,-151.77 -72.12,-306.58 -95.98,-464.17l1367.11 0 0 -166.73 -1389.37 0c-12.15,-107.25 -20.54,-215.64 -24.97,-325.03l-0.29 -7.3 -0.29 -7.3 -0.27 -7.29c-1.07,-29.2 -1.82,-58.49 -2.28,-87.86l-0.12 -7.32 -0.1 -7.35 -0.17 -14.69 1495.58 0 0 -166.73 -1494.44 0c0.95,-34.97 2.26,-69.86 3.98,-104.64l0.39 -7.73c1.77,-34.46 3.97,-68.8 6.52,-103.03l1.09 -14.14c2.52,-32.32 5.38,-64.53 8.58,-96.66l2.14 -20.83c3.05,-29.36 6.42,-58.65 10.04,-87.82l3.66 -28.54 0.1 -0.78 1861.65 0 0 -166.73 -1836.51 0 0.39 -2.28c4.05,-23.89 8.29,-47.7 12.73,-71.44l1.38 -7.35 5.63 -29.34 1.43 -7.32c4.31,-21.97 8.85,-43.87 13.48,-65.74l1.55 -7.3 6.23 -28.59 0.13 -0.48 1.6 -7.28c4.85,-21.77 9.89,-43.5 15.05,-65.15l1.75 -7.2 7.61 -31.14c5.78,-23.23 11.72,-46.31 17.85,-69.4l1.92 -7.15 1.91 -7.15 1.94 -7.13 1.94 -7.13 1.94 -7.13 7.93 -28.47 3226.32 0 0 -166.73 -3175.76 0 2.4 -7.45 2.42 -7.42c8.98,-27.25 18.19,-54.41 27.65,-81.42l2.59 -7.35 2.6 -7.37c10.42,-29.42 21.12,-58.71 32.15,-87.86l2.77 -7.27c33.19,-87.34 69.06,-173.4 107.46,-258.03l2418.73 0 0 -166.73 -2338.8 0c81.01,-160.48 171.41,-315.45 270.47,-464.14l1491.36 0 0 -166.74 -1374.8 0c119.96,-163.5 250.68,-318.6 391.23,-464.16l406.55 0 0 -166.74 -237.01 0 14.43 -13.43c16.76,-15.49 33.66,-30.84 50.65,-46.1l30.99 -27.49c15.81,-13.92 31.7,-27.74 47.73,-41.42 11.59,-9.92 23.23,-19.76 34.94,-29.56 15.35,-12.85 30.77,-25.63 46.29,-38.29 15.3,-12.46 30.67,-24.85 46.12,-37.12 11.4,-9.05 22.87,-18.02 34.36,-26.97 17.09,-13.31 34.29,-26.48 51.6,-39.55l32.23 -24.08c17.36,-12.87 34.84,-25.6 52.4,-38.24l32.83 -23.42c18.5,-13.05 37.12,-25.92 55.82,-38.68 10.02,-6.83 20.05,-13.7 30.12,-20.44 19.11,-12.8 38.31,-25.41 57.64,-37.95 11.71,-7.61 23.47,-15.2 35.25,-22.69 19.72,-12.54 39.55,-24.88 59.49,-37.13l29.97 -18.28c21.02,-12.68 42.19,-25.15 63.45,-37.51l32.09 -18.48c21.14,-12.05 42.38,-23.93 63.77,-35.67l31.33 -17c23.16,-12.46 46.41,-24.78 69.83,-36.83l26.07 -13.29c24.01,-12.17 48.16,-24.2 72.41,-35.96l22.36 -10.69c24.73,-11.81 49.56,-23.48 74.56,-34.85l23.91 -10.77c24.66,-11.05 49.44,-21.89 74.32,-32.49l24.47 -10.35c25.68,-10.77 51.48,-21.29 77.4,-31.6l20.97 -8.29c26.94,-10.55 54.01,-20.83 81.19,-30.87l19.28 -7.11c27.93,-10.16 56.01,-20.05 84.21,-29.68l18.41 -6.28c29.51,-9.94 59.21,-19.54 88.99,-28.88l12.53 -3.95c31.24,-9.67 62.64,-19.01 94.16,-28.01l10.52 -3.05c32.84,-9.29 65.84,-18.24 98.96,-26.8l11.72 -2.98c32.54,-8.32 65.22,-16.32 98.06,-23.93l9.07 -2.04c32.44,-7.44 65.01,-14.52 97.69,-21.26l12.81 -2.6c31.91,-6.47 63.94,-12.63 96.07,-18.4l13.85 -2.45c31.78,-5.63 63.7,-10.91 95.7,-15.86l15.01 -2.26c32.35,-4.89 64.8,-9.43 97.39,-13.62l12.07 -1.56c32.76,-4.12 65.67,-7.85 98.65,-11.27l14.23 -1.48c33.07,-3.32 66.27,-6.26 99.54,-8.85l12.39 -0.97c33.92,-2.55 67.97,-4.71 102.11,-6.48l11.03 -0.58c35.26,-1.77 70.64,-3.08 106.09,-4.02l7.03 -0.22c37.69,-0.95 75.47,-1.43 113.37,-1.43 37.9,0 75.7,0.48 113.38,1.43zm1680.79 5966.89l204.3 345.93 -3996.9 0 204.3 -345.93 3588.3 0zm-3775.6 -1322.88l5.85 9.26c6.59,10.16 13.6,20.03 21.02,29.61l3.69 4.71 0 36.25c0,6.62 0.14,13.19 0.41,19.76l-30.97 -99.59zm30.97 99.59l0.05 0.68 0.02 0.65 -0.07 -1.33zm0.07 1.33c0.34,7.45 0.85,14.87 1.5,22.24l-0.17 -1.21c-3.34,-25.13 -4.87,-58.64 -17.89,-92.29 -4.03,-10.36 -9.05,-20.06 -14.48,-29.66 5.43,9.6 10.45,19.3 14.48,29.66 13.02,33.65 14.55,67.16 17.89,92.29l0.17 1.21 -1.5 -22.24zm3901.3 -20.56c2.43,-16.13 6.09,-33.39 12.78,-50.7l2.99 -7.16c-5.05,7.18 -10.31,14.19 -15.77,21.05l0 36.28 0 0.53zm-3416.81 484.44l2931.84 0c242.1,0 444.21,-179.78 479.49,-412.42 3.57,-23.52 5.46,-47.55 5.48,-72.02 2.43,-16.13 6.09,-33.39 12.78,-50.7l2.99 -7.16c20.12,-28.66 36.88,-59.87 49.66,-92.99 18.55,-48.06 28.73,-100.2 28.73,-154.58l0 -94.5c0,-237.93 -194.67,-432.62 -432.62,-432.62l-146.51 0 -2931.84 0 -146.54 0c-237.95,0 -432.62,194.69 -432.62,432.62l0 94.5c0,54.41 10.19,106.57 28.76,154.65 6.02,19.38 14.72,35.58 23.57,50.92l0.15 0.25 0.02 0.07c3.47,6.35 7.08,12.63 10.89,18.77l0.24 0.41c5.43,9.6 10.45,19.3 14.48,29.66 13.02,33.65 14.55,67.16 17.89,92.29l0.17 1.21c1.27,14.16 3.11,28.15 5.58,41.97l0.05 0.25 0.02 0.24c40.81,226.16 239.85,399.18 477.34,399.18zm-483.16 -442.85c-3.34,-25.13 -4.87,-58.64 -17.89,-92.29 -4.03,-10.36 -9.05,-20.06 -14.48,-29.66 5.43,9.6 10.45,19.3 14.48,29.66 13.02,33.65 14.55,67.16 17.89,92.29l0.17 1.21 -0.17 -1.21zm-67.24 -192.37c6.79,17.53 14.67,34.56 23.57,50.92 -8.85,-15.34 -17.55,-31.54 -23.57,-50.92zm2016.32 -1498.05c519.16,0 940.04,-420.88 940.04,-940.04 0,-519.17 -420.88,-940.05 -940.04,-940.05 -519.16,0 -940.04,420.88 -940.04,940.05 0,519.16 420.88,940.04 940.04,940.04zm0 -482.5c252.69,0 457.55,-204.85 457.55,-457.54 0,-252.7 -204.86,-457.55 -457.55,-457.55 -252.69,0 -457.55,204.85 -457.55,457.55 0,252.69 204.86,457.54 457.55,457.54z"/>
    <path id="_1" class="fil1 str0" d="M5110.72 1793.14l6.99 0.22c35.47,0.94 70.83,2.25 106.11,4.02l10.98 0.58c34.12,1.8 68.14,3.93 102.06,6.48l12.69 0.99c33.22,2.6 66.34,5.53 99.34,8.83l14.24 1.48c33.02,3.42 65.95,7.15 98.79,11.3l11.83 1.5c32.61,4.2 65.08,8.76 97.48,13.65l15.01 2.28c31.88,4.93 63.7,10.19 95.37,15.79l14.47 2.54c32.11,5.78 64.07,11.93 95.93,18.38l12.61 2.55c32.71,6.74 65.3,13.85 97.75,21.29l9.09 2.04c32.86,7.61 65.54,15.64 98.11,23.96l11.74 2.98c33.12,8.56 66.07,17.48 98.88,26.77l10.45 3.03c31.67,9.04 63.24,18.43 94.62,28.15l11.35 3.57c30.07,9.41 60.01,19.13 89.81,29.17l18.39 6.25c28.03,9.58 55.96,19.4 83.75,29.51l20.05 7.4c27.09,9.99 54.03,20.22 80.87,30.75l20.98 8.29c25.75,10.23 51.38,20.71 76.89,31.4l25.02 10.57c25.13,10.72 50.1,21.66 74.98,32.81l22.6 10.16c25.22,11.47 50.32,23.23 75.29,35.16l22.17 10.62c24.61,11.93 49.07,24.13 73.44,36.5l23.06 11.71c24.18,12.44 48.19,25.17 72.1,38.02l31.11 16.88c21.36,11.71 42.6,23.59 63.77,35.67l32.08 18.48c21.27,12.34 42.44,24.83 63.46,37.51l29.7 18.11c20.81,12.78 41.54,25.66 62.13,38.78 10.67,6.79 21.26,13.65 31.86,20.53 19.69,12.76 39.31,25.66 58.78,38.71l29.75 20.19c19.01,12.98 37.98,26.1 56.77,39.36 10.47,7.37 20.88,14.84 31.26,22.31 17.91,12.87 35.76,25.85 53.46,38.97l32.04 23.95c17.31,13.07 34.48,26.24 51.6,39.55 11.22,8.73 22.43,17.49 33.58,26.34 16.03,12.7 31.94,25.58 47.79,38.53 14.24,11.59 28.38,23.28 42.46,35.06 12.81,10.72 25.59,21.51 38.27,32.35 15.88,13.58 31.64,27.28 47.33,41.08l30.99 27.49c17.02,15.21 33.88,30.61 50.66,46.1l14.42 13.43 -237 0 0 166.74 406.53 0c140.54,145.56 271.29,300.66 391.22,464.16l-1374.75 0 0 166.74 1491.34 0c99.05,148.69 189.45,303.66 270.47,464.14l-2338.78 0 0 166.73 2418.7 0c38.41,84.63 74.27,170.69 107.47,258.03l2.76 7.27c11.01,29.15 21.73,58.42 32.16,87.86l2.59 7.37 2.6 7.35c9.45,27.01 18.67,54.17 27.64,81.42l2.43 7.42 2.4 7.45 -3175.74 0 0 166.73 3226.29 0 7.93 28.47 1.94 7.13 1.94 7.13 1.94 7.13 1.92 7.15 1.91 7.15c6.14,23.06 12.08,46.17 17.85,69.4l7.62 31.14 1.74 7.2c5.19,21.65 10.21,43.38 15.06,65.15l1.6 7.28 0.12 0.48 6.23 28.59 1.56 7.3c4.65,21.87 9.14,43.77 13.48,65.74l1.43 7.32 5.62 29.34 1.39 7.35c4.41,23.76 8.65,47.58 12.73,71.44l0.38 2.28 -1836.48 0 0 166.73 1861.63 0 0.1 0.78 3.66 28.54c3.64,29.17 6.96,58.48 10.04,87.82l2.13 20.83c3.2,32.13 6.04,64.34 8.59,96.66l1.09 14.14c2.57,34.23 4.75,68.57 6.52,103.03l0.39 7.73c1.74,34.75 3.03,69.67 3.97,104.64l-1494.43 0 0 166.73 1495.57 0 -0.17 14.69 -0.09 7.35 -0.12 7.32c-0.49,29.34 -1.24,58.66 -2.28,87.86l-0.27 7.29 -0.29 7.3 -0.29 7.3c-4.44,109.41 -12.83,217.75 -24.98,325.03l-1389.34 0 0 166.73 1367.08 0c-23.86,157.59 -56.16,312.4 -95.97,464.17l-1279.67 0 0 166.73 1232.41 0c-55.36,181.79 -122.14,358.59 -199.21,529.76l-1894.71 0 -139.55 -345.93 29.8 0c319.58,0 581,-261.45 581,-580.97l0 -415.84c0,-16.46 -0.92,-29.24 -2.67,-39.02 0.42,-5.72 0.63,-11.49 0.63,-17.31 0,-131.28 -106.42,-237.71 -237.71,-237.71 -131.28,0 -237.7,106.43 -237.7,237.71 0,5.19 0.21,10.33 0.53,15.45l-0.05 1.89c0,298.11 -243.87,541.98 -541.98,541.98l-3283.64 0c-298.11,0 -541.98,-243.87 -541.98,-541.98l-0.03 -1.31c0.37,-5.29 0.56,-10.65 0.56,-16.03 0,-39.45 -9.6,-76.65 -26.62,-109.38 -41.9,-92 -125.51,-136.43 -184.19,-126.8 -8.83,-0.99 -17.8,-1.53 -26.9,-1.53 -131.28,0 -237.71,106.43 -237.71,237.71 0,4.34 0.15,8.61 0.37,12.9 -1.6,10.31 -2.45,24.52 -2.45,43.43l0 415.84c0,319.52 261.42,580.97 581,580.97l29.8 0 -139.55 345.93 -1894.74 0c-77.06,-171.17 -143.84,-347.97 -199.2,-529.76l1232.43 0 0 -166.73 -1279.69 0c-39.82,-151.77 -72.12,-306.58 -95.98,-464.17l1367.11 0 0 -166.73 -1389.37 0c-12.15,-107.25 -20.54,-215.64 -24.97,-325.03l-0.29 -7.3 -0.29 -7.3 -0.27 -7.29c-1.07,-29.2 -1.82,-58.49 -2.28,-87.86l-0.12 -7.32 -0.1 -7.35 -0.17 -14.69 1495.58 0 0 -166.73 -1494.44 0c0.95,-34.97 2.26,-69.86 3.98,-104.64l0.39 -7.73c1.77,-34.46 3.97,-68.8 6.52,-103.03l1.09 -14.14c2.52,-32.32 5.38,-64.53 8.58,-96.66l2.14 -20.83c3.05,-29.36 6.42,-58.65 10.04,-87.82l3.66 -28.54 0.1 -0.78 1861.65 0 0 -166.73 -1836.51 0 0.39 -2.28c4.05,-23.89 8.29,-47.7 12.73,-71.44l1.38 -7.35 5.63 -29.34 1.43 -7.32c4.31,-21.97 8.85,-43.87 13.48,-65.74l1.55 -7.3 6.23 -28.59 0.13 -0.48 1.6 -7.28c4.85,-21.77 9.89,-43.5 15.05,-65.15l1.75 -7.2 7.61 -31.14c5.78,-23.23 11.72,-46.31 17.85,-69.4l1.92 -7.15 1.91 -7.15 1.94 -7.13 1.94 -7.13 1.94 -7.13 7.93 -28.47 3226.32 0 0 -166.73 -3175.76 0 2.4 -7.45 2.42 -7.42c8.98,-27.25 18.19,-54.41 27.65,-81.42l2.59 -7.35 2.6 -7.37c10.42,-29.42 21.12,-58.71 32.15,-87.86l2.77 -7.27c33.19,-87.34 69.06,-173.4 107.46,-258.03l2418.73 0 0 -166.73 -2338.8 0c81.01,-160.48 171.41,-315.45 270.47,-464.14l1491.36 0 0 -166.74 -1374.8 0c119.96,-163.5 250.68,-318.6 391.23,-464.16l406.55 0 0 -166.74 -237.01 0 14.43 -13.43c16.76,-15.49 33.66,-30.84 50.65,-46.1l30.99 -27.49c15.81,-13.92 31.7,-27.74 47.73,-41.42 11.59,-9.92 23.23,-19.76 34.94,-29.56 15.35,-12.85 30.77,-25.63 46.29,-38.29 15.3,-12.46 30.67,-24.85 46.12,-37.12 11.4,-9.05 22.87,-18.02 34.36,-26.97 17.09,-13.31 34.29,-26.48 51.6,-39.55l32.23 -24.08c17.36,-12.87 34.84,-25.6 52.4,-38.24l32.83 -23.42c18.5,-13.05 37.12,-25.92 55.82,-38.68 10.02,-6.83 20.05,-13.7 30.12,-20.44 19.11,-12.8 38.31,-25.41 57.64,-37.95 11.71,-7.61 23.47,-15.2 35.25,-22.69 19.72,-12.54 39.55,-24.88 59.49,-37.13l29.97 -18.28c21.02,-12.68 42.19,-25.15 63.45,-37.51l32.09 -18.48c21.14,-12.05 42.38,-23.93 63.77,-35.67l31.33 -17c23.16,-12.46 46.41,-24.78 69.83,-36.83l26.07 -13.29c24.01,-12.17 48.16,-24.2 72.41,-35.96l22.36 -10.69c24.73,-11.81 49.56,-23.48 74.56,-34.85l23.91 -10.77c24.66,-11.05 49.44,-21.89 74.32,-32.49l24.47 -10.35c25.68,-10.77 51.48,-21.29 77.4,-31.6l20.97 -8.29c26.94,-10.55 54.01,-20.83 81.19,-30.87l19.28 -7.11c27.93,-10.16 56.01,-20.05 84.21,-29.68l18.41 -6.28c29.51,-9.94 59.21,-19.54 88.99,-28.88l12.53 -3.95c31.24,-9.67 62.64,-19.01 94.16,-28.01l10.52 -3.05c32.84,-9.29 65.84,-18.24 98.96,-26.8l11.72 -2.98c32.54,-8.32 65.22,-16.32 98.06,-23.93l9.07 -2.04c32.44,-7.44 65.01,-14.52 97.69,-21.26l12.81 -2.6c31.91,-6.47 63.94,-12.63 96.07,-18.4l13.85 -2.45c31.78,-5.63 63.7,-10.91 95.7,-15.86l15.01 -2.26c32.35,-4.89 64.8,-9.43 97.39,-13.62l12.07 -1.56c32.76,-4.12 65.67,-7.85 98.65,-11.27l14.23 -1.48c33.07,-3.32 66.27,-6.26 99.54,-8.85l12.39 -0.97c33.92,-2.55 67.97,-4.71 102.11,-6.48l11.03 -0.58c35.26,-1.77 70.64,-3.08 106.09,-4.02l7.03 -0.22c37.69,-0.95 75.47,-1.43 113.37,-1.43 37.9,0 75.7,0.48 113.38,1.43zm1680.79 5966.89l204.3 345.93 -3996.9 0 204.3 -345.93 3588.3 0zm-3775.6 -1322.88l5.85 9.26c6.59,10.16 13.6,20.03 21.02,29.61l3.69 4.71 0 36.25c0,6.62 0.14,13.19 0.41,19.76m0 0l0.05 0.68 0.02 0.65m0 0c0.34,7.45 0.85,14.87 1.5,22.24l-0.17 -1.21c-3.34,-25.13 -4.87,-58.64 -17.89,-92.29 -4.03,-10.36 -9.05,-20.06 -14.48,-29.66 5.43,9.6 10.45,19.3 14.48,29.66 13.02,33.65 14.55,67.16 17.89,92.29l0.17 1.21m3899.8 -42.8c2.43,-16.13 6.09,-33.39 12.78,-50.7l2.99 -7.16c-5.05,7.18 -10.31,14.19 -15.77,21.05l0 36.28 0 0.53zm-3416.81 484.44l2931.84 0c242.1,0 444.21,-179.78 479.49,-412.42 3.57,-23.52 5.46,-47.55 5.48,-72.02 2.43,-16.13 6.09,-33.39 12.78,-50.7l2.99 -7.16c20.12,-28.66 36.88,-59.87 49.66,-92.99 18.55,-48.06 28.73,-100.2 28.73,-154.58l0 -94.5c0,-237.93 -194.67,-432.62 -432.62,-432.62l-146.51 0 -2931.84 0 -146.54 0c-237.95,0 -432.62,194.69 -432.62,432.62l0 94.5c0,54.41 10.19,106.57 28.76,154.65 6.02,19.38 14.72,35.58 23.57,50.92l0.15 0.25 0.02 0.07c3.47,6.35 7.08,12.63 10.89,18.77l0.24 0.41c5.43,9.6 10.45,19.3 14.48,29.66 13.02,33.65 14.55,67.16 17.89,92.29l0.17 1.21c1.27,14.16 3.11,28.15 5.58,41.97l0.05 0.25 0.02 0.24c40.81,226.16 239.85,399.18 477.34,399.18zm-483.16 -442.85c-3.34,-25.13 -4.87,-58.64 -17.89,-92.29 -4.03,-10.36 -9.05,-20.06 -14.48,-29.66 5.43,9.6 10.45,19.3 14.48,29.66 13.02,33.65 14.55,67.16 17.89,92.29l0.17 1.21 -0.17 -1.21zm-67.24 -192.37c6.79,17.53 14.67,34.56 23.57,50.92 -8.85,-15.34 -17.55,-31.54 -23.57,-50.92zm2016.32 -1498.05c519.16,0 940.04,-420.88 940.04,-940.04 0,-519.17 -420.88,-940.05 -940.04,-940.05 -519.16,0 -940.04,420.88 -940.04,940.05 0,519.16 420.88,940.04 940.04,940.04zm0 -482.5c252.69,0 457.55,-204.85 457.55,-457.54 0,-252.7 -204.86,-457.55 -457.55,-457.55 -252.69,0 -457.55,204.85 -457.55,457.55 0,252.69 204.86,457.54 457.55,457.54z"/>
   </g>
   <path class="fil2 str0" d="M4997.36 4868.68c519.16,0 940.04,-420.88 940.04,-940.04 0,-519.17 -420.88,-940.05 -940.04,-940.05 -519.16,0 -940.04,420.88 -940.04,940.05 0,519.16 420.88,940.04 940.04,940.04zm0 -482.5c252.69,0 457.55,-204.85 457.55,-457.54 0,-252.7 -204.86,-457.55 -457.55,-457.55 -252.69,0 -457.55,204.85 -457.55,457.55 0,252.69 204.86,457.54 457.55,457.54z"/>
   <g>
    <path class="fil2 str0" d="M9082.66 8105.96l-1895.78 0 37.86 93.87 -114.09 52.81 1902.73 0c23.96,-48.42 47.04,-97.31 69.28,-146.68zm-2000.24 146.68l-86.61 -146.68 -3996.9 0 -86.61 146.68 4170.12 0zm-4198.35 0l-114.09 -52.81 37.86 -93.87 -1895.81 0c22.24,49.37 45.33,98.26 69.28,146.68l1902.76 0z"/>
    <path class="fil2 str0" d="M9257.06 4885.9l-3175.74 0 0 166.73 3226.54 0c-15.81,-56.06 -32.91,-111.59 -50.8,-166.73zm147.5 103.54c-5.99,-20.71 -12.15,-41.35 -18.43,-61.91 6.28,20.59 12.42,41.2 18.43,61.91z"/>
    <path class="fil2 str0" d="M3913.4 4885.9l-3175.76 0c-17.9,55.14 -34.99,110.67 -50.8,166.73l3226.56 0 0 -166.73zm-3304.79 41.51c-5.26,17.27 -10.4,34.6 -15.47,51.97 5.07,-17.34 10.21,-34.7 15.47,-51.97z"/>
    <path class="fil2 str0" d="M3336.41 4255l-2339.04 0c-27.74,54.97 -54.54,110.5 -80.05,166.73l2419.09 0 0 -166.73z"/>
    <path class="fil2 str0" d="M8997.33 4255l-2339.02 0 0 166.73 2419.06 0c-25.5,-56.23 -52.3,-111.76 -80.04,-166.73z"/>
    <path class="fil2 str0" d="M8746.6 3624.12l-0.02 0c16.9,23.91 33.58,47.97 50.02,72.19 -16.46,-24.22 -33.1,-48.3 -50,-72.19zm-136.33 0l-1374.99 0 0 166.74 1491.63 0c-37.63,-56.53 -76.55,-112.08 -116.64,-166.74zm248.84 166.74l0.03 0c-17.02,-26.46 -34.31,-52.74 -51.87,-78.81 17.56,26.07 34.82,52.35 51.84,78.81z"/>
    <path class="fil2 str0" d="M2759.44 3624.12l-1375.02 0c-40.08,54.66 -79,110.21 -116.63,166.74l1491.65 0 0 -166.74zm-1511.32 0l-0.02 0c-14.26,20.15 -28.3,40.45 -42.17,60.87 13.87,-20.42 27.93,-40.72 42.19,-60.87z"/>
    <path class="fil2 str0" d="M2182.42 2993.22l-237.01 0c-58.05,54.1 -114.72,109.66 -169.81,166.74l406.82 0 0 -166.74zm-556.14 164.07l-2.48 2.67 0.03 0 2.45 -2.67z"/>
    <path class="fil2 str0" d="M8049.28 2993.22l-237 0 0 166.74 406.82 0c-55.1,-57.08 -111.76,-112.64 -169.82,-166.74zm321.59 166.74l0.02 0 -2.47 -2.67 2.45 2.67z"/>
    <path class="fil2 str0" d="M9328.76 7409.47l-1280.37 0 0 166.73 1233.08 0c16.81,-55.14 32.59,-110.72 47.29,-166.73z"/>
    <path class="fil2 str0" d="M1946.33 7409.47l-1280.39 0c14.69,56.01 30.48,111.59 47.28,166.73l1233.11 0 0 -166.73zm-1390.58 15.74c6.6,25.34 13.46,50.58 20.49,75.75 -7.06,-25.17 -13.87,-50.41 -20.49,-75.75z"/>
    <path class="fil2 str0" d="M9446.39 6778.57l-1389.44 0 0 166.73 1367.69 0c8.34,-55.24 15.42,-110.86 21.75,-166.73z"/>
    <path class="fil2 str0" d="M1937.77 6778.57l-1389.46 0c6.33,55.87 13.41,111.49 21.75,166.73l1367.71 0 0 -166.73zm-1487.6 107.03c2.67,19.94 5.43,39.87 8.37,59.7 -2.94,-19.83 -5.7,-39.76 -8.37,-59.7z"/>
    <path class="fil2 str0" d="M9473.64 6147.7l-1494.43 0 0 166.73 1495.57 0c0.15,-14.94 0.56,-29.78 0.56,-44.74 0,-40.81 -0.63,-81.45 -1.7,-121.99zm111.72 155.55c0.19,-10.65 0.39,-21.51 0.41,-32.15 -0.02,10.69 -0.22,21.5 -0.41,32.15zm0.41 -33.56c0,-37.61 -0.48,-75.12 -1.41,-112.49 0.9,37.39 1.41,74.88 1.41,112.49z"/>
    <path class="fil2 str0" d="M2015.49 6147.7l-1494.44 0c-1.07,40.54 -1.7,81.18 -1.7,121.99 0,14.96 0.42,29.8 0.56,44.74l1495.58 0 0 -166.73zm-1605.16 9.5c-0.92,37.39 -1.4,74.88 -1.4,112.49 0,-37.61 0.48,-75.1 1.4,-112.49zm-1.4 113.9c0.02,10.74 0.24,21.46 0.41,32.15 -0.07,-10.74 -0.41,-21.41 -0.41,-32.15z"/>
    <path class="fil2 str0" d="M9412 5516.8l-1836.48 0 0 166.73 1861.63 0c-7.32,-55.92 -15.79,-111.47 -25.15,-166.73zm136.67 166.73c-3.81,-29.73 -7.98,-59.31 -12.42,-88.82 4.44,29.51 8.61,59.11 12.42,88.82z"/>
    <path class="fil2 str0" d="M2419.2 5516.8l-1836.51 0c-9.36,55.26 -17.82,110.81 -25.14,166.73l1861.65 0 0 -166.73zm-1960.76 77.91c-4.44,29.51 -8.63,59.09 -12.41,88.82 3.8,-29.71 8.05,-59.29 12.41,-88.82z"/>
   </g>
   <path class="fil2 str0" d="M4997.34 1681.26c2534.09,0 4588.43,2054.36 4588.43,4588.43 0,710.24 -161.45,1382.75 -449.54,1982.95l-123.14 0c295.74,-597.78 462.25,-1270.87 462.25,-1982.95 0,-2473.09 -2004.89,-4477.98 -4478,-4477.98 -2473.09,0 -4477.99,2004.89 -4477.99,4477.98 0,712.08 166.52,1385.17 462.25,1982.95l-123.13 0c-288.1,-600.2 -449.54,-1272.71 -449.54,-1982.95 0,-2534.07 2054.33,-4588.43 4588.41,-4588.43z"/>
   <g>
    <path class="fil2 str0" d="M3355.54 7266.21l3283.64 0c298.11,0 541.98,-243.87 541.98,-541.98l0.05 -1.89c-0.32,-5.12 -0.53,-10.26 -0.53,-15.45 0,-131.28 106.42,-237.71 237.7,-237.71 131.29,0 237.71,106.43 237.71,237.71 0,5.82 -0.21,11.59 -0.63,17.31 1.75,9.78 2.67,22.56 2.67,39.02l0 415.84c0,319.52 -261.42,580.97 -581,580.97l-29.8 0 -64.81 -160.67 -272.48 22.72 81.47 137.95 -3588.3 0 81.47 -137.95 -272.48 -22.72 -64.81 160.67 -29.8 0c-319.58,0 -581,-261.45 -581,-580.97l0 -415.84c0,-18.91 0.85,-33.12 2.45,-43.43 -0.22,-4.29 -0.37,-8.56 -0.37,-12.9 0,-131.28 106.43,-237.71 237.71,-237.71 9.1,0 18.07,0.54 26.9,1.53 58.68,-9.63 142.29,34.8 184.19,126.8 17.02,32.73 26.62,69.93 26.62,109.38 0,5.38 -0.19,10.74 -0.56,16.03l0.03 1.31c0,298.11 243.87,541.98 541.98,541.98z"/>
    <g>
     <path class="fil2" d="M6964.02 6459.65l-2.99 7.16c-6.69,17.31 -10.35,34.57 -12.78,50.7l15.77 -57.86zm-3982.98 -92.92c6.02,19.38 14.72,35.58 23.57,50.92l-23.57 -50.92zm34.87 70.42c5.43,9.6 10.45,19.3 14.48,29.66 13.02,33.65 14.55,67.16 17.89,92.29l0.17 1.21 -32.54 -123.16zm515.53 564.8l2931.84 0c242.1,0 444.21,-179.78 479.49,-412.42 3.57,-23.52 5.46,-47.55 5.48,-72.02l0 -0.53 0 -36.28c5.46,-6.86 10.72,-13.87 15.77,-21.05 20.12,-28.66 36.88,-59.87 49.66,-92.99 18.55,-48.06 28.73,-100.2 28.73,-154.58l0 -94.5c0,-237.93 -194.67,-432.62 -432.62,-432.62l-146.51 0 -2931.84 0 -146.54 0c-237.95,0 -432.62,194.69 -432.62,432.62l0 94.5c0,54.41 10.19,106.57 28.76,154.65 6.79,17.53 14.67,34.56 23.57,50.92l0.15 0.25 0.02 0.07c3.47,6.35 7.08,12.63 10.89,18.77l0.24 0.41 5.85 9.26c7.68,11.84 15.93,23.28 24.71,34.32l0 36.25c0,14.59 0.7,29.05 1.98,43.33 1.27,14.16 3.11,28.15 5.58,41.97l0.05 0.25 0.02 0.24c40.81,226.16 239.85,399.18 477.34,399.18z"/>
     <path id="_1_0" class="fil1 str0" d="M6964.02 6459.65l-2.99 7.16c-6.69,17.31 -10.35,34.57 -12.78,50.7m-3967.21 -150.78c6.02,19.38 14.72,35.58 23.57,50.92m11.3 19.5c5.43,9.6 10.45,19.3 14.48,29.66 13.02,33.65 14.55,67.16 17.89,92.29l0.17 1.21m482.99 441.64l2931.84 0c242.1,0 444.21,-179.78 479.49,-412.42 3.57,-23.52 5.46,-47.55 5.48,-72.02l0 -0.53 0 -36.28c5.46,-6.86 10.72,-13.87 15.77,-21.05 20.12,-28.66 36.88,-59.87 49.66,-92.99 18.55,-48.06 28.73,-100.2 28.73,-154.58l0 -94.5c0,-237.93 -194.67,-432.62 -432.62,-432.62l-146.51 0 -2931.84 0 -146.54 0c-237.95,0 -432.62,194.69 -432.62,432.62l0 94.5c0,54.41 10.19,106.57 28.76,154.65 6.79,17.53 14.67,34.56 23.57,50.92l0.15 0.25 0.02 0.07c3.47,6.35 7.08,12.63 10.89,18.77l0.24 0.41 5.85 9.26c7.68,11.84 15.93,23.28 24.71,34.32l0 36.25c0,14.59 0.7,29.05 1.98,43.33 1.27,14.16 3.11,28.15 5.58,41.97l0.05 0.25 0.02 0.24c40.81,226.16 239.85,399.18 477.34,399.18z"/>
    </g>
    <g>
     <polygon class="fil2 str0" points="2769.98,8199.83 3012.2,7599.36 3284.68,7622.08 2912.3,8252.64 2884.07,8252.64 "/>
     <polygon class="fil2 str0" points="7224.74,8199.83 6982.52,7599.36 6710.04,7622.08 7082.42,8252.64 7110.65,8252.64 "/>
    </g>
   </g>
  </g>
 </g>
</svg>
