<svg width="64" height="64" viewBox="0 0 64 64" fill="none" xmlns="http://www.w3.org/2000/svg">
<rect width="64" height="64" rx="32" fill="#F7F8FA"/>
<path d="M33.4583 21.5833C34.25 21.0972 34.7778 20.2153 34.7778 19.2222C34.7778 17.6875 33.5347 16.4445 32 16.4445C30.4653 16.4445 29.2222 17.6875 29.2222 19.2222C29.2222 20.2222 29.75 21.0972 30.5417 21.5833L26.5625 29.5417C25.9306 30.8056 24.2917 31.1667 23.1875 30.2847L17 25.3333C17.3472 24.8681 17.5556 24.2917 17.5556 23.6667C17.5556 22.132 16.3125 20.8889 14.7778 20.8889C13.2431 20.8889 12 22.132 12 23.6667C12 25.2014 13.2431 26.4445 14.7778 26.4445C14.7917 26.4445 14.8125 26.4445 14.8264 26.4445L18 43.9028C18.3819 46.0139 20.2222 47.5556 22.375 47.5556H41.625C43.7708 47.5556 45.6111 46.0208 46 43.9028L49.1736 26.4445C49.1875 26.4445 49.2083 26.4445 49.2222 26.4445C50.7569 26.4445 52 25.2014 52 23.6667C52 22.132 50.7569 20.8889 49.2222 20.8889C47.6875 20.8889 46.4444 22.132 46.4444 23.6667C46.4444 24.2917 46.6528 24.8681 47 25.3333L40.8125 30.2847C39.7083 31.1667 38.0694 30.8056 37.4375 29.5417L33.4583 21.5833Z" fill="#6DC8C5"/>
</svg>
