<svg width="280" height="280" viewBox="0 0 280 280" fill="none" xmlns="http://www.w3.org/2000/svg">
<rect width="280" height="280" fill="#D3D7DC"/>
<path d="M85 30C69.832 30 57.5 42.332 57.5 57.5V222.5C57.5 237.668 69.832 250 85 250H195C210.168 250 222.5 237.668 222.5 222.5V98.75H167.5C159.895 98.75 153.75 92.6055 153.75 85V30H85ZM167.5 30V85H222.5L167.5 30ZM85 140C85 136.353 86.4487 132.856 89.0273 130.277C91.6059 127.699 95.1033 126.25 98.75 126.25C102.397 126.25 105.894 127.699 108.473 130.277C111.051 132.856 112.5 136.353 112.5 140C112.5 143.647 111.051 147.144 108.473 149.723C105.894 152.301 102.397 153.75 98.75 153.75C95.1033 153.75 91.6059 152.301 89.0273 149.723C86.4487 147.144 85 143.647 85 140ZM150.312 153.75C152.59 153.75 154.695 154.867 155.984 156.715L193.797 211.715C195.258 213.82 195.387 216.57 194.227 218.805C193.066 221.039 190.703 222.5 188.125 222.5H150.312H133.125H112.5H91.875C89.3828 222.5 87.1055 221.168 85.9023 219.02C84.6992 216.871 84.6992 214.207 85.9883 212.102L106.613 177.727C107.859 175.664 110.094 174.375 112.5 174.375C114.906 174.375 117.141 175.621 118.387 177.727L123.887 186.922L144.641 156.758C145.93 154.91 148.035 153.793 150.312 153.793V153.75Z" fill="white"/>
</svg>
