<svg width="100" height="100" viewBox="0 0 100 100" fill="none" xmlns="http://www.w3.org/2000/svg">
<path d="M79.1667 12.5H20.8333C16.231 12.5 12.5 16.231 12.5 20.8333V79.1667C12.5 83.769 16.231 87.5 20.8333 87.5H79.1667C83.769 87.5 87.5 83.769 87.5 79.1667V20.8333C87.5 16.231 83.769 12.5 79.1667 12.5Z" stroke="#999EAD" stroke-width="2" stroke-linecap="round" stroke-linejoin="round"/>
<path d="M35.4165 41.6667C38.8683 41.6667 41.6665 38.8684 41.6665 35.4167C41.6665 31.9649 38.8683 29.1667 35.4165 29.1667C31.9647 29.1667 29.1665 31.9649 29.1665 35.4167C29.1665 38.8684 31.9647 41.6667 35.4165 41.6667Z" stroke="#999EAD" stroke-width="2" stroke-linecap="round" stroke-linejoin="round"/>
<path d="M87.5002 62.5L66.6668 41.6667L20.8335 87.5" stroke="#999EAD" stroke-width="2" stroke-linecap="round" stroke-linejoin="round"/>
</svg>
