<svg width="65" height="64" viewBox="0 0 65 64" fill="none" xmlns="http://www.w3.org/2000/svg">
<rect x="0.333008" width="64" height="64" rx="32" fill="#F7F8FA"/>
<g clip-path="url(#clip0_125_2423)">
<path d="M32.5455 21.325L26.4955 26.225C25.4893 27.0375 25.2955 28.5 26.058 29.5437C26.8643 30.6562 28.433 30.875 29.5143 30.0312L35.7205 25.2063C36.158 24.8688 36.783 24.9438 37.1268 25.3813C37.4705 25.8188 37.3893 26.4438 36.9518 26.7875L35.6455 27.8L46.7205 38H49.333C50.9893 38 52.333 36.6562 52.333 35V27C52.333 25.3438 50.9893 24 49.333 24H44.583H44.333H44.2893L44.0455 23.8438L39.508 20.9375C38.5518 20.325 37.433 20 36.2955 20C34.933 20 33.608 20.4687 32.5455 21.325ZM33.9705 29.1L30.7393 31.6125C28.7705 33.15 25.9143 32.75 24.4393 30.725C23.0518 28.8188 23.4018 26.1562 25.233 24.675L30.433 20.4688C29.708 20.1625 28.9268 20.0062 28.133 20.0062C26.958 20 25.8143 20.35 24.833 21L20.333 24H15.333C13.6768 24 12.333 25.3438 12.333 27V35C12.333 36.6562 13.6768 38 15.333 38H22.0955L27.808 43.2125C29.033 44.3312 30.9268 44.2437 32.0455 43.0187C32.3893 42.6375 32.6205 42.1938 32.7393 41.7313L33.8018 42.7062C35.0205 43.825 36.9205 43.7437 38.0393 42.525C38.3205 42.2188 38.5268 41.8625 38.658 41.4937C39.8705 42.3062 41.5205 42.1375 42.5393 41.025C43.658 39.8062 43.5768 37.9062 42.358 36.7875L33.9705 29.1Z" fill="#6DC8C5"/>
</g>
<defs>
<clipPath id="clip0_125_2423">
<rect width="40" height="32" fill="white" transform="translate(12.333 16)"/>
</clipPath>
</defs>
</svg>
