<svg width="107" height="34" viewBox="0 0 107 34" fill="none" xmlns="http://www.w3.org/2000/svg">
<path fill-rule="evenodd" clip-rule="evenodd" d="M17.4261 4.38047L17.4499 4.38122C17.5705 4.38442 17.6907 4.38887 17.8107 4.39489L17.848 4.39686C17.964 4.40298 18.0797 4.41022 18.195 4.41889L18.2382 4.42226C18.3511 4.4311 18.4637 4.44106 18.5759 4.45228L18.6243 4.45731C18.7366 4.46894 18.8486 4.48162 18.9602 4.49573L19.0004 4.50083C19.1113 4.51511 19.2217 4.53062 19.3319 4.54724L19.3829 4.55499C19.4913 4.57176 19.5995 4.58964 19.7072 4.60868L19.7564 4.61732C19.8655 4.63697 19.9742 4.65788 20.0825 4.67981L20.1254 4.68848C20.2366 4.71139 20.3474 4.73557 20.4577 4.76086L20.4887 4.7678C20.6004 4.79367 20.7115 4.82098 20.8222 4.84926L20.8621 4.8594C20.9748 4.8885 21.0868 4.91883 21.1983 4.95041L21.2339 4.96072C21.3415 4.99145 21.4489 5.02338 21.5556 5.05643L21.5942 5.06856C21.6964 5.10056 21.7982 5.13361 21.8995 5.16774L21.962 5.18899C22.0573 5.22156 22.1523 5.25495 22.2468 5.28933L22.315 5.31449C22.4071 5.34845 22.4987 5.38323 22.5899 5.41904L22.6613 5.44722C22.7488 5.482 22.8359 5.51764 22.9227 5.55398L23.0077 5.58992C23.0932 5.62637 23.1781 5.66356 23.2627 5.70147L23.3395 5.73602C23.4253 5.77502 23.5106 5.815 23.5955 5.85556L23.6709 5.89167C23.7546 5.93223 23.8377 5.97371 23.9206 6.01577L23.999 6.05558C24.0812 6.09788 24.1628 6.14116 24.2441 6.18485L24.3499 6.24224C24.4225 6.28206 24.4947 6.32245 24.5667 6.36352L24.6758 6.42635C24.7481 6.46831 24.8201 6.51078 24.8916 6.55389L24.9925 6.61546C25.0633 6.65891 25.1338 6.70271 25.2038 6.74731C25.2401 6.7704 25.2761 6.79372 25.3121 6.81712C25.379 6.8605 25.4458 6.90436 25.5119 6.94873L25.6131 7.01738C25.6777 7.06151 25.7422 7.10612 25.8061 7.1512C25.8417 7.17626 25.8771 7.20166 25.9124 7.22705C25.9733 7.27081 26.034 7.31494 26.0942 7.35955L26.2031 7.44098C26.262 7.48542 26.3203 7.5302 26.3785 7.57545C26.4167 7.60513 26.4548 7.63492 26.4927 7.66501C26.5472 7.70819 26.6013 7.75198 26.6552 7.79601C26.7036 7.83542 26.7517 7.87516 26.7996 7.91521C26.8431 7.95166 26.8866 7.98835 26.9297 8.0252C26.9837 8.07138 27.0373 8.11796 27.0906 8.16488L27.196 8.25834C27.2538 8.31006 27.3112 8.36242 27.3682 8.41508L27.4172 8.46074H26.6114V9.02766H27.9936C28.4715 9.52256 28.916 10.0499 29.3238 10.6058H24.6496V11.1727H29.7202C30.057 11.6783 30.3643 12.2052 30.6398 12.7508H22.6879V13.3177H30.9115C31.0421 13.6054 31.164 13.898 31.2769 14.195L31.2863 14.2197C31.3237 14.3188 31.3602 14.4183 31.3957 14.5184L31.4045 14.5435L31.4133 14.5685C31.4454 14.6603 31.4768 14.7526 31.5073 14.8453L31.5155 14.8705L31.5237 14.8959H20.7262V15.4627H31.6956L31.7225 15.5595L31.7291 15.5838L31.7357 15.608L31.7423 15.6323L31.7488 15.6566L31.7553 15.6809C31.7762 15.7593 31.7964 15.8379 31.816 15.9168L31.8419 16.0227L31.8479 16.0472C31.8655 16.1208 31.8826 16.1947 31.8991 16.2687L31.9045 16.2935L31.9049 16.2951L31.9261 16.3923L31.9314 16.4171C31.9472 16.4915 31.9625 16.5659 31.9772 16.6406L31.9821 16.6655L32.0012 16.7653L32.0059 16.7903C32.0209 16.8711 32.0353 16.952 32.0492 17.0332L32.0505 17.0409H25.8065V17.6078H32.136L32.1363 17.6104L32.1488 17.7075C32.1612 17.8067 32.1724 17.9063 32.1829 18.0061L32.1902 18.0769C32.201 18.1861 32.2107 18.2957 32.2194 18.4055L32.2231 18.4536C32.2318 18.57 32.2392 18.6868 32.2452 18.8039L32.2466 18.8302C32.2525 18.9483 32.2569 19.0671 32.2601 19.186H27.179V19.7529H32.2639L32.2634 19.8028L32.2631 19.8278L32.2627 19.8527C32.261 19.9524 32.2584 20.0521 32.2549 20.1514L32.254 20.1762L32.253 20.201L32.252 20.2258C32.2369 20.5978 32.2084 20.9662 32.1671 21.3309H27.4433V21.8978H32.0914C32.0103 22.4336 31.9004 22.96 31.7651 23.476H27.4142V24.0429H31.6044C31.4162 24.661 31.1891 25.2621 30.9271 25.8441H24.4851L24.0106 24.6679H24.1119C25.1985 24.6679 26.0873 23.779 26.0873 22.6926V21.2787C26.0873 21.2228 26.0842 21.1793 26.0783 21.1461C26.0797 21.1266 26.0804 21.107 26.0804 21.0872C26.0804 20.6409 25.7186 20.279 25.2722 20.279C24.8258 20.279 24.464 20.6409 24.464 21.0872C24.464 21.1049 24.4647 21.1223 24.4658 21.1398L24.4656 21.1462C24.4656 22.1598 23.6365 22.9889 22.6229 22.9889H11.4585C10.445 22.9889 9.61579 22.1598 9.61579 21.1462L9.61569 21.1417C9.61695 21.1237 9.6176 21.1055 9.6176 21.0872C9.6176 20.9531 9.58496 20.8266 9.52709 20.7153C9.38463 20.4025 9.10035 20.2515 8.90084 20.2842C8.87082 20.2808 8.84032 20.279 8.80938 20.279C8.36303 20.279 8.00117 20.6409 8.00117 21.0872C8.00117 21.102 8.00168 21.1165 8.00243 21.1311C7.99699 21.1661 7.9941 21.2145 7.9941 21.2787V22.6926C7.9941 23.779 8.88292 24.6679 9.9695 24.6679H10.0708L9.59635 25.8441H3.15423C2.89222 25.2621 2.66517 24.661 2.47695 24.0429H6.66721V23.476H2.31626C2.18088 22.96 2.07106 22.4336 1.98993 21.8978H6.63811V21.3309H1.91425C1.87294 20.9663 1.84441 20.5978 1.82935 20.2258L1.82836 20.201L1.82738 20.1762L1.82646 20.1514C1.82282 20.0521 1.82027 19.9525 1.81871 19.8527L1.8183 19.8278L1.81796 19.8028L1.81738 19.7529H6.90236V19.186H1.82126C1.82449 19.0671 1.82894 18.9485 1.83479 18.8302L1.83612 18.8039C1.84213 18.6868 1.84961 18.57 1.85828 18.4536L1.86199 18.4055C1.87056 18.2957 1.88028 18.1861 1.89116 18.0769L1.89844 18.0061C1.90881 17.9062 1.92027 17.8067 1.93257 17.7075L1.94502 17.6104L1.94536 17.6078H8.27497V17.0409H2.03083L2.03216 17.0332C2.04593 16.9519 2.06035 16.871 2.07544 16.7903L2.08013 16.7653L2.09928 16.6655L2.10414 16.6406C2.11879 16.5659 2.13423 16.4915 2.14997 16.4171L2.15524 16.3923L2.17642 16.2951L2.17686 16.2935L2.1823 16.2687C2.19879 16.1947 2.21593 16.1208 2.23347 16.0472L2.23942 16.0227L2.2653 15.9168C2.28495 15.8379 2.30515 15.7594 2.32599 15.6809L2.33252 15.6566L2.33901 15.6323L2.34561 15.608L2.3522 15.5838L2.3588 15.5595L2.38576 15.4627H13.3552V14.8959H2.55766L2.56582 14.8705L2.57405 14.8453C2.60459 14.7526 2.6359 14.6603 2.66806 14.5685L2.67687 14.5435L2.68571 14.5184C2.72114 14.4184 2.75752 14.3188 2.79502 14.2197L2.80444 14.195C2.91728 13.898 3.03924 13.6054 3.1698 13.3177H11.3935V12.7508H3.44156C3.717 12.2052 4.02436 11.6783 4.36116 11.1727H9.43179V10.6058H4.75747C5.16533 10.0499 5.60978 9.52256 6.08765 9.02766H7.46992V8.46074H6.66408L6.71314 8.41508C6.77013 8.36242 6.82759 8.31023 6.88536 8.25834L6.99072 8.16488C7.04448 8.11755 7.0985 8.07056 7.153 8.02405C7.19241 7.99032 7.23199 7.95686 7.2718 7.92354C7.32399 7.87985 7.37642 7.8364 7.42919 7.79336C7.48121 7.75099 7.53346 7.70887 7.58599 7.66715C7.62475 7.63638 7.66375 7.60588 7.70282 7.57545C7.76092 7.5302 7.8194 7.48542 7.87826 7.44098L7.98784 7.35911C8.04686 7.31535 8.1063 7.27207 8.166 7.22909L8.27762 7.14947C8.34052 7.1051 8.40383 7.06134 8.46741 7.01795C8.50148 6.99473 8.53558 6.97137 8.56982 6.94846C8.63479 6.90494 8.70007 6.86206 8.76579 6.81943C8.80561 6.79355 8.84559 6.76775 8.88564 6.74228C8.95269 6.69965 9.02011 6.65769 9.08791 6.61604L9.18981 6.55389C9.26128 6.51078 9.33325 6.46838 9.40554 6.42635L9.51464 6.36352C9.58652 6.32255 9.65874 6.28216 9.73146 6.24224L9.83798 6.18444C9.91673 6.14208 9.99578 6.10019 10.0754 6.05922L10.164 6.01404C10.2457 5.97266 10.3278 5.93176 10.4102 5.89177L10.4863 5.85543C10.5703 5.81527 10.6548 5.77559 10.7398 5.73694L10.8211 5.70032C10.9049 5.66275 10.9892 5.62589 11.0737 5.58985L11.1569 5.55466C11.2443 5.51804 11.332 5.48228 11.4201 5.44722L11.4914 5.41904C11.583 5.38317 11.675 5.34821 11.7674 5.31408L11.833 5.2899C11.928 5.25536 12.0234 5.22173 12.1193 5.18899L12.1819 5.16764C12.2822 5.13384 12.3832 5.1012 12.4845 5.06945L12.5271 5.05602C12.6333 5.02314 12.7401 4.99138 12.8472 4.96078L12.883 4.95041C12.9946 4.91883 13.1068 4.8884 13.2195 4.85929L13.2593 4.84916C13.3699 4.82087 13.4811 4.79367 13.5927 4.7678L13.6235 4.76086C13.7338 4.73557 13.8446 4.7115 13.9557 4.68858L13.9992 4.67974C14.1077 4.65774 14.2166 4.6368 14.3259 4.61718L14.373 4.60885C14.481 4.58971 14.5896 4.57176 14.6984 4.55493L14.7494 4.54724C14.8594 4.53062 14.9697 4.51518 15.0805 4.50093L15.1215 4.49563C15.2329 4.48162 15.3448 4.46894 15.457 4.45731L15.5053 4.45228C15.6178 4.44099 15.7307 4.431 15.8438 4.42219L15.8859 4.41889C16.0012 4.41022 16.117 4.40288 16.2331 4.39686L16.2706 4.39489C16.3905 4.38887 16.5108 4.38442 16.6313 4.38122L16.6552 4.38047C16.7833 4.37724 16.9118 4.37561 17.0406 4.37561C17.1695 4.37561 17.298 4.37724 17.4261 4.38047ZM23.1408 24.6679L23.8354 25.8441H10.246L10.9406 24.6679H23.1408ZM10.3038 20.1701L10.3237 20.2016C10.3461 20.2361 10.3699 20.2697 10.3951 20.3023L10.4077 20.3183V20.4415C10.4077 20.464 10.4082 20.4864 10.4091 20.5087L10.3038 20.1701ZM10.4091 20.5087L10.4093 20.511L10.4093 20.5132L10.4091 20.5087ZM10.4093 20.5132C10.4105 20.5386 10.4122 20.5638 10.4144 20.5889L10.4093 20.5132ZM23.6737 20.4433C23.682 20.3885 23.6944 20.3298 23.7172 20.2709L23.7274 20.2466C23.7102 20.271 23.6923 20.2949 23.6737 20.3182V20.4415V20.4433ZM12.0566 22.0904H22.0248C22.848 22.0904 23.5352 21.4792 23.6551 20.6882C23.6672 20.6082 23.6737 20.5265 23.6737 20.4433C23.682 20.3885 23.6944 20.3298 23.7172 20.2709L23.7274 20.2466C23.7958 20.1492 23.8528 20.043 23.8962 19.9304C23.9593 19.767 23.9939 19.5898 23.9939 19.4049V19.0836C23.9939 18.2746 23.332 17.6127 22.523 17.6127H22.0248H12.0566H11.5583C10.7493 17.6127 10.0874 18.2746 10.0874 19.0836V19.4049C10.0874 19.5899 10.1221 19.7672 10.1852 19.9307C10.2057 19.9966 10.2353 20.0516 10.2654 20.1038L10.2659 20.1047L10.2659 20.1049C10.2777 20.1265 10.29 20.1478 10.303 20.1687L10.3038 20.1701C10.3222 20.2027 10.3393 20.2357 10.353 20.2709C10.3973 20.3854 10.4025 20.4993 10.4138 20.5847L10.4144 20.5889C10.4187 20.637 10.425 20.6846 10.4334 20.7315L10.4336 20.7324L10.4336 20.7332C10.5724 21.5022 11.2491 22.0904 12.0566 22.0904ZM10.1852 19.9307C10.2083 19.9903 10.2351 20.0482 10.2654 20.1038C10.2353 20.0516 10.2057 19.9966 10.1852 19.9307ZM17.0407 14.8373C18.8059 14.8373 20.2368 13.4063 20.2368 11.6412C20.2368 9.87599 18.8059 8.445 17.0407 8.445C15.2756 8.445 13.8446 9.87599 13.8446 11.6412C13.8446 13.4063 15.2756 14.8373 17.0407 14.8373ZM17.0407 13.1968C17.8999 13.1968 18.5964 12.5003 18.5964 11.6412C18.5964 10.782 17.8999 10.0855 17.0407 10.0855C16.1816 10.0855 15.485 10.782 15.485 11.6412C15.485 12.5003 16.1816 13.1968 17.0407 13.1968Z" fill="#FEFEFE"/>
<path d="M10.3038 20.1701L10.3237 20.2016C10.3461 20.2361 10.3699 20.2697 10.3951 20.3023L10.4077 20.3183V20.4415C10.4077 20.464 10.4082 20.4864 10.4091 20.5087L10.4093 20.511L10.4093 20.5132C10.4105 20.5386 10.4122 20.5638 10.4144 20.5888M10.3038 20.1701C10.3222 20.2027 10.3393 20.2357 10.353 20.2709C10.3973 20.3854 10.4025 20.4993 10.4138 20.5847L10.4144 20.5888M10.3038 20.1701L10.303 20.1687C10.29 20.1478 10.2777 20.1265 10.2659 20.1049L10.2659 20.1047L10.2654 20.1038M10.4144 20.5888C10.4187 20.637 10.425 20.6846 10.4334 20.7315L10.4336 20.7324L10.4336 20.7332C10.5724 21.5022 11.2491 22.0904 12.0566 22.0904H22.0248C22.848 22.0904 23.5352 21.4792 23.6551 20.6882C23.6672 20.6082 23.6737 20.5265 23.6737 20.4433M23.6737 20.4433C23.682 20.3885 23.6944 20.3298 23.7172 20.2709L23.7274 20.2466M23.6737 20.4433V20.4415V20.3182C23.6923 20.2949 23.7102 20.271 23.7274 20.2466M23.7274 20.2466C23.7958 20.1492 23.8528 20.043 23.8962 19.9304C23.9593 19.767 23.9939 19.5898 23.9939 19.4049V19.0836C23.9939 18.2746 23.332 17.6127 22.523 17.6127H22.0248H12.0566H11.5583C10.7493 17.6127 10.0874 18.2746 10.0874 19.0836V19.4049C10.0874 19.5899 10.1221 19.7672 10.1852 19.9307M10.1852 19.9307C10.2057 19.9966 10.2353 20.0516 10.2654 20.1038M10.1852 19.9307C10.2083 19.9903 10.2351 20.0482 10.2654 20.1038M17.4261 4.38047L17.4499 4.38122C17.5705 4.38442 17.6907 4.38887 17.8107 4.39489L17.848 4.39686C17.964 4.40298 18.0797 4.41022 18.195 4.41889L18.2382 4.42226C18.3511 4.4311 18.4637 4.44106 18.5759 4.45228L18.6243 4.45731C18.7366 4.46894 18.8486 4.48162 18.9602 4.49573L19.0004 4.50083C19.1113 4.51511 19.2217 4.53062 19.3319 4.54724L19.3829 4.55499C19.4913 4.57176 19.5995 4.58964 19.7072 4.60868L19.7564 4.61732C19.8655 4.63697 19.9742 4.65788 20.0825 4.67981L20.1254 4.68848C20.2366 4.71139 20.3474 4.73557 20.4577 4.76086L20.4887 4.7678C20.6004 4.79367 20.7115 4.82098 20.8222 4.84926L20.8621 4.8594C20.9748 4.8885 21.0868 4.91883 21.1983 4.95041L21.2339 4.96072C21.3415 4.99145 21.4489 5.02338 21.5556 5.05643L21.5942 5.06856C21.6964 5.10056 21.7982 5.13361 21.8995 5.16774L21.962 5.18899C22.0573 5.22156 22.1523 5.25495 22.2468 5.28933L22.315 5.31449C22.4071 5.34845 22.4987 5.38323 22.5899 5.41904L22.6613 5.44722C22.7488 5.482 22.8359 5.51764 22.9227 5.55398L23.0077 5.58992C23.0932 5.62637 23.1781 5.66356 23.2627 5.70147L23.3395 5.73602C23.4253 5.77502 23.5106 5.815 23.5955 5.85556L23.6709 5.89167C23.7546 5.93223 23.8377 5.97371 23.9206 6.01577L23.999 6.05558C24.0812 6.09788 24.1628 6.14116 24.2441 6.18485L24.3499 6.24224C24.4225 6.28206 24.4947 6.32245 24.5667 6.36352L24.6758 6.42635C24.7481 6.46831 24.8201 6.51078 24.8916 6.55389L24.9925 6.61546C25.0633 6.65891 25.1338 6.70271 25.2038 6.74731C25.2401 6.7704 25.2761 6.79372 25.3121 6.81712C25.379 6.8605 25.4458 6.90436 25.5119 6.94873L25.6131 7.01738C25.6777 7.06151 25.7422 7.10612 25.8061 7.1512C25.8417 7.17626 25.8771 7.20166 25.9124 7.22705C25.9733 7.27081 26.034 7.31494 26.0942 7.35955L26.2031 7.44098C26.262 7.48542 26.3203 7.5302 26.3785 7.57545C26.4167 7.60513 26.4548 7.63492 26.4927 7.66501C26.5472 7.70819 26.6013 7.75198 26.6552 7.79601C26.7036 7.83542 26.7517 7.87516 26.7996 7.91521C26.8431 7.95166 26.8866 7.98835 26.9297 8.0252C26.9837 8.07138 27.0373 8.11796 27.0906 8.16488L27.196 8.25834C27.2538 8.31006 27.3112 8.36242 27.3682 8.41508L27.4172 8.46074H26.6114V9.02766H27.9936C28.4715 9.52256 28.916 10.0499 29.3238 10.6058H24.6496V11.1727H29.7202C30.057 11.6783 30.3643 12.2052 30.6398 12.7508H22.6879V13.3177H30.9115C31.0421 13.6054 31.164 13.898 31.2769 14.195L31.2863 14.2197C31.3237 14.3188 31.3602 14.4183 31.3957 14.5184L31.4045 14.5435L31.4133 14.5685C31.4454 14.6603 31.4768 14.7526 31.5073 14.8453L31.5155 14.8705L31.5237 14.8959H20.7262V15.4627H31.6956L31.7225 15.5595L31.7291 15.5838L31.7357 15.608L31.7423 15.6323L31.7488 15.6566L31.7553 15.6809C31.7762 15.7593 31.7964 15.8379 31.816 15.9168L31.8419 16.0227L31.8479 16.0472C31.8655 16.1208 31.8826 16.1947 31.8991 16.2687L31.9045 16.2935L31.9049 16.2951L31.9261 16.3923L31.9314 16.4171C31.9472 16.4915 31.9625 16.5659 31.9772 16.6406L31.9821 16.6655L32.0012 16.7653L32.0059 16.7903C32.0209 16.8711 32.0353 16.952 32.0492 17.0332L32.0505 17.0409H25.8065V17.6078H32.136L32.1363 17.6104L32.1488 17.7075C32.1612 17.8067 32.1724 17.9063 32.1829 18.0061L32.1902 18.0769C32.201 18.1861 32.2107 18.2957 32.2194 18.4055L32.2231 18.4536C32.2318 18.57 32.2392 18.6868 32.2452 18.8039L32.2466 18.8302C32.2525 18.9483 32.2569 19.0671 32.2601 19.186H27.179V19.7529H32.2639L32.2634 19.8028L32.2631 19.8278L32.2627 19.8527C32.261 19.9524 32.2584 20.0521 32.2549 20.1514L32.254 20.1762L32.253 20.201L32.252 20.2258C32.2369 20.5978 32.2084 20.9662 32.1671 21.3309H27.4433V21.8978H32.0914C32.0103 22.4336 31.9004 22.96 31.7651 23.476H27.4142V24.0429H31.6044C31.4162 24.661 31.1891 25.2621 30.9271 25.8441H24.4851L24.0106 24.6679H24.1119C25.1985 24.6679 26.0873 23.779 26.0873 22.6926V21.2787C26.0873 21.2228 26.0842 21.1793 26.0783 21.1461C26.0797 21.1266 26.0804 21.107 26.0804 21.0872C26.0804 20.6409 25.7186 20.279 25.2722 20.279C24.8258 20.279 24.464 20.6409 24.464 21.0872C24.464 21.1049 24.4647 21.1223 24.4658 21.1398L24.4656 21.1462C24.4656 22.1598 23.6365 22.9889 22.6229 22.9889H11.4585C10.445 22.9889 9.61579 22.1598 9.61579 21.1462L9.61569 21.1417C9.61695 21.1237 9.6176 21.1055 9.6176 21.0872C9.6176 20.9531 9.58496 20.8266 9.52709 20.7153C9.38463 20.4025 9.10035 20.2515 8.90084 20.2842C8.87082 20.2808 8.84032 20.279 8.80938 20.279C8.36303 20.279 8.00117 20.6409 8.00117 21.0872C8.00117 21.102 8.00168 21.1165 8.00243 21.1311C7.99699 21.1661 7.9941 21.2145 7.9941 21.2787V22.6926C7.9941 23.779 8.88292 24.6679 9.9695 24.6679H10.0708L9.59635 25.8441H3.15423C2.89222 25.2621 2.66517 24.661 2.47695 24.0429H6.66721V23.476H2.31626C2.18088 22.96 2.07106 22.4336 1.98993 21.8978H6.63811V21.3309H1.91425C1.87294 20.9663 1.84441 20.5978 1.82935 20.2258L1.82836 20.201L1.82738 20.1762L1.82646 20.1514C1.82282 20.0521 1.82027 19.9525 1.81871 19.8527L1.8183 19.8278L1.81796 19.8028L1.81738 19.7529H6.90236V19.186H1.82126C1.82449 19.0671 1.82894 18.9485 1.83479 18.8302L1.83612 18.8039C1.84213 18.6868 1.84961 18.57 1.85828 18.4536L1.86199 18.4055C1.87056 18.2957 1.88028 18.1861 1.89116 18.0769L1.89844 18.0061C1.90881 17.9062 1.92027 17.8067 1.93257 17.7075L1.94502 17.6104L1.94536 17.6078H8.27497V17.0409H2.03083L2.03216 17.0332C2.04593 16.9519 2.06035 16.871 2.07544 16.7903L2.08013 16.7653L2.09928 16.6655L2.10414 16.6406C2.11879 16.5659 2.13423 16.4915 2.14997 16.4171L2.15524 16.3923L2.17642 16.2951L2.17686 16.2935L2.1823 16.2687C2.19879 16.1947 2.21593 16.1208 2.23347 16.0472L2.23942 16.0227L2.2653 15.9168C2.28495 15.8379 2.30515 15.7594 2.32599 15.6809L2.33252 15.6566L2.33901 15.6323L2.34561 15.608L2.3522 15.5838L2.3588 15.5595L2.38576 15.4627H13.3552V14.8959H2.55767L2.56582 14.8705L2.57405 14.8453C2.60459 14.7526 2.6359 14.6603 2.66806 14.5685L2.67687 14.5435L2.68571 14.5184C2.72114 14.4184 2.75752 14.3188 2.79502 14.2197L2.80444 14.195C2.91728 13.898 3.03924 13.6054 3.1698 13.3177H11.3935V12.7508H3.44156C3.717 12.2052 4.02436 11.6783 4.36116 11.1727H9.43179V10.6058H4.75747C5.16533 10.0499 5.60978 9.52256 6.08765 9.02766H7.46992V8.46074H6.66408L6.71314 8.41508C6.77013 8.36242 6.82759 8.31023 6.88536 8.25834L6.99072 8.16488C7.04448 8.11755 7.0985 8.07056 7.153 8.02405C7.19241 7.99032 7.23199 7.95686 7.2718 7.92354C7.32399 7.87985 7.37642 7.8364 7.42919 7.79336C7.48121 7.75099 7.53346 7.70887 7.58599 7.66715C7.62475 7.63638 7.66375 7.60588 7.70282 7.57545C7.76092 7.5302 7.8194 7.48542 7.87826 7.44098L7.98784 7.35911C8.04686 7.31535 8.1063 7.27207 8.166 7.22909L8.27762 7.14947C8.34052 7.1051 8.40383 7.06134 8.46741 7.01795C8.50148 6.99473 8.53558 6.97137 8.56982 6.94846C8.63479 6.90494 8.70007 6.86206 8.76579 6.81943C8.80561 6.79355 8.84559 6.76775 8.88564 6.74228C8.95269 6.69965 9.02011 6.65769 9.08791 6.61604L9.18981 6.55389C9.26128 6.51078 9.33325 6.46838 9.40554 6.42635L9.51464 6.36352C9.58652 6.32255 9.65874 6.28216 9.73146 6.24224L9.83798 6.18444C9.91673 6.14208 9.99578 6.10019 10.0754 6.05922L10.164 6.01404C10.2457 5.97266 10.3278 5.93176 10.4102 5.89177L10.4863 5.85543C10.5703 5.81527 10.6548 5.77559 10.7398 5.73694L10.8211 5.70032C10.9049 5.66275 10.9892 5.62589 11.0737 5.58985L11.1569 5.55466C11.2443 5.51804 11.332 5.48228 11.4201 5.44722L11.4914 5.41904C11.583 5.38317 11.675 5.34821 11.7674 5.31408L11.833 5.2899C11.928 5.25536 12.0234 5.22173 12.1193 5.18899L12.1819 5.16764C12.2822 5.13384 12.3832 5.1012 12.4845 5.06945L12.5271 5.05602C12.6333 5.02314 12.7401 4.99138 12.8472 4.96078L12.883 4.95041C12.9946 4.91883 13.1068 4.8884 13.2195 4.85929L13.2593 4.84916C13.3699 4.82087 13.4811 4.79367 13.5927 4.7678L13.6235 4.76086C13.7338 4.73557 13.8446 4.7115 13.9557 4.68858L13.9992 4.67974C14.1077 4.65774 14.2166 4.6368 14.3259 4.61718L14.373 4.60885C14.481 4.58971 14.5896 4.57176 14.6984 4.55493L14.7494 4.54724C14.8594 4.53062 14.9697 4.51518 15.0805 4.50093L15.1215 4.49563C15.2329 4.48162 15.3448 4.46894 15.457 4.45731L15.5053 4.45228C15.6178 4.44099 15.7307 4.431 15.8438 4.42219L15.8859 4.41889C16.0012 4.41022 16.117 4.40288 16.2331 4.39686L16.2706 4.39489C16.3905 4.38887 16.5108 4.38442 16.6313 4.38122L16.6552 4.38047C16.7833 4.37724 16.9118 4.37561 17.0406 4.37561C17.1695 4.37561 17.298 4.37724 17.4261 4.38047ZM23.1408 24.6679L23.8354 25.8441H10.246L10.9406 24.6679H23.1408ZM17.0407 14.8373C18.8059 14.8373 20.2368 13.4063 20.2368 11.6412C20.2368 9.87599 18.8059 8.445 17.0407 8.445C15.2756 8.445 13.8446 9.87599 13.8446 11.6412C13.8446 13.4063 15.2756 14.8373 17.0407 14.8373ZM17.0407 13.1968C17.8999 13.1968 18.5964 12.5003 18.5964 11.6412C18.5964 10.782 17.8999 10.0855 17.0407 10.0855C16.1816 10.0855 15.485 10.782 15.485 11.6412C15.485 12.5003 16.1816 13.1968 17.0407 13.1968Z" stroke="#2B2A29" stroke-width="0.332444" stroke-miterlimit="22.9256"/>
<path fill-rule="evenodd" clip-rule="evenodd" d="M17.0399 14.8374C18.805 14.8374 20.236 13.4064 20.236 11.6412C20.236 9.87606 18.805 8.44507 17.0399 8.44507C15.2747 8.44507 13.8438 9.87606 13.8438 11.6412C13.8438 13.4064 15.2747 14.8374 17.0399 14.8374ZM17.0399 13.1969C17.899 13.1969 18.5956 12.5004 18.5956 11.6412C18.5956 10.7821 17.899 10.0856 17.0399 10.0856C16.1807 10.0856 15.4842 10.7821 15.4842 11.6412C15.4842 12.5004 16.1807 13.1969 17.0399 13.1969Z" fill="#2B2A29" stroke="#2B2A29" stroke-width="0.332444" stroke-miterlimit="22.9256"/>
<path fill-rule="evenodd" clip-rule="evenodd" d="M30.9296 25.844H24.4839L24.6126 26.1632L24.2247 26.3427H30.694C30.7755 26.1781 30.8539 26.0119 30.9296 25.844ZM24.1287 26.3427L23.8343 25.844H10.2448L9.95033 26.3427H24.1287ZM9.85435 26.3427L9.46644 26.1632L9.59517 25.844H3.14941C3.22503 26.0119 3.30354 26.1781 3.38497 26.3427H9.85435Z" fill="#2B2A29" stroke="#2B2A29" stroke-width="0.332444" stroke-miterlimit="22.9256"/>
<path fill-rule="evenodd" clip-rule="evenodd" d="M31.5226 14.8959H20.7251V15.4628H31.6953C31.6416 15.2722 31.5834 15.0834 31.5226 14.8959ZM32.0241 15.2479C32.0037 15.1775 31.9828 15.1073 31.9615 15.0374C31.9828 15.1074 32.0037 15.1775 32.0241 15.2479Z" fill="#2B2A29" stroke="#2B2A29" stroke-width="0.332444" stroke-miterlimit="22.9256"/>
<path fill-rule="evenodd" clip-rule="evenodd" d="M13.3538 14.8959H2.55624C2.49538 15.0834 2.43728 15.2722 2.38352 15.4628H13.3538V14.8959ZM2.11754 15.037C2.09966 15.0957 2.08218 15.1546 2.06494 15.2137C2.08218 15.1547 2.09966 15.0957 2.11754 15.037Z" fill="#2B2A29" stroke="#2B2A29" stroke-width="0.332444" stroke-miterlimit="22.9256"/>
<path fill-rule="evenodd" clip-rule="evenodd" d="M11.3924 12.7509H3.43965C3.34533 12.9378 3.25421 13.1266 3.16748 13.3177H11.3924V12.7509Z" fill="#2B2A29" stroke="#2B2A29" stroke-width="0.332444" stroke-miterlimit="22.9256"/>
<path fill-rule="evenodd" clip-rule="evenodd" d="M30.6392 12.7509H22.6865V13.3177H30.9113C30.8246 13.1266 30.7335 12.9378 30.6392 12.7509Z" fill="#2B2A29" stroke="#2B2A29" stroke-width="0.332444" stroke-miterlimit="22.9256"/>
<path fill-rule="evenodd" clip-rule="evenodd" d="M29.7869 10.6058H29.7869C29.8443 10.6871 29.901 10.7689 29.9569 10.8513C29.901 10.7689 29.8444 10.6871 29.7869 10.6058ZM29.3234 10.6058H24.6484V11.1728H29.72C29.592 10.9805 29.4597 10.7917 29.3234 10.6058ZM30.1695 11.1728H30.1696C30.1117 11.0828 30.0529 10.9934 29.9932 10.9048C30.0529 10.9934 30.1116 11.0828 30.1695 11.1728Z" fill="#2B2A29" stroke="#2B2A29" stroke-width="0.332444" stroke-miterlimit="22.9256"/>
<path fill-rule="evenodd" clip-rule="evenodd" d="M9.43037 10.6058H4.7553C4.61903 10.7917 4.4867 10.9805 4.35876 11.1728H9.43037V10.6058ZM4.29188 10.6058H4.29182C4.24333 10.6743 4.1956 10.7434 4.14844 10.8128C4.1956 10.7434 4.2434 10.6743 4.29188 10.6058Z" fill="#2B2A29" stroke="#2B2A29" stroke-width="0.332444" stroke-miterlimit="22.9256"/>
<path fill-rule="evenodd" clip-rule="evenodd" d="M7.46913 8.46069H6.6633C6.46593 8.64463 6.27325 8.83354 6.08594 9.02761H7.46913V8.46069ZM5.57826 9.01853L5.56982 9.02761H5.56993L5.57826 9.01853Z" fill="#2B2A29" stroke="#2B2A29" stroke-width="0.332444" stroke-miterlimit="22.9256"/>
<path fill-rule="evenodd" clip-rule="evenodd" d="M27.4162 8.46069H26.6104V9.02761H27.9935C27.8062 8.83354 27.6136 8.64463 27.4162 8.46069ZM28.5096 9.02761H28.5096L28.5012 9.01853L28.5096 9.02761Z" fill="#2B2A29" stroke="#2B2A29" stroke-width="0.332444" stroke-miterlimit="22.9256"/>
<path fill-rule="evenodd" clip-rule="evenodd" d="M31.7659 23.4758H27.4126V24.0427H31.6051C31.6622 23.8552 31.7159 23.6663 31.7659 23.4758Z" fill="#2B2A29" stroke="#2B2A29" stroke-width="0.332444" stroke-miterlimit="22.9256"/>
<path fill-rule="evenodd" clip-rule="evenodd" d="M6.66547 23.4758H2.31215C2.36209 23.6663 2.41578 23.8552 2.4729 24.0427H6.66547V23.4758ZM1.9375 23.5293C1.95994 23.6155 1.98326 23.7013 2.00717 23.7869C1.98316 23.7013 1.96001 23.6155 1.9375 23.5293Z" fill="#2B2A29" stroke="#2B2A29" stroke-width="0.332444" stroke-miterlimit="22.9256"/>
<path fill-rule="evenodd" clip-rule="evenodd" d="M32.1665 21.3307H27.4424V21.8976H32.0925C32.1209 21.7098 32.145 21.5206 32.1665 21.3307Z" fill="#2B2A29" stroke="#2B2A29" stroke-width="0.332444" stroke-miterlimit="22.9256"/>
<path fill-rule="evenodd" clip-rule="evenodd" d="M6.63694 21.3307H1.91278C1.9343 21.5206 1.95837 21.7098 1.98673 21.8976H6.63694V21.3307Z" fill="#2B2A29"/>
<path d="M1.5791 21.6946C1.58818 21.7624 1.59756 21.8301 1.60756 21.8976M6.63694 21.3307H1.91278C1.9343 21.5206 1.95837 21.7098 1.98673 21.8976H6.63694V21.3307Z" stroke="#2B2A29" stroke-width="0.332444" stroke-miterlimit="22.9256"/>
<path fill-rule="evenodd" clip-rule="evenodd" d="M32.2583 19.186H27.1772V19.7529H32.2622C32.2627 19.7021 32.2641 19.6517 32.2641 19.6008C32.2641 19.462 32.2619 19.3239 32.2583 19.186ZM32.6382 19.7149C32.6388 19.6787 32.6395 19.6418 32.6395 19.6056C32.6395 19.6419 32.6388 19.6787 32.6382 19.7149ZM32.6395 19.6008C32.6395 19.4729 32.6379 19.3454 32.6348 19.2183C32.6378 19.3455 32.6395 19.4729 32.6395 19.6008Z" fill="#2B2A29" stroke="#2B2A29" stroke-width="0.332444" stroke-miterlimit="22.9256"/>
<path fill-rule="evenodd" clip-rule="evenodd" d="M6.90078 19.186H1.81968C1.81605 19.3239 1.8139 19.462 1.8139 19.6008C1.8139 19.6517 1.81533 19.7021 1.81581 19.7529H6.90078V19.186ZM1.43848 19.6056C1.43854 19.6421 1.43929 19.6786 1.43987 19.7149C1.43963 19.6784 1.43848 19.6421 1.43848 19.6056Z" fill="#2B2A29"/>
<path d="M1.44324 19.2183C1.44011 19.3455 1.43848 19.4729 1.43848 19.6008M6.90078 19.186H1.81968C1.81605 19.3239 1.8139 19.462 1.8139 19.6008C1.8139 19.6517 1.81533 19.7021 1.81581 19.7529H6.90078V19.186ZM1.43848 19.6056C1.43854 19.6421 1.43929 19.6786 1.43987 19.7149C1.43963 19.6784 1.43848 19.6421 1.43848 19.6056Z" stroke="#2B2A29" stroke-width="0.332444" stroke-miterlimit="22.9256"/>
<path fill-rule="evenodd" clip-rule="evenodd" d="M32.0492 17.041H25.8052V17.6079H32.1347C32.1098 17.4178 32.081 17.2289 32.0492 17.041ZM32.5139 17.6079C32.5009 17.5068 32.4868 17.4062 32.4717 17.3059C32.4868 17.4062 32.5009 17.5069 32.5139 17.6079Z" fill="#2B2A29" stroke="#2B2A29" stroke-width="0.332444" stroke-miterlimit="22.9256"/>
<path fill-rule="evenodd" clip-rule="evenodd" d="M8.27421 17.041H2.03007C1.99825 17.2289 1.96949 17.4178 1.9446 17.6079H8.27421V17.041ZM1.60762 17.3059C1.59253 17.4062 1.57828 17.5068 1.56543 17.6079C1.57835 17.5069 1.5928 17.4063 1.60762 17.3059Z" fill="#2B2A29" stroke="#2B2A29" stroke-width="0.332444" stroke-miterlimit="22.9256"/>
<path fill-rule="evenodd" clip-rule="evenodd" d="M17.0391 4C25.655 4 32.6397 10.9848 32.6397 19.6007C32.6397 22.0155 32.0908 24.302 31.1113 26.3427H30.6926C31.6981 24.3102 32.2643 22.0217 32.2643 19.6007C32.2643 11.1922 25.4476 4.37553 17.0391 4.37553C8.63056 4.37553 1.8139 11.1922 1.8139 19.6007C1.8139 22.0217 2.38007 24.3102 3.38555 26.3427H2.96691C1.98737 24.302 1.43848 22.0155 1.43848 19.6007C1.43848 10.9848 8.4232 4 17.0391 4Z" fill="#2B2A29" stroke="#2B2A29" stroke-width="0.332444" stroke-miterlimit="22.9256"/>
<path fill-rule="evenodd" clip-rule="evenodd" d="M11.4581 22.9888H22.6225C23.636 22.9888 24.4652 22.1597 24.4652 21.1461L24.4654 21.1397C24.4643 21.1223 24.4636 21.1048 24.4636 21.0871C24.4636 20.6408 24.8254 20.2789 25.2717 20.2789C25.7181 20.2789 26.08 20.6408 26.08 21.0871C26.08 21.1069 26.0792 21.1266 26.0778 21.146C26.0838 21.1793 26.0869 21.2227 26.0869 21.2787V22.6925C26.0869 23.7789 25.1981 24.6678 24.1115 24.6678H24.0102L23.7898 24.1215L22.8634 24.1988L23.1404 24.6678H10.9402L11.2172 24.1988L10.2907 24.1215L10.0704 24.6678H9.96905C8.88248 24.6678 7.99365 23.7789 7.99365 22.6925V21.2787C7.99365 21.2144 7.99654 21.1661 8.00198 21.131C8.00123 21.1164 8.00072 21.1019 8.00072 21.0871C8.00072 20.6408 8.36259 20.2789 8.80894 20.2789C8.83988 20.2789 8.87038 20.2808 8.9004 20.2841C9.09991 20.2514 9.38418 20.4025 9.52664 20.7153C9.58451 20.8265 9.61715 20.953 9.61715 21.0871C9.61715 21.1054 9.61651 21.1237 9.61525 21.1416L9.61535 21.1461C9.61535 22.1597 10.4445 22.9888 11.4581 22.9888Z" fill="#2B2A29" stroke="#2B2A29" stroke-width="0.332444" stroke-miterlimit="22.9256"/>
<path fill-rule="evenodd" clip-rule="evenodd" d="M23.7273 20.2464L23.7172 20.2707C23.6944 20.3296 23.682 20.3883 23.6737 20.4431L23.7273 20.2464ZM10.1852 19.9304C10.2057 19.9963 10.2352 20.0514 10.2653 20.1036L10.1852 19.9304ZM10.3037 20.1699C10.3222 20.2025 10.3393 20.2355 10.353 20.2707C10.3972 20.3851 10.4024 20.4991 10.4138 20.5845L10.4144 20.5886L10.3037 20.1699ZM12.0565 22.0902H22.0248C22.8479 22.0902 23.5351 21.4789 23.6551 20.688C23.6672 20.608 23.6736 20.5263 23.6737 20.4431V20.4413V20.3179C23.6923 20.2946 23.7101 20.2708 23.7273 20.2464C23.7957 20.1489 23.8527 20.0428 23.8962 19.9302C23.9592 19.7668 23.9938 19.5895 23.9938 19.4046V19.0833C23.9938 18.2744 23.332 17.6124 22.5229 17.6124H22.0248H12.0565H11.5583C10.7493 17.6124 10.0874 18.2744 10.0874 19.0833V19.4046C10.0874 19.5896 10.122 19.767 10.1852 19.9304C10.2083 19.99 10.2351 20.0479 10.2653 20.1036L10.2658 20.1044L10.2659 20.1047C10.2777 20.1263 10.29 20.1476 10.3029 20.1685L10.3037 20.1699L10.3236 20.2014C10.3497 20.2416 10.3778 20.2805 10.4076 20.318V20.4413C10.4076 20.4909 10.41 20.5401 10.4144 20.5886C10.4187 20.6368 10.425 20.6843 10.4334 20.7313L10.4335 20.7322L10.4336 20.733C10.5723 21.5019 11.2491 22.0902 12.0565 22.0902Z" fill="#2B2A29"/>
<path d="M23.7273 20.2464L23.7172 20.2707C23.6944 20.3296 23.682 20.3883 23.6737 20.4431M23.7273 20.2464C23.7101 20.2708 23.6923 20.2946 23.6737 20.3179V20.4413V20.4431M23.7273 20.2464C23.7957 20.1489 23.8527 20.0428 23.8962 19.9302C23.9592 19.7668 23.9938 19.5895 23.9938 19.4046V19.0833C23.9938 18.2744 23.332 17.6124 22.5229 17.6124H22.0248H12.0565H11.5583C10.7493 17.6124 10.0874 18.2744 10.0874 19.0833V19.4046C10.0874 19.5896 10.122 19.767 10.1852 19.9304M23.6737 20.4431C23.6736 20.5263 23.6672 20.608 23.6551 20.688C23.5351 21.4789 22.8479 22.0902 22.0248 22.0902H12.0565C11.2491 22.0902 10.5723 21.5019 10.4336 20.733L10.4335 20.7322L10.4334 20.7313C10.425 20.6843 10.4187 20.6368 10.4144 20.5886M10.1852 19.9304C10.2057 19.9963 10.2352 20.0514 10.2653 20.1036M10.1852 19.9304C10.2083 19.99 10.2351 20.0479 10.2653 20.1036M10.2653 20.1036L10.2658 20.1044L10.2659 20.1047C10.2777 20.1263 10.29 20.1476 10.3029 20.1685L10.3037 20.1699M10.3037 20.1699C10.3222 20.2025 10.3393 20.2355 10.353 20.2707C10.3972 20.3851 10.4024 20.4991 10.4138 20.5845L10.4144 20.5886M10.3037 20.1699L10.3236 20.2014C10.3497 20.2416 10.3778 20.2805 10.4076 20.318V20.4413C10.4076 20.4909 10.41 20.5401 10.4144 20.5886" stroke="#2B2A29" stroke-width="0.332444" stroke-miterlimit="22.9256"/>
<path fill-rule="evenodd" clip-rule="evenodd" d="M9.46777 26.1632L10.2913 24.1216L11.2178 24.1988L9.95166 26.3427H9.85568L9.46777 26.1632Z" fill="#2B2A29" stroke="#2B2A29" stroke-width="0.332444" stroke-miterlimit="22.9256"/>
<path fill-rule="evenodd" clip-rule="evenodd" d="M24.6138 26.1632L23.7902 24.1216L22.8638 24.1988L24.1299 26.3427H24.2258L24.6138 26.1632Z" fill="#2B2A29" stroke="#2B2A29" stroke-width="0.332444" stroke-miterlimit="22.9256"/>
<path d="M46.312 11.184C46.312 11.5667 46.3773 11.898 46.508 12.178C46.648 12.4487 46.858 12.6587 47.138 12.808C47.418 12.9573 47.7773 13.032 48.216 13.032C48.664 13.032 49.028 12.962 49.308 12.822C49.588 12.6727 49.7933 12.458 49.924 12.178C50.0547 11.898 50.12 11.5667 50.12 11.184V5.5H53.732V11.38C53.732 12.36 53.5033 13.214 53.046 13.942C52.5887 14.67 51.9447 15.2393 51.114 15.65C50.2927 16.0513 49.3267 16.252 48.216 16.252C47.1147 16.252 46.1487 16.0513 45.318 15.65C44.4967 15.2393 43.8527 14.67 43.386 13.942C42.9287 13.214 42.7 12.36 42.7 11.38V5.5H46.312V11.184ZM57.7734 9.994H61.3014C61.6561 9.994 61.9314 9.91 62.1274 9.742C62.3234 9.574 62.4214 9.33133 62.4214 9.014C62.4214 8.69667 62.3234 8.454 62.1274 8.286C61.9314 8.118 61.6561 8.034 61.3014 8.034H57.2694L58.8934 6.41V16H55.2814V5.5H61.8614C62.7014 5.5 63.4341 5.64933 64.0594 5.948C64.6941 6.23733 65.1841 6.64333 65.5294 7.166C65.8841 7.68867 66.0614 8.30467 66.0614 9.014C66.0614 9.70467 65.8841 10.316 65.5294 10.848C65.1841 11.3707 64.6941 11.7767 64.0594 12.066C63.4341 12.3553 62.7014 12.5 61.8614 12.5H57.7734V9.994ZM59.0054 11.086H62.9954L66.4814 16H62.3514L59.0054 11.086ZM75.1611 10.904L75.4411 10.26C76.2344 10.288 76.8971 10.414 77.4291 10.638C77.9611 10.862 78.3577 11.1747 78.6191 11.576C78.8897 11.968 79.0251 12.4393 79.0251 12.99C79.0251 13.5593 78.8944 14.0727 78.6331 14.53C78.3811 14.9873 77.9937 15.3467 77.4711 15.608C76.9484 15.8693 76.2951 16 75.5111 16H67.2651L68.0631 10.61L67.2651 5.5H75.2171C76.1877 5.5 76.9484 5.72867 77.4991 6.186C78.0497 6.634 78.3251 7.25933 78.3251 8.062C78.3251 8.51933 78.2224 8.94867 78.0171 9.35C77.8117 9.75133 77.4757 10.092 77.0091 10.372C76.5517 10.6427 75.9357 10.82 75.1611 10.904ZM70.7931 15.216L69.4211 13.606H74.3631C74.6711 13.606 74.9137 13.5267 75.0911 13.368C75.2684 13.2 75.3571 12.976 75.3571 12.696C75.3571 12.444 75.2684 12.2293 75.0911 12.052C74.9231 11.8747 74.6711 11.786 74.3351 11.786H70.1911V9.434H73.8031C74.0457 9.434 74.2464 9.35933 74.4051 9.21C74.5731 9.06067 74.6571 8.86933 74.6571 8.636C74.6571 8.42133 74.5824 8.244 74.4331 8.104C74.2837 7.964 74.0737 7.894 73.8031 7.894H69.4351L70.7931 6.284L71.5071 10.61L70.7931 15.216ZM82.2187 14.236V11.366H89.3727V14.236H82.2187ZM88.2667 5.5L92.8727 16H89.0227L85.3967 7.096H86.3207L82.6947 16H78.8447L83.4507 5.5H88.2667ZM103.402 13.368L102.422 13.606V5.5H105.922V16H101.4L96.192 7.908L97.172 7.67V16H93.672V5.5H98.334L103.402 13.368Z" fill="#2B2D33"/>
<path d="M46.12 18.5C46.9533 18.5 47.6867 18.6567 48.32 18.97C48.9533 19.2833 49.4467 19.7233 49.8 20.29C50.1533 20.85 50.33 21.5033 50.33 22.25C50.33 22.99 50.1533 23.6433 49.8 24.21C49.4467 24.77 48.9533 25.21 48.32 25.53C47.6867 25.8433 46.9533 26 46.12 26H42.91V18.5H46.12ZM43.85 25.75L43.25 25.17H46.16C46.8 25.17 47.36 25.0467 47.84 24.8C48.32 24.5533 48.6933 24.21 48.96 23.77C49.2333 23.33 49.37 22.8233 49.37 22.25C49.37 21.6633 49.2333 21.1533 48.96 20.72C48.6933 20.28 48.32 19.9367 47.84 19.69C47.36 19.4433 46.8 19.32 46.16 19.32H43.25L43.85 18.75V25.75ZM60.2949 25.69H59.8649L62.3849 18.5H63.3649L60.6849 26H59.5149L56.8049 18.89H57.3049L54.5949 26H53.4149L50.7449 18.5H51.7249L54.2349 25.69H53.8249L56.5349 18.5H57.5749L60.2949 25.69ZM70.2427 21.85V22.65H65.1327V21.85H70.2427ZM65.7227 22.25L65.1527 25.77L64.6527 25.18H70.5127V26H64.1927L64.8127 22.25L64.1927 18.5H70.4627V19.32H64.6527L65.1527 18.73L65.7227 22.25ZM72.9125 18.5V25.58L72.4925 25.17H78.1625V26H71.9725V18.5H72.9125ZM80.1488 18.5V25.58L79.7288 25.17H85.3988V26H79.2088V18.5H80.1488ZM86.4452 18.5H87.3852V26H86.4452V18.5ZM96.1191 25.53L95.6591 25.56V18.5H96.5691V26H95.3591L89.6491 18.94L90.1091 18.91V26H89.1991V18.5H90.4191L96.1191 25.53ZM105.809 22.73C105.802 23.2033 105.709 23.6467 105.529 24.06C105.355 24.4733 105.105 24.8367 104.779 25.15C104.459 25.4567 104.069 25.6967 103.609 25.87C103.155 26.0433 102.645 26.13 102.079 26.13C101.479 26.13 100.925 26.04 100.419 25.86C99.9188 25.6733 99.4821 25.41 99.1088 25.07C98.7421 24.73 98.4588 24.3233 98.2588 23.85C98.0588 23.37 97.9588 22.8367 97.9588 22.25C97.9588 21.6633 98.0588 21.1333 98.2588 20.66C98.4654 20.18 98.7554 19.77 99.1288 19.43C99.5021 19.09 99.9421 18.83 100.449 18.65C100.955 18.4633 101.515 18.37 102.129 18.37C102.862 18.37 103.509 18.4933 104.069 18.74C104.635 18.9867 105.092 19.3267 105.439 19.76C105.785 20.1867 105.992 20.6767 106.059 21.23H105.099C105.025 20.8233 104.855 20.47 104.589 20.17C104.322 19.8633 103.979 19.6267 103.559 19.46C103.145 19.2933 102.662 19.21 102.109 19.21C101.462 19.21 100.899 19.3333 100.419 19.58C99.9454 19.8267 99.5754 20.1767 99.3088 20.63C99.0488 21.0833 98.9188 21.6233 98.9188 22.25C98.9188 22.87 99.0521 23.41 99.3188 23.87C99.5854 24.33 99.9621 24.6833 100.449 24.93C100.935 25.1767 101.505 25.3 102.159 25.3C102.799 25.3 103.355 25.1833 103.829 24.95C104.309 24.7167 104.682 24.3967 104.949 23.99C105.215 23.5833 105.355 23.1167 105.369 22.59L105.809 22.73ZM102.529 23.14V22.39H106.149V26H105.419L105.329 22.82L105.589 23.14H102.529Z" fill="#2B2D33"/>
</svg>
