<svg width="41" height="41" viewBox="0 0 41 41" fill="none" xmlns="http://www.w3.org/2000/svg">
<path d="M14.6171 35.1171C22.6899 38.3661 31.8681 34.4556 35.1171 26.3827C38.3661 18.3099 34.4556 9.13175 26.3828 5.88275C18.3099 2.63374 9.13179 6.54423 5.88278 14.6171C2.63378 22.6899 6.54426 31.8681 14.6171 35.1171Z" fill="black"/>
<path d="M26.3827 5.87223C26.3791 5.87078 26.3755 5.86933 26.3701 5.86715C26.3683 5.86643 26.3683 5.86642 26.3665 5.8657C26.3629 5.86425 26.3611 5.86352 26.3575 5.86207C26.3557 5.86135 26.3556 5.86135 26.3556 5.86135C26.352 5.8599 26.3502 5.85917 26.3466 5.85772C26.3448 5.85699 26.3448 5.85699 26.343 5.85627C26.3394 5.85482 26.3376 5.85409 26.334 5.85264C26.3322 5.85192 26.3322 5.85191 26.3304 5.85119C26.3268 5.84974 26.325 5.84901 26.3232 5.84829C26.3214 5.84756 26.3214 5.84756 26.3196 5.84684C26.316 5.84539 26.3142 5.84466 26.3124 5.84394C26.3106 5.84321 26.3088 5.84248 26.307 5.84176C26.3052 5.84103 26.3034 5.84031 26.3016 5.83958C26.2998 5.83886 26.298 5.83813 26.2962 5.8374C26.2944 5.83668 26.2926 5.83596 26.2908 5.83523C26.289 5.8345 26.2871 5.83378 26.2853 5.83305C26.2835 5.83233 26.2817 5.8316 26.2799 5.83088C26.2781 5.83015 26.2763 5.82942 26.2727 5.82797C26.2709 5.82725 26.2691 5.82652 26.2673 5.8258C26.2655 5.82507 26.2637 5.82435 26.2619 5.82362C26.2601 5.8229 26.2583 5.82217 26.2565 5.82145C26.2547 5.82072 26.2529 5.81999 26.2511 5.81927C26.2493 5.81854 26.2475 5.81782 26.2457 5.81709C26.2439 5.81637 26.2421 5.81564 26.2403 5.81492C26.2385 5.81419 26.2367 5.81347 26.2349 5.81274C26.2331 5.81202 26.2313 5.81129 26.2295 5.81056C26.2277 5.80984 26.2259 5.80911 26.2223 5.80766C26.2187 5.80621 26.2186 5.80621 26.2168 5.80548C26.215 5.80476 26.2132 5.80404 26.2114 5.80331C26.2096 5.80258 26.2078 5.80186 26.206 5.80113C26.2042 5.80041 26.2024 5.79968 26.2006 5.79896C26.1988 5.79823 26.197 5.7975 26.1952 5.79678C26.1934 5.79605 26.1916 5.79533 26.1898 5.7946C26.188 5.79388 26.1862 5.79315 26.1826 5.7917C26.1808 5.79097 26.179 5.79025 26.1772 5.78953C26.1754 5.7888 26.1736 5.78808 26.17 5.78663C26.1682 5.7859 26.1664 5.78517 26.1646 5.78445C26.1628 5.78372 26.161 5.783 26.1592 5.78227C26.1574 5.78155 26.1556 5.78082 26.1538 5.78009C26.152 5.77937 26.1502 5.77864 26.1483 5.77792C26.1465 5.77719 26.1447 5.77647 26.1429 5.77574C26.1411 5.77502 26.1393 5.77429 26.1375 5.77356C26.1357 5.77284 26.1339 5.77211 26.1321 5.77139C26.1303 5.77066 26.1285 5.76994 26.1249 5.76849C26.1231 5.76776 26.1213 5.76704 26.1195 5.76631C26.1177 5.76558 26.1159 5.76486 26.1141 5.76414C26.1123 5.76341 26.1105 5.76268 26.1087 5.76196C26.1069 5.76123 26.1051 5.7605 26.1033 5.75978C26.1015 5.75905 26.0997 5.75833 26.0979 5.7576C26.0961 5.75688 26.0943 5.75615 26.0925 5.75543C26.0907 5.7547 26.0889 5.75398 26.0871 5.75325C26.0853 5.75253 26.0835 5.7518 26.0817 5.75107C26.0799 5.75035 26.0781 5.74962 26.0763 5.7489C26.0744 5.74817 26.0726 5.74745 26.0708 5.74672C26.069 5.746 26.0672 5.74527 26.0654 5.74455C26.0636 5.74382 26.0618 5.74309 26.06 5.74237C26.0582 5.74164 26.0564 5.74092 26.0546 5.74019C26.0528 5.73947 26.051 5.73874 26.0492 5.73802C26.0474 5.73729 26.0456 5.73657 26.0438 5.73584C26.042 5.73512 26.0402 5.73439 26.0384 5.73366C26.0366 5.73294 26.0348 5.73221 26.033 5.73149C26.0312 5.73076 26.0294 5.73004 26.0276 5.72931C26.0258 5.72858 26.024 5.72786 26.0222 5.72714C26.0204 5.72641 26.0186 5.72568 26.0168 5.72496C26.015 5.72423 26.0132 5.72351 26.0114 5.72278C26.0096 5.72206 26.0077 5.72133 26.0059 5.7206C26.0041 5.71988 26.0023 5.71916 26.0005 5.71843C25.9987 5.71771 25.9969 5.71698 25.9951 5.71625C25.9933 5.71553 25.9915 5.7148 25.9897 5.71408C25.9879 5.71335 25.9861 5.71263 25.9843 5.7119C25.9825 5.71117 25.9807 5.71045 25.9789 5.70973C25.9771 5.709 25.9753 5.70827 25.9735 5.70755C25.9717 5.70682 25.9699 5.70609 25.9681 5.70537C25.9663 5.70464 25.9645 5.70392 25.9627 5.70319C25.9609 5.70247 25.9591 5.70174 25.9573 5.70102C25.9555 5.70029 25.9537 5.69957 25.9519 5.69884C25.9501 5.69812 25.9483 5.69739 25.9465 5.69666C25.9447 5.69594 25.9429 5.69521 25.9411 5.69449C25.9393 5.69376 25.9374 5.69304 25.9356 5.69231C25.9338 5.69159 25.932 5.69086 25.9302 5.69014C25.9284 5.68941 25.9266 5.68868 25.9248 5.68796C25.923 5.68723 25.9212 5.68651 25.9194 5.68578C25.9176 5.68506 25.9158 5.68433 25.914 5.68361C25.9122 5.68288 25.9104 5.68216 25.9086 5.68143C25.9068 5.68071 25.905 5.67998 25.9032 5.67925C25.9014 5.67853 25.8996 5.6778 25.8978 5.67708C25.896 5.67635 25.8942 5.67562 25.8906 5.67417C25.8888 5.67345 25.887 5.67273 25.8852 5.672C25.8834 5.67127 25.8816 5.67055 25.8798 5.66982C25.878 5.6691 25.8762 5.66837 25.8744 5.66765C25.8726 5.66692 25.8708 5.66619 25.8689 5.66547C25.8671 5.66474 25.8654 5.66402 25.8635 5.66329C25.8617 5.66257 25.8581 5.66112 25.8563 5.66039C25.8545 5.65966 25.8527 5.65894 25.8509 5.65822C25.8491 5.65749 25.8473 5.65677 25.8437 5.65532C25.8419 5.65459 25.8401 5.65386 25.8383 5.65314C25.8365 5.65241 25.8347 5.65168 25.8329 5.65096C25.8311 5.65023 25.8293 5.64951 25.8275 5.64878C25.8257 5.64806 25.8239 5.64733 25.8221 5.64661C25.8203 5.64588 25.8185 5.64516 25.8167 5.64443C25.8149 5.64371 25.8131 5.64298 25.8113 5.64225C25.8095 5.64153 25.8077 5.6408 25.8059 5.64008C25.8041 5.63935 25.8023 5.63863 25.7987 5.63718C25.7969 5.63645 25.795 5.63573 25.7932 5.635C25.7914 5.63427 25.7896 5.63355 25.7878 5.63282C25.786 5.6321 25.7842 5.63137 25.7824 5.63065C25.7806 5.62992 25.7788 5.6292 25.7752 5.62775C25.7734 5.62702 25.7716 5.62629 25.7698 5.62557C25.768 5.62484 25.7662 5.62412 25.7626 5.62267C25.7608 5.62194 25.759 5.62122 25.7572 5.62049C25.7554 5.61976 25.7536 5.61904 25.75 5.61759C25.7482 5.61686 25.7464 5.61614 25.7446 5.61541C25.7428 5.61469 25.741 5.61396 25.7392 5.61324C25.7374 5.61251 25.7356 5.61178 25.7338 5.61106C25.732 5.61033 25.7302 5.60961 25.7265 5.60816C25.7247 5.60743 25.7229 5.6067 25.7211 5.60598C25.7193 5.60525 25.7175 5.60453 25.7157 5.60381C25.7139 5.60308 25.7121 5.60235 25.7103 5.60163C25.7085 5.6009 25.7067 5.60018 25.7049 5.59945C25.7031 5.59873 25.7013 5.598 25.6995 5.59727C25.6977 5.59655 25.6959 5.59583 25.6941 5.5951C25.6923 5.59437 25.6905 5.59365 25.6887 5.59292C25.6869 5.5922 25.6851 5.59147 25.6815 5.59002C25.6797 5.5893 25.6779 5.58857 25.6761 5.58784C25.6743 5.58712 25.6725 5.58639 25.6689 5.58494C25.6671 5.58422 25.6653 5.58349 25.6635 5.58277C25.6617 5.58204 25.6599 5.58131 25.6562 5.57986C25.6544 5.57914 25.6526 5.57841 25.6508 5.57769C25.649 5.57696 25.6472 5.57624 25.6454 5.57551C25.6436 5.57479 25.6418 5.57406 25.64 5.57334C25.6382 5.57261 25.6364 5.57188 25.6328 5.57043C25.631 5.56971 25.6292 5.56898 25.6274 5.56826C25.6256 5.56753 25.6238 5.5668 25.6202 5.56535C25.6184 5.56463 25.6166 5.5639 25.6148 5.56318C25.613 5.56245 25.6112 5.56173 25.6076 5.56027C25.6058 5.55955 25.604 5.55883 25.6022 5.5581C25.6004 5.55737 25.5986 5.55665 25.5968 5.55592C25.595 5.5552 25.5932 5.55447 25.5914 5.55375C25.5896 5.55302 25.5878 5.5523 25.5841 5.55085C25.5823 5.55012 25.5805 5.54939 25.5787 5.54867C25.5769 5.54794 25.5751 5.54722 25.5733 5.54649C25.5715 5.54577 25.5697 5.54504 25.5679 5.54432C25.5661 5.54359 25.5643 5.54286 25.5625 5.54214C25.5607 5.54141 25.5589 5.54069 25.5571 5.53996C25.5553 5.53924 25.5535 5.53851 25.5517 5.53778C25.5499 5.53706 25.5481 5.53634 25.5463 5.53561C25.5445 5.53489 25.5427 5.53416 25.5409 5.53343C25.5391 5.53271 25.5373 5.53198 25.5355 5.53126C25.5337 5.53053 25.5319 5.52981 25.5301 5.52908C25.5283 5.52835 25.5265 5.52763 25.5247 5.52691C25.5229 5.52618 25.5211 5.52545 25.5192 5.52473C25.5174 5.524 25.5156 5.52328 25.5138 5.52255C25.512 5.52183 25.5102 5.5211 25.5084 5.52037C25.5066 5.51965 25.5048 5.51893 25.503 5.5182C25.5012 5.51747 25.4994 5.51675 25.4958 5.5153C25.494 5.51457 25.4922 5.51385 25.4904 5.51312C25.4886 5.5124 25.4868 5.51167 25.485 5.51094C25.4832 5.51022 25.4814 5.50949 25.4796 5.50877C25.4778 5.50804 25.476 5.50732 25.4724 5.50586C25.4706 5.50514 25.4688 5.50442 25.467 5.50369C25.4652 5.50296 25.4634 5.50224 25.4616 5.50151C25.4598 5.50079 25.458 5.50006 25.4562 5.49934C25.4544 5.49861 25.4526 5.49788 25.4507 5.49716C25.4489 5.49643 25.4471 5.49571 25.4453 5.49498C25.4435 5.49426 25.4417 5.49353 25.4399 5.49281C25.4381 5.49208 25.4363 5.49136 25.4345 5.49063C25.4327 5.48991 25.4309 5.48918 25.4273 5.48773C25.4255 5.487 25.4237 5.48628 25.4219 5.48555C25.4201 5.48483 25.4183 5.4841 25.4165 5.48337C25.4147 5.48265 25.4129 5.48193 25.4111 5.4812C25.4093 5.48048 25.4075 5.47975 25.4057 5.47902C25.4039 5.4783 25.4021 5.47757 25.4003 5.47685C25.3985 5.47612 25.3967 5.47539 25.3949 5.47467C25.3931 5.47394 25.3913 5.47322 25.3895 5.4725C25.3877 5.47177 25.3859 5.47104 25.3822 5.46959C25.3804 5.46886 25.3787 5.46814 25.3768 5.46742C25.375 5.46669 25.3732 5.46597 25.3696 5.46452C25.3678 5.46379 25.366 5.46306 25.3642 5.46234C25.3624 5.46161 25.3588 5.46016 25.357 5.45944C25.3552 5.45871 25.3534 5.45798 25.3516 5.45726C25.3498 5.45653 25.348 5.45581 25.3444 5.45436C25.3426 5.45363 25.3408 5.45291 25.339 5.45218C25.3372 5.45145 25.3336 5.45001 25.3318 5.44928C25.33 5.44855 25.3282 5.44783 25.3264 5.4471C25.3246 5.44638 25.3228 5.44565 25.3192 5.4442C25.3174 5.44348 25.3156 5.44275 25.3138 5.44203C25.312 5.4413 25.3083 5.43985 25.3065 5.43912C25.3047 5.4384 25.3029 5.43767 25.3011 5.43695C25.2993 5.43622 25.2957 5.43477 25.2939 5.43404C25.2921 5.43332 25.2903 5.43259 25.2885 5.43187C25.2867 5.43114 25.2849 5.43042 25.2813 5.42896C25.2795 5.42824 25.2777 5.42752 25.2759 5.42679C25.2741 5.42606 25.2705 5.42462 25.2687 5.42389C25.2669 5.42316 25.2651 5.42244 25.2633 5.42171C25.2615 5.42099 25.2597 5.42026 25.2561 5.41881C25.2543 5.41809 25.2525 5.41736 25.2507 5.41663C25.2489 5.41591 25.2453 5.41446 25.2435 5.41373C25.2417 5.41301 25.2398 5.41228 25.238 5.41155C25.2362 5.41083 25.2344 5.4101 25.2308 5.40865C25.229 5.40793 25.2272 5.4072 25.2254 5.40647C25.2236 5.40575 25.2218 5.40503 25.2182 5.40357C25.2164 5.40285 25.2146 5.40213 25.2128 5.4014C25.211 5.40067 25.2092 5.39995 25.2056 5.3985C25.2038 5.39777 25.202 5.39705 25.2002 5.39632C25.1984 5.3956 25.1966 5.39487 25.193 5.39342C25.1912 5.39269 25.1894 5.39197 25.1876 5.39124C25.1858 5.39052 25.184 5.38979 25.1804 5.38834C25.1786 5.38761 25.1768 5.38689 25.175 5.38616C25.1732 5.38544 25.1714 5.38471 25.1678 5.38326C25.1659 5.38254 25.1659 5.38254 25.1623 5.38108C25.1605 5.38036 25.1569 5.37891 25.1551 5.37818C25.1533 5.37746 25.1515 5.37673 25.1497 5.37601C25.1479 5.37528 25.1443 5.37383 25.1425 5.37311C25.1407 5.37238 25.1389 5.37165 25.1371 5.37093C25.1353 5.3702 25.1317 5.36875 25.1299 5.36803C25.1281 5.3673 25.1263 5.36657 25.1245 5.36585C25.1227 5.36512 25.1191 5.36367 25.1173 5.36295C25.1155 5.36222 25.1137 5.3615 25.1137 5.3615C25.1119 5.36077 25.1083 5.35932 25.1065 5.3586C25.1047 5.35787 25.1029 5.35714 25.1029 5.35714C25.101 5.35642 25.0974 5.35497 25.0956 5.35424C25.0938 5.35352 25.0938 5.35352 25.092 5.35279C25.0902 5.35207 25.0866 5.35062 25.0848 5.34989C25.083 5.34917 25.0812 5.34844 25.0794 5.34771C25.0776 5.34699 25.074 5.34554 25.0722 5.34481C25.0704 5.34409 25.0686 5.34336 25.0668 5.34263C25.065 5.34191 25.0614 5.34046 25.0596 5.33973C25.0578 5.33901 25.056 5.33828 25.056 5.33828C25.0542 5.33755 25.0506 5.33611 25.0488 5.33538C25.047 5.33465 25.0452 5.33393 25.0452 5.33393C25.0434 5.3332 25.0398 5.33175 25.038 5.33103C25.0362 5.3303 25.0344 5.32958 25.0344 5.32958C25.0325 5.32885 25.0289 5.3274 25.0271 5.32667C25.0253 5.32595 25.0235 5.32522 25.0235 5.32522C25.0217 5.3245 25.0181 5.32305 25.0163 5.32232C25.0145 5.3216 25.0127 5.32087 25.0109 5.32014C25.0091 5.31942 25.0055 5.31797 25.0037 5.31724C25.0019 5.31652 25.0001 5.31579 25.0001 5.31579C24.9983 5.31507 24.9947 5.31362 24.9929 5.31289C24.9911 5.31217 24.9893 5.31144 24.9893 5.31144C24.9875 5.31071 24.9839 5.30926 24.9821 5.30854C24.9803 5.30781 24.9785 5.30709 24.9785 5.30709C24.9767 5.30636 24.9731 5.30491 24.9713 5.30419C24.9695 5.30346 24.9677 5.30273 24.9659 5.30201C24.9641 5.30128 24.9604 5.29983 24.9586 5.29911C24.9568 5.29838 24.955 5.29766 24.9532 5.29693C24.9514 5.29621 24.9478 5.29475 24.946 5.29403C24.9442 5.2933 24.9424 5.29258 24.9406 5.29185C24.9388 5.29113 24.9352 5.28967 24.9334 5.28895C24.9316 5.28822 24.9298 5.2875 24.9298 5.2875C24.928 5.28678 24.9244 5.28532 24.9226 5.2846C24.9208 5.28387 24.919 5.28315 24.919 5.28315C24.9172 5.28242 24.9136 5.28097 24.9118 5.28024C24.91 5.27952 24.9082 5.2788 24.9082 5.2788C24.9064 5.27807 24.9028 5.27662 24.901 5.27589C24.8992 5.27517 24.8974 5.27444 24.8974 5.27444C24.8956 5.27372 24.892 5.27226 24.8901 5.27154C24.8883 5.27081 24.8865 5.27009 24.8865 5.27009C24.8847 5.26936 24.8811 5.26791 24.8793 5.26719C24.8775 5.26646 24.8757 5.26573 24.8757 5.26573C24.8739 5.26501 24.8703 5.26356 24.8685 5.26283C24.8667 5.26211 24.8649 5.26138 24.8649 5.26138C24.8631 5.26066 24.8595 5.25921 24.8577 5.25848C24.8559 5.25775 24.8541 5.25703 24.8541 5.25703C24.8523 5.2563 24.8487 5.25485 24.8469 5.25413C24.8451 5.2534 24.8433 5.25268 24.8433 5.25268C24.8415 5.25195 24.8379 5.2505 24.8361 5.24978C24.8343 5.24905 24.8343 5.24905 24.8325 5.24832C24.8307 5.2476 24.8271 5.24615 24.8253 5.24542C24.8235 5.2447 24.8216 5.24397 24.8216 5.24397C24.8198 5.24324 24.8162 5.2418 24.8144 5.24107C24.8126 5.24034 24.8108 5.23962 24.8108 5.23962C24.809 5.23889 24.8054 5.23744 24.8036 5.23672C24.8018 5.23599 24.8 5.23526 24.8 5.23526C24.7982 5.23454 24.7946 5.23309 24.7928 5.23236C24.791 5.23164 24.7892 5.23091 24.7892 5.23091C24.7874 5.23019 24.7838 5.22874 24.782 5.22801C24.7802 5.22729 24.7802 5.22728 24.7784 5.22656C24.7766 5.22583 24.773 5.22438 24.7712 5.22366C24.7694 5.22293 24.7676 5.22221 24.7676 5.22221C24.7658 5.22148 24.7622 5.22003 24.7604 5.21931C24.7586 5.21858 24.7586 5.21858 24.7568 5.21785C24.755 5.21713 24.7514 5.21568 24.7496 5.21495C24.7477 5.21423 24.7477 5.21423 24.7459 5.2135C24.7441 5.21278 24.7405 5.21133 24.738 5.21241C24.7362 5.21168 24.7362 5.21168 24.7344 5.21095C24.7326 5.21023 24.729 5.20878 24.7265 5.20986C24.7247 5.20913 24.7229 5.20841 24.7229 5.20841C24.7211 5.20768 24.7175 5.20623 24.7157 5.2055C24.7139 5.20478 24.712 5.20405 24.712 5.20405C24.7102 5.20333 24.7066 5.20187 24.7041 5.20295C24.7023 5.20222 24.7023 5.20222 24.7005 5.2015C24.6969 5.20005 24.6951 5.19932 24.6908 5.19968C24.689 5.19895 24.689 5.19895 24.6872 5.19822C24.6836 5.19677 24.6818 5.19605 24.6774 5.1964C24.6756 5.19568 24.6756 5.19568 24.6738 5.19495C24.6702 5.1935 24.6684 5.19277 24.6641 5.19312C24.6623 5.1924 24.6623 5.1924 24.6605 5.19167C24.6569 5.19022 24.6551 5.1895 24.6507 5.18985C24.6489 5.18912 24.6489 5.18912 24.6471 5.18839C24.6435 5.18694 24.6417 5.18622 24.6374 5.18657C24.6356 5.18585 24.6356 5.18585 24.6338 5.18512C24.6302 5.18367 24.6284 5.18295 24.624 5.1833C24.6222 5.18257 24.6222 5.18258 24.6204 5.18185C24.6168 5.1804 24.615 5.17967 24.6107 5.18002C24.6089 5.17929 24.6089 5.1793 24.6071 5.17857C24.6035 5.17712 24.6017 5.17639 24.5974 5.17674C24.5956 5.17602 24.5956 5.17602 24.5938 5.1753C24.5902 5.17385 24.5884 5.17312 24.584 5.17347C24.5822 5.17275 24.5822 5.17275 24.5822 5.17275C24.5786 5.1713 24.5768 5.17057 24.5725 5.17092C24.5707 5.17019 24.5707 5.17019 24.5689 5.16947C24.5653 5.16802 24.5635 5.16729 24.5591 5.16765C24.5573 5.16692 24.5573 5.16692 24.5573 5.16692C24.5537 5.16547 24.5519 5.16475 24.5476 5.1651C24.5458 5.16437 24.5458 5.16437 24.544 5.16365C24.5404 5.16219 24.5386 5.16147 24.5343 5.16182C24.5324 5.16109 24.5324 5.16109 24.5324 5.16109C24.5288 5.15964 24.527 5.15892 24.5227 5.15927C24.5209 5.15854 24.5209 5.15854 24.5191 5.15782C24.5155 5.15637 24.5137 5.15564 24.5094 5.15599C24.5076 5.15527 24.5076 5.15527 24.5058 5.15454C24.504 5.15382 24.5004 5.15236 24.496 5.15271C24.4942 5.15199 24.4942 5.15199 24.4924 5.15126C24.4888 5.14981 24.487 5.14909 24.4827 5.14944C24.4809 5.14871 24.4809 5.14871 24.4809 5.14871C24.4773 5.14726 24.4755 5.14654 24.4711 5.14689C24.4693 5.14617 24.4693 5.14617 24.4693 5.14617C24.4657 5.14471 24.4639 5.14399 24.4596 5.14434C24.4578 5.14361 24.4578 5.14361 24.4578 5.14361C24.4542 5.14216 24.4524 5.14144 24.4481 5.14179C24.4463 5.14106 24.4462 5.14106 24.4462 5.14106C24.4426 5.13961 24.4408 5.13889 24.4365 5.13924C24.4347 5.13852 24.4347 5.13852 24.4347 5.13852C24.4311 5.13706 24.4293 5.13634 24.425 5.13669C24.4232 5.13596 24.4232 5.13596 24.4214 5.13524C24.4178 5.13378 24.416 5.13306 24.4116 5.13341C24.4098 5.13269 24.4098 5.13269 24.4098 5.13269C24.4062 5.13124 24.4044 5.13051 24.4001 5.13086C24.3983 5.13014 24.3983 5.13014 24.3983 5.13014C24.3947 5.12869 24.3904 5.12904 24.3885 5.12831L24.3867 5.12758C24.3831 5.12613 24.3813 5.12541 24.377 5.12576L24.3752 5.12504C24.3716 5.12359 24.3698 5.12286 24.3655 5.12321L24.3637 5.12249C24.3601 5.12104 24.3583 5.12031 24.3539 5.12066L24.3521 5.11993C24.3485 5.11848 24.3442 5.11884 24.3406 5.11739C24.337 5.11594 24.3326 5.11629 24.329 5.11484C24.329 5.11484 24.329 5.11484 24.3272 5.11411C24.3193 5.11301 24.3121 5.11011 24.3042 5.10901C24.007 5.03549 23.708 4.97172 23.4079 4.91587C23.392 4.91368 23.3769 4.90967 23.3592 4.90675C23.3433 4.90455 23.3282 4.90055 23.3105 4.89762C23.2947 4.89542 23.2795 4.89143 23.2618 4.8885C23.2582 4.88705 23.2539 4.8874 23.2503 4.88595C23.2467 4.8845 23.2424 4.88485 23.2388 4.8834C23.2308 4.8823 23.2229 4.8812 23.2149 4.8801C23.1991 4.8779 23.1832 4.87571 23.1663 4.87098C23.1583 4.86988 23.1504 4.86878 23.1424 4.86768C23.1345 4.86658 23.1266 4.86548 23.1186 4.86439C23.115 4.86293 23.1107 4.86328 23.1071 4.86183C23.0992 4.86073 23.0912 4.85963 23.0833 4.85853C23.0797 4.85708 23.0754 4.85744 23.0718 4.85599C23.0681 4.85453 23.0638 4.85489 23.0602 4.85344C23.0566 4.85199 23.0523 4.85233 23.0487 4.85088C23.0407 4.84978 23.0328 4.84868 23.0249 4.84759C23.0169 4.84649 23.009 4.84539 23.0011 4.84429C22.9975 4.84284 22.9931 4.84319 22.9895 4.84174C22.9859 4.84029 22.9816 4.84064 22.978 4.83919C22.9744 4.83774 22.97 4.83809 22.9664 4.83664C22.9628 4.83519 22.9585 4.83554 22.9549 4.83408C22.947 4.83299 22.939 4.83189 22.9311 4.83079C22.9275 4.82934 22.9231 4.82969 22.9195 4.82824C22.9159 4.82679 22.9116 4.82714 22.908 4.82569C22.9044 4.82424 22.9001 4.82459 22.8965 4.82314C22.8929 4.82169 22.8885 4.82204 22.8849 4.82059C22.8813 4.81914 22.877 4.81949 22.8734 4.81804C22.8618 4.81549 22.8496 4.81474 22.838 4.81219C19.9087 4.38309 16.9707 4.803 14.3382 5.93654L15.8757 9.50655C18.804 8.24699 22.0439 8.20623 25.0019 9.39672L26.4151 5.88529L26.3827 5.87223ZM9.45557 16.1429L5.83951 14.719C5.75498 14.9343 5.67406 15.1509 5.59927 15.368C5.58874 15.3994 5.57821 15.4307 5.56695 15.4639C5.55642 15.4953 5.54589 15.5267 5.53463 15.5598C5.51502 15.619 5.49541 15.6781 5.47688 15.7398C5.47543 15.7434 5.47398 15.747 5.47253 15.7506C5.43656 15.866 5.4006 15.9813 5.36644 16.0975C5.36499 16.1011 5.36354 16.1047 5.36389 16.109C5.36389 16.109 5.36389 16.109 5.36316 16.1108C5.36171 16.1144 5.36098 16.1162 5.36133 16.1205L5.3606 16.1223C5.35915 16.1259 5.35843 16.1277 5.3577 16.1296C5.35698 16.1314 5.35698 16.1314 5.35625 16.1332C5.3548 16.1368 5.35408 16.1386 5.35263 16.1422C5.3519 16.144 5.3519 16.144 5.35117 16.1458C5.34972 16.1494 5.349 16.1512 5.34755 16.1548C5.34682 16.1566 5.34682 16.1566 5.34609 16.1584C5.34464 16.162 5.34392 16.1638 5.34247 16.1674C5.34174 16.1692 5.34174 16.1692 5.34102 16.171C5.34029 16.1728 5.33884 16.1764 5.33812 16.1782C5.33739 16.18 5.33666 16.1818 5.33666 16.1818C5.33594 16.1836 5.33449 16.1872 5.33376 16.189C5.33304 16.1908 5.33231 16.1926 5.33231 16.1926C5.33159 16.1944 5.33014 16.198 5.32941 16.1999C5.32868 16.2017 5.32868 16.2017 5.32796 16.2035C5.32723 16.2053 5.32578 16.2089 5.32506 16.2107C5.32433 16.2125 5.3236 16.2143 5.3236 16.2143C5.32288 16.2161 5.32143 16.2197 5.3207 16.2215C5.31998 16.2233 5.31925 16.2251 5.31853 16.2269C5.3178 16.2287 5.31635 16.2323 5.31563 16.2341C5.3149 16.2359 5.31417 16.2377 5.31417 16.2377C5.31272 16.2413 5.312 16.2431 5.31127 16.2449C5.31055 16.2467 5.31055 16.2467 5.30982 16.2485C5.30837 16.2521 5.30765 16.2539 5.30692 16.2557C5.30619 16.2575 5.30619 16.2575 5.30547 16.2593C5.30474 16.2611 5.30402 16.2629 5.30257 16.2665C5.30184 16.2684 5.30111 16.2702 5.30039 16.272C5.29966 16.2738 5.29821 16.2774 5.29749 16.2792C5.29676 16.281 5.29604 16.2828 5.29531 16.2846C5.29459 16.2864 5.29386 16.2882 5.29241 16.2918C5.29168 16.2936 5.29096 16.2954 5.29024 16.2972C5.28951 16.299 5.28806 16.3026 5.28733 16.3044C5.28661 16.3062 5.28588 16.308 5.28516 16.3098C5.28443 16.3116 5.2837 16.3134 5.28298 16.3152C5.28225 16.317 5.28153 16.3188 5.2808 16.3206C5.28008 16.3224 5.27935 16.3242 5.27863 16.326C5.2779 16.3278 5.27718 16.3296 5.27645 16.3314C5.27573 16.3332 5.275 16.3351 5.27355 16.3387C5.27282 16.3405 5.2721 16.3423 5.27137 16.3441C5.27065 16.3459 5.26992 16.3477 5.26847 16.3513C5.26774 16.3531 5.26702 16.3549 5.26629 16.3567C5.26557 16.3585 5.26484 16.3603 5.26412 16.3621C5.26339 16.3639 5.26267 16.3657 5.26194 16.3675C5.26122 16.3693 5.26049 16.3711 5.25976 16.3729C5.25904 16.3747 5.25831 16.3765 5.25759 16.3783C5.25686 16.3801 5.25614 16.3819 5.25541 16.3837C5.25468 16.3855 5.25396 16.3873 5.25324 16.3891C5.25251 16.3909 5.25178 16.3927 5.25106 16.3945C5.25033 16.3963 5.24961 16.3981 5.24888 16.3999C5.24816 16.4017 5.24743 16.4035 5.24671 16.4054C5.24598 16.4072 5.24526 16.4089 5.24453 16.4108C5.24381 16.4126 5.24308 16.4144 5.24235 16.4162C5.24163 16.418 5.2409 16.4198 5.24018 16.4216C5.23945 16.4234 5.23873 16.4252 5.238 16.427C5.23727 16.4288 5.23655 16.4306 5.23583 16.4324C5.2351 16.4342 5.23437 16.436 5.23365 16.4378C5.23292 16.4396 5.2322 16.4414 5.23147 16.4432C5.23075 16.445 5.23002 16.4468 5.22929 16.4486C5.22857 16.4504 5.22785 16.4522 5.22712 16.454C5.2264 16.4558 5.22567 16.4576 5.22494 16.4594C5.22422 16.4612 5.22349 16.463 5.22276 16.4648C5.22204 16.4666 5.22131 16.4684 5.22059 16.4702C5.21986 16.472 5.21914 16.4739 5.21841 16.4757C5.21769 16.4775 5.21696 16.4793 5.21624 16.4811C5.21551 16.4829 5.21478 16.4847 5.21406 16.4865C5.21333 16.4883 5.21261 16.4901 5.21188 16.4919C5.21116 16.4937 5.21043 16.4955 5.20898 16.4991C5.20826 16.5009 5.20753 16.5027 5.20681 16.5045C5.20608 16.5063 5.20535 16.5081 5.20463 16.5099C5.2039 16.5117 5.20318 16.5135 5.20245 16.5153C5.20173 16.5171 5.201 16.5189 5.20027 16.5207C5.19955 16.5225 5.19883 16.5243 5.1981 16.5261C5.19737 16.5279 5.19665 16.5297 5.19592 16.5315C5.1952 16.5333 5.19447 16.5351 5.19375 16.5369C5.19302 16.5387 5.19229 16.5405 5.19157 16.5423C5.19084 16.5442 5.19012 16.5459 5.1894 16.5477C5.18867 16.5496 5.18794 16.5514 5.18649 16.555C5.18576 16.5568 5.18504 16.5586 5.18432 16.5604C5.18359 16.5622 5.18286 16.564 5.18214 16.5658C5.18141 16.5676 5.18069 16.5694 5.17996 16.5712C5.17924 16.573 5.17851 16.5748 5.17778 16.5766C5.17706 16.5784 5.17634 16.5802 5.17561 16.582C5.17488 16.5838 5.17416 16.5856 5.17271 16.5892C5.17199 16.591 5.17126 16.5928 5.17053 16.5946C5.16981 16.5964 5.16908 16.5982 5.16835 16.6C5.16763 16.6018 5.1669 16.6036 5.16618 16.6054C5.16545 16.6072 5.16473 16.609 5.164 16.6108C5.16328 16.6127 5.16255 16.6144 5.16183 16.6162C5.1611 16.6181 5.16037 16.6199 5.15965 16.6217C5.15892 16.6235 5.1582 16.6253 5.15747 16.6271C5.15675 16.6289 5.15603 16.6307 5.15638 16.635C5.15565 16.6368 5.15492 16.6386 5.1542 16.6404C5.15347 16.6422 5.15275 16.644 5.1531 16.6483C5.15238 16.6501 5.15165 16.652 5.15093 16.6538C5.1502 16.6556 5.14948 16.6574 5.14983 16.6617C5.1491 16.6635 5.14838 16.6653 5.14765 16.6671C5.14692 16.6689 5.1462 16.6707 5.14655 16.675C5.14583 16.6768 5.1451 16.6786 5.14438 16.6804C5.14365 16.6822 5.1422 16.6859 5.14328 16.6884C5.14255 16.6902 5.14183 16.692 5.14183 16.692C5.1411 16.6938 5.13964 16.6974 5.14072 16.6999C5.14 16.7017 5.13927 16.7035 5.13927 16.7035C5.13854 16.7053 5.1371 16.7089 5.13817 16.7115C5.13745 16.7133 5.13672 16.7151 5.13599 16.7169C5.13527 16.7187 5.13455 16.7205 5.1349 16.7248C5.13417 16.7266 5.13345 16.7284 5.13345 16.7284C5.13272 16.7302 5.13127 16.7338 5.13235 16.7363C5.13162 16.7381 5.1309 16.74 5.1309 16.74C5.13017 16.7418 5.12872 16.7454 5.1298 16.7479C5.12908 16.7497 5.12835 16.7515 5.12835 16.7515C5.12762 16.7533 5.12618 16.7569 5.12725 16.7594C5.12653 16.7612 5.1258 16.763 5.1258 16.763C5.12508 16.7648 5.12362 16.7684 5.12469 16.771C5.12397 16.7728 5.12397 16.7728 5.12324 16.7746C5.12252 16.7764 5.12107 16.78 5.12215 16.7825C5.12142 16.7843 5.12069 16.7861 5.12069 16.7861C5.11997 16.7879 5.11852 16.7915 5.1196 16.794C5.11887 16.7958 5.11814 16.7977 5.11742 16.7995C5.11669 16.8013 5.11525 16.8049 5.11632 16.8074C5.1156 16.8092 5.11487 16.811 5.11414 16.8128C5.11342 16.8146 5.1127 16.8164 5.11305 16.8207C5.11232 16.8225 5.1116 16.8243 5.1116 16.8243C5.11087 16.8261 5.10942 16.8298 5.1105 16.8323C5.10977 16.8341 5.10977 16.8341 5.10905 16.8359C5.10832 16.8377 5.10687 16.8413 5.10795 16.8438C5.10723 16.8456 5.10722 16.8456 5.1065 16.8474C5.10577 16.8492 5.10432 16.8528 5.10539 16.8554C5.10467 16.8572 5.10467 16.8572 5.10394 16.859C5.10321 16.8608 5.10177 16.8644 5.10284 16.8669C5.10212 16.8687 5.10212 16.8687 5.10139 16.8705C5.10067 16.8723 5.09922 16.8759 5.1003 16.8784C5.09957 16.8802 5.09957 16.8802 5.09884 16.882C5.09812 16.8838 5.09667 16.8875 5.09775 16.89C5.09702 16.8918 5.09702 16.8918 5.09629 16.8936C5.09557 16.8954 5.09412 16.899 5.0952 16.9015C5.09447 16.9033 5.09375 16.9051 5.09375 16.9051C5.09302 16.9069 5.09157 16.9105 5.09265 16.9131C5.09193 16.9149 5.0912 16.9167 5.0912 16.9167C5.09047 16.9185 5.08901 16.9221 5.09009 16.9246C5.08937 16.9264 5.08864 16.9282 5.08864 16.9282C5.08791 16.93 5.08647 16.9336 5.08754 16.9361C5.08682 16.9379 5.08609 16.9398 5.08609 16.9398C5.08537 16.9416 5.08392 16.9452 5.085 16.9477C5.08427 16.9495 5.08354 16.9513 5.08354 16.9513C5.08282 16.9531 5.08137 16.9567 5.08245 16.9592C5.08172 16.961 5.08172 16.961 5.08099 16.9628C5.08027 16.9646 5.07882 16.9682 5.0799 16.9708C5.07917 16.9726 5.07845 16.9744 5.07845 16.9744C5.07772 16.9762 5.07627 16.9798 5.07735 16.9823C5.07662 16.9841 5.0759 16.9859 5.0759 16.9859C5.07517 16.9877 5.07371 16.9913 5.07479 16.9939C5.07406 16.9957 5.07406 16.9956 5.07334 16.9975C5.07261 16.9993 5.07116 17.0029 5.07224 17.0054C5.07151 17.0072 5.07079 17.009 5.07079 17.009C5.07006 17.0108 5.06861 17.0144 5.06969 17.0169C5.06896 17.0187 5.06824 17.0205 5.06824 17.0205C5.06752 17.0223 5.06606 17.0259 5.06714 17.0285C5.06642 17.0303 5.06569 17.0321 5.06569 17.0321C5.06497 17.0339 5.06352 17.0375 5.06459 17.04C5.06387 17.0418 5.06315 17.0436 5.06315 17.0436C5.06242 17.0454 5.06097 17.049 5.06205 17.0516C5.06132 17.0534 5.06132 17.0534 5.0606 17.0552C5.05987 17.057 5.05841 17.0606 5.05949 17.0631C5.05876 17.0649 5.05876 17.0649 5.05804 17.0667C5.05731 17.0685 5.05586 17.0721 5.05694 17.0746C5.05621 17.0764 5.05621 17.0764 5.05548 17.0782C5.05476 17.08 5.05331 17.0837 5.05439 17.0862C5.05366 17.088 5.05366 17.088 5.05294 17.0898C5.05221 17.0916 5.05076 17.0952 5.05184 17.0977C5.05112 17.0995 5.05111 17.0995 5.05039 17.1013C5.04966 17.1031 5.04821 17.1067 5.04929 17.1093C5.04857 17.1111 5.04857 17.1111 5.04784 17.1129C5.04711 17.1147 5.04567 17.1183 5.04674 17.1208C5.04602 17.1226 5.04602 17.1226 5.04529 17.1244C5.04457 17.1262 5.04312 17.1298 5.0442 17.1323C5.04347 17.1341 5.04347 17.1342 5.04274 17.136C5.04202 17.1378 5.04056 17.1414 5.04164 17.1439C5.04091 17.1457 5.04091 17.1457 5.04018 17.1475C5.03946 17.1493 5.03981 17.1536 5.03909 17.1554C5.03836 17.1572 5.03836 17.1572 5.03764 17.159C5.03691 17.1608 5.03546 17.1644 5.03654 17.167C5.03581 17.1688 5.03581 17.1688 5.03509 17.1706C5.03436 17.1724 5.03291 17.176 5.03399 17.1785C5.03327 17.1803 5.03326 17.1803 5.03254 17.1821C5.03181 17.1839 5.03037 17.1875 5.03144 17.19C5.03072 17.1918 5.03072 17.1919 5.02999 17.1937C5.02927 17.1955 5.02782 17.1991 5.02889 17.2016C5.02817 17.2034 5.02817 17.2034 5.02744 17.2052C5.02672 17.207 5.02526 17.2106 5.02634 17.2131C5.02561 17.2149 5.02561 17.2149 5.02488 17.2167C5.02416 17.2185 5.02451 17.2229 5.02379 17.2247C5.02306 17.2265 5.02306 17.2265 5.02233 17.2283C5.02161 17.2301 5.02196 17.2344 5.02124 17.2362C5.02051 17.238 5.02051 17.238 5.01979 17.2398C5.01906 17.2416 5.01942 17.2459 5.01796 17.2496C5.01724 17.2514 5.01724 17.2514 5.01651 17.2532C5.01579 17.255 5.01614 17.2593 5.01469 17.2629C5.01396 17.2647 5.01396 17.2647 5.01324 17.2665C5.01251 17.2683 5.01287 17.2726 5.01214 17.2744C5.01142 17.2762 5.01142 17.2762 5.01069 17.278C5.00996 17.2799 5.00851 17.2834 5.00958 17.286C5.00886 17.2878 5.00886 17.2878 5.00813 17.2896C5.0074 17.2914 5.00776 17.2957 5.00703 17.2975C5.00631 17.2993 5.00631 17.2993 5.00558 17.3011C5.00486 17.3029 5.00521 17.3073 5.00449 17.3091C5.00376 17.3109 5.00376 17.3109 5.00303 17.3127C5.00231 17.3145 5.00266 17.3188 5.00194 17.3206C5.00121 17.3224 5.00121 17.3224 5.00049 17.3242C4.99976 17.326 5.00011 17.3303 4.99939 17.3321C4.99866 17.3339 4.99866 17.3339 4.99794 17.3357C4.99721 17.3376 4.99757 17.3419 4.99684 17.3437C4.99612 17.3455 4.99611 17.3455 4.99539 17.3473C4.99466 17.3491 4.99501 17.3534 4.99428 17.3552C4.99356 17.357 4.99355 17.357 4.99283 17.3588C4.9921 17.3606 4.99245 17.365 4.99173 17.3668C4.991 17.3686 4.99028 17.3704 4.99028 17.3704C4.98956 17.3722 4.98991 17.3765 4.98918 17.3783C4.98846 17.3801 4.98846 17.3801 4.98773 17.3819C4.98701 17.3837 4.98736 17.3881 4.98663 17.3899C4.98591 17.3917 4.98591 17.3916 4.98518 17.3935C4.98446 17.3953 4.98481 17.3996 4.98408 17.4014C4.98336 17.4032 4.98336 17.4032 4.98264 17.405C4.98118 17.4086 4.98226 17.4111 4.98154 17.4129C4.98081 17.4147 4.98081 17.4147 4.98009 17.4165C4.97864 17.4201 4.97971 17.4227 4.97826 17.4263C4.97754 17.4281 4.97754 17.4281 4.97681 17.4299C4.97536 17.4335 4.97643 17.436 4.97498 17.4396C4.97425 17.4414 4.97425 17.4414 4.97353 17.4432C4.97208 17.4468 4.97316 17.4494 4.97171 17.453C4.97098 17.4548 4.97098 17.4548 4.97025 17.4566C4.9688 17.4602 4.96988 17.4627 4.96916 17.4645C4.96843 17.4663 4.96843 17.4663 4.9677 17.4681C4.96625 17.4717 4.96733 17.4742 4.96588 17.4778C4.96516 17.4796 4.96516 17.4797 4.96443 17.4815C4.96298 17.4851 4.96406 17.4876 4.96261 17.4912C4.96188 17.493 4.96188 17.493 4.96116 17.4948C4.9597 17.4984 4.96079 17.5009 4.95933 17.5045C4.95861 17.5063 4.95861 17.5063 4.95788 17.5081C4.95643 17.5117 4.9575 17.5143 4.95605 17.5179C4.95532 17.5197 4.95532 17.5197 4.9546 17.5215C4.95314 17.5251 4.95423 17.5276 4.95277 17.5312L4.95205 17.533C4.9506 17.5366 4.95168 17.5392 4.95023 17.5428L4.9495 17.5446C4.94805 17.5482 4.94913 17.5507 4.94768 17.5543L4.94695 17.5561C4.9455 17.5597 4.94658 17.5622 4.94513 17.5658C4.9444 17.5676 4.9444 17.5677 4.94368 17.5695C4.94223 17.5731 4.94331 17.5756 4.94185 17.5792L4.94113 17.581C4.93968 17.5846 4.94075 17.5871 4.9393 17.5907C4.93857 17.5925 4.93857 17.5925 4.93857 17.5925C4.93712 17.5961 4.9382 17.5987 4.93675 17.6023C4.93602 17.6041 4.93602 17.6041 4.93602 17.6041C4.93457 17.6077 4.93565 17.6102 4.9342 17.6138C4.93347 17.6156 4.93347 17.6156 4.93347 17.6156C4.93202 17.6192 4.93238 17.6236 4.93092 17.6272C4.92947 17.6308 4.92983 17.6351 4.92838 17.6387C4.92838 17.6387 4.92838 17.6387 4.92765 17.6405C4.9262 17.6441 4.92655 17.6484 4.92583 17.6502L4.9251 17.652C4.92365 17.6556 4.92399 17.66 4.92327 17.6618L4.92254 17.6636C4.92109 17.6672 4.92144 17.6715 4.91999 17.6751C4.91854 17.6787 4.9189 17.6831 4.91745 17.6867C4.91745 17.6867 4.91744 17.6867 4.91672 17.6885C4.91527 17.6921 4.91562 17.6964 4.91417 17.7C4.91417 17.7 4.91417 17.7 4.91344 17.7018C4.91199 17.7054 4.91235 17.7097 4.91162 17.7116L4.9109 17.7134C4.90945 17.717 4.9098 17.7213 4.90835 17.7249C4.90835 17.7249 4.90835 17.7249 4.90763 17.7267C4.90618 17.7303 4.90653 17.7346 4.90508 17.7382C4.90508 17.7382 4.90508 17.7382 4.90435 17.74C4.9029 17.7436 4.90324 17.748 4.90179 17.7516C4.90179 17.7516 4.90179 17.7516 4.90107 17.7534C4.89962 17.757 4.9007 17.7595 4.89924 17.7631L4.89852 17.7649C4.89707 17.7685 4.89742 17.7729 4.8967 17.7747C4.8967 17.7747 4.8967 17.7747 4.89597 17.7765C4.89452 17.7801 4.89487 17.7844 4.89342 17.788C4.86055 17.9738 4.83381 18.1599 4.80708 18.346C4.80488 18.3619 4.80268 18.3778 4.80048 18.3936C4.79938 18.4016 4.79829 18.4095 4.79719 18.4174C4.79574 18.421 4.79609 18.4254 4.79464 18.429C4.79499 18.4333 4.79354 18.4369 4.79389 18.4412C4.79389 18.4412 4.79389 18.4412 4.79316 18.443C4.79171 18.4466 4.79206 18.451 4.79134 18.4528C4.78989 18.4564 4.79024 18.4607 4.78879 18.4643C4.78879 18.4643 4.78879 18.4643 4.78806 18.4661C4.78842 18.4705 4.78697 18.4741 4.78624 18.4759C4.78659 18.4802 4.78514 18.4838 4.78369 18.4874L4.78297 18.4892C4.78152 18.4928 4.78187 18.4972 4.78114 18.499C4.77969 18.5026 4.78003 18.5069 4.77858 18.5105C4.77786 18.5123 4.77786 18.5123 4.77786 18.5123C4.77641 18.5159 4.77748 18.5184 4.77603 18.522C4.77531 18.5238 4.77531 18.5238 4.77531 18.5238C4.77386 18.5274 4.77494 18.53 4.77348 18.5336C4.77276 18.5354 4.77276 18.5354 4.77276 18.5354C4.77131 18.539 4.77239 18.5415 4.77094 18.5451C4.77021 18.5469 4.77021 18.5469 4.77021 18.5469C4.76876 18.5505 4.76984 18.5531 4.76839 18.5567C4.76766 18.5585 4.76766 18.5585 4.76766 18.5585C4.76621 18.5621 4.76729 18.5646 4.76584 18.5682L4.76511 18.57C4.76366 18.5736 4.76473 18.5761 4.76328 18.5797L4.76255 18.5815C4.7611 18.5851 4.76218 18.5877 4.76073 18.5913L4.76001 18.5931C4.75856 18.5967 4.75891 18.601 4.75818 18.6028L4.75746 18.6046C4.75601 18.6082 4.75709 18.6108 4.75564 18.6144L4.75491 18.6162C4.75346 18.6198 4.75454 18.6223 4.75309 18.6259L4.75236 18.6277C4.75091 18.6313 4.75199 18.6338 4.75054 18.6374L4.74981 18.6392C4.74836 18.6429 4.74944 18.6454 4.74799 18.649C4.74727 18.6508 4.74726 18.6508 4.74726 18.6508C4.74581 18.6544 4.74688 18.6569 4.74543 18.6605L4.74471 18.6623C4.74325 18.6659 4.74433 18.6685 4.74288 18.6721C4.74216 18.6739 4.74216 18.6739 4.74216 18.6739C4.74071 18.6775 4.74179 18.68 4.74034 18.6836L4.73961 18.6854C4.73816 18.689 4.73924 18.6915 4.73779 18.6951C4.73706 18.6969 4.73706 18.6969 4.73706 18.6969C4.73561 18.7006 4.73669 18.7031 4.73524 18.7067C4.73451 18.7085 4.73451 18.7085 4.73379 18.7103C4.73306 18.7121 4.73342 18.7164 4.73269 18.7182C4.73196 18.72 4.73196 18.72 4.73124 18.7218C4.72979 18.7254 4.73086 18.728 4.73013 18.7298C4.72941 18.7316 4.7294 18.7316 4.7294 18.7316C4.72795 18.7352 4.72903 18.7377 4.72758 18.7413C4.72686 18.7431 4.72686 18.7431 4.72613 18.7449C4.72468 18.7485 4.72576 18.751 4.72431 18.7546C4.72358 18.7565 4.72358 18.7565 4.72358 18.7565C4.72213 18.7601 4.72321 18.7626 4.72176 18.7662C4.72103 18.768 4.72103 18.768 4.72103 18.768C4.71958 18.7716 4.72066 18.7741 4.71921 18.7777C4.71849 18.7795 4.71849 18.7795 4.71849 18.7795C4.71703 18.7831 4.71811 18.7857 4.71666 18.7893C4.71594 18.7911 4.71594 18.7911 4.71521 18.7929C4.71376 18.7965 4.71483 18.799 4.7141 18.8008C4.71338 18.8026 4.71338 18.8026 4.71265 18.8044C4.71193 18.8062 4.71228 18.8105 4.71156 18.8124C4.71083 18.8142 4.71083 18.8142 4.71191 18.8167C4.71118 18.8185 4.71153 18.8228 4.71081 18.8246C4.71008 18.8264 4.71008 18.8264 4.70936 18.8282C4.70863 18.83 4.70898 18.8344 4.70826 18.8362C4.70753 18.838 4.70754 18.838 4.70681 18.8398C4.70609 18.8416 4.70644 18.8459 4.70571 18.8477C4.70498 18.8495 4.70499 18.8495 4.70426 18.8513C4.70354 18.8531 4.70388 18.8574 4.70315 18.8592C4.70243 18.8611 4.70243 18.861 4.7017 18.8628C4.70025 18.8665 4.70133 18.869 4.7006 18.8708L4.69988 18.8726C4.69843 18.8762 4.69951 18.8787 4.69878 18.8805C4.69806 18.8823 4.69806 18.8823 4.69913 18.8849C4.69841 18.8867 4.69876 18.891 4.69804 18.8928C4.69731 18.8946 4.69731 18.8946 4.69839 18.8971C4.69766 18.8989 4.69802 18.9033 4.69729 18.9051C4.69657 18.9069 4.69656 18.9069 4.69763 18.9094C4.69691 18.9112 4.69726 18.9155 4.69654 18.9173C4.69581 18.9191 4.69581 18.9191 4.69689 18.9217C4.69616 18.9235 4.69652 18.9278 4.69579 18.9296C4.69507 18.9314 4.69507 18.9314 4.69615 18.9339C4.69542 18.9357 4.69578 18.9401 4.69505 18.9419C4.69432 18.9437 4.69432 18.9437 4.6936 18.9455C4.69287 18.9473 4.69322 18.9516 4.69249 18.9534C4.69177 18.9552 4.69177 18.9552 4.69284 18.9577C4.69212 18.9595 4.69247 18.9639 4.69175 18.9657C4.69102 18.9675 4.69102 18.9675 4.69029 18.9693C4.68884 18.9729 4.68992 18.9754 4.6892 18.9772C4.68847 18.979 4.68847 18.979 4.68955 18.9815C4.68882 18.9833 4.68918 18.9877 4.68845 18.9895C4.68773 18.9913 4.68772 18.9913 4.6888 18.9938C4.68807 18.9956 4.68843 18.9999 4.6877 19.0017C4.68697 19.0035 4.68697 19.0035 4.68805 19.0061C4.68733 19.0079 4.68768 19.0122 4.68696 19.014C4.68696 19.014 4.68623 19.0158 4.68731 19.0183C4.68586 19.0219 4.68694 19.0245 4.68621 19.0263C4.68621 19.0263 4.68548 19.0281 4.68655 19.0306C4.68583 19.0324 4.68618 19.0367 4.68546 19.0385C4.68473 19.0403 4.68473 19.0403 4.68581 19.0429C4.68436 19.0465 4.68544 19.049 4.68471 19.0508C4.68399 19.0526 4.68399 19.0526 4.68506 19.0551C4.68434 19.0569 4.68469 19.0613 4.68397 19.0631C4.68324 19.0649 4.68324 19.0649 4.68432 19.0674C4.6836 19.0692 4.68394 19.0735 4.68321 19.0753C4.68248 19.0771 4.68249 19.0771 4.68357 19.0797C4.68284 19.0815 4.68319 19.0858 4.68247 19.0876C4.68247 19.0876 4.68174 19.0894 4.68282 19.0919C4.6821 19.0937 4.68245 19.0981 4.68172 19.0999C4.68172 19.0999 4.681 19.1017 4.68208 19.1042C4.68135 19.106 4.68169 19.1103 4.68097 19.1121C4.68024 19.1139 4.68025 19.1139 4.68132 19.1165C4.6806 19.1183 4.68095 19.1226 4.68022 19.1244C4.68022 19.1244 4.6795 19.1262 4.68058 19.1287C4.67985 19.1305 4.6802 19.1349 4.67948 19.1367C4.67948 19.1367 4.67876 19.1385 4.67984 19.141C4.67911 19.1428 4.67945 19.1471 4.67872 19.1489C4.67872 19.1489 4.678 19.1507 4.67728 19.1525C4.67582 19.1561 4.6769 19.1587 4.67545 19.1623L4.67473 19.1641C4.67328 19.1677 4.67435 19.1702 4.67363 19.172C4.67363 19.172 4.6729 19.1738 4.67398 19.1764C4.67325 19.1782 4.67361 19.1825 4.67288 19.1843C4.67288 19.1843 4.67216 19.1861 4.67324 19.1886C4.67251 19.1904 4.67285 19.1947 4.67213 19.1966C4.67213 19.1966 4.6714 19.1984 4.67248 19.2009C4.67175 19.2027 4.67211 19.207 4.67138 19.2088C4.67138 19.2088 4.67066 19.2106 4.67174 19.2132C4.67101 19.215 4.67137 19.2193 4.67064 19.2211C4.66991 19.2229 4.66992 19.2229 4.67099 19.2254C4.67027 19.2272 4.67062 19.2316 4.6699 19.2334C4.66917 19.2352 4.66916 19.2352 4.67024 19.2377C4.66951 19.2395 4.66987 19.2438 4.66914 19.2456C4.66842 19.2474 4.66842 19.2474 4.66949 19.25C4.66877 19.2518 4.66912 19.2561 4.6684 19.2579C4.66767 19.2597 4.66767 19.2597 4.66875 19.2622C4.66802 19.264 4.66838 19.2683 4.66765 19.2702C4.66693 19.272 4.66692 19.272 4.66799 19.2745C4.66727 19.2763 4.66762 19.2806 4.6669 19.2824C4.66617 19.2842 4.66617 19.2842 4.66725 19.2867C4.66652 19.2886 4.66761 19.2911 4.66615 19.2947C4.66543 19.2965 4.66543 19.2965 4.66651 19.299C4.66578 19.3008 4.66686 19.3033 4.66541 19.3069C4.66468 19.3088 4.66467 19.3088 4.66575 19.3113C4.66503 19.3131 4.66611 19.3156 4.66466 19.3192C4.66393 19.321 4.66393 19.321 4.66501 19.3235C4.66428 19.3253 4.66464 19.3297 4.66391 19.3315C4.66319 19.3333 4.66319 19.3333 4.66426 19.3358C4.66354 19.3376 4.66389 19.3419 4.66317 19.3437C4.66244 19.3455 4.66243 19.3455 4.66351 19.3481C4.66278 19.3499 4.66314 19.3542 4.66241 19.356C4.66169 19.3578 4.66169 19.3578 4.66276 19.3603C4.66204 19.3621 4.66239 19.3665 4.66167 19.3683C4.66094 19.3701 4.66094 19.3701 4.66202 19.3726C4.6613 19.3744 4.66165 19.3788 4.66092 19.3806C4.66019 19.3824 4.6602 19.3824 4.66128 19.3849C4.66055 19.3867 4.66089 19.391 4.66017 19.3928C4.65944 19.3946 4.65944 19.3946 4.66052 19.3971C4.6598 19.3989 4.66015 19.4033 4.65942 19.4051C4.6587 19.4069 4.6587 19.4069 4.65978 19.4094C4.65905 19.4112 4.6594 19.4156 4.65868 19.4174C4.65795 19.4192 4.65796 19.4191 4.65903 19.4217C4.65831 19.4235 4.65865 19.4278 4.65792 19.4296C4.65792 19.4296 4.6572 19.4314 4.65828 19.4339C4.65755 19.4357 4.6579 19.4401 4.65718 19.4419C4.65718 19.4419 4.65646 19.4437 4.65753 19.4462C4.65681 19.448 4.65716 19.4523 4.65643 19.4542C4.65643 19.4542 4.65571 19.4559 4.65679 19.4585C4.65607 19.4603 4.65641 19.4646 4.65568 19.4664C4.65495 19.4682 4.65496 19.4682 4.65604 19.4707C4.65531 19.4725 4.65566 19.4769 4.65494 19.4787C4.65421 19.4805 4.65421 19.4805 4.65529 19.483C4.65456 19.4848 4.65492 19.4891 4.65419 19.4909C4.65347 19.4928 4.65347 19.4928 4.65454 19.4953C4.65382 19.4971 4.65416 19.5014 4.65344 19.5032C4.65344 19.5032 4.65451 19.5057 4.65379 19.5075C4.65306 19.5094 4.65342 19.5137 4.65269 19.5155C4.65269 19.5155 4.65197 19.5173 4.65304 19.5198C4.65232 19.5216 4.65267 19.5259 4.65195 19.5277C4.65195 19.5277 4.65122 19.5296 4.6523 19.5321C4.65158 19.5339 4.65193 19.5382 4.6512 19.54C4.6512 19.54 4.65047 19.5418 4.65155 19.5443C4.65262 19.5469 4.65118 19.5505 4.65045 19.5523L4.64972 19.5541C4.6508 19.5566 4.64935 19.5602 4.65043 19.5627C4.65043 19.5627 4.64971 19.5645 4.65078 19.5671C4.65186 19.5696 4.65041 19.5732 4.64969 19.575C4.64969 19.575 4.64895 19.5768 4.65003 19.5793C4.6493 19.5811 4.64966 19.5855 4.64893 19.5873C4.64893 19.5873 4.65001 19.5898 4.64929 19.5916C4.64856 19.5934 4.64892 19.5977 4.64819 19.5995C4.64819 19.5995 4.64746 19.6013 4.64854 19.6039C4.64782 19.6057 4.64817 19.61 4.64745 19.6118C4.64745 19.6118 4.64671 19.6136 4.64779 19.6161C4.64886 19.6187 4.64742 19.6223 4.64669 19.6241C4.64597 19.6259 4.64597 19.6259 4.64704 19.6284C4.64632 19.6302 4.64667 19.6345 4.64594 19.6363C4.64522 19.6382 4.64522 19.6381 4.6463 19.6407C4.64557 19.6425 4.64592 19.6468 4.6452 19.6486C4.64447 19.6504 4.64447 19.6504 4.64554 19.6529C4.64482 19.6547 4.64517 19.6591 4.64444 19.6609C4.64372 19.6627 4.64372 19.6627 4.6448 19.6652C4.64407 19.667 4.64442 19.6713 4.6437 19.6731C4.64297 19.6749 4.64298 19.6749 4.64406 19.6775C4.64333 19.6793 4.64441 19.6818 4.64296 19.6854C4.64223 19.6872 4.64404 19.6879 4.64331 19.6897C4.64259 19.6915 4.64365 19.6941 4.6422 19.6977C4.64147 19.6995 4.64148 19.6995 4.64256 19.702C4.64183 19.7038 4.64291 19.7063 4.64146 19.7099C4.64073 19.7117 4.64074 19.7117 4.64181 19.7143C4.64289 19.7168 4.64144 19.7204 4.64071 19.7222C4.63999 19.724 4.63999 19.724 4.64107 19.7265C4.64215 19.7291 4.64068 19.7327 4.64176 19.7352C4.64176 19.7352 4.64104 19.737 4.64211 19.7395C4.64319 19.7421 4.64174 19.7457 4.64282 19.7482C4.64282 19.7482 4.6421 19.75 4.64317 19.7525C4.64425 19.7551 4.64279 19.7587 4.64387 19.7612C4.64387 19.7612 4.64315 19.763 4.64422 19.7655C4.6435 19.7673 4.64386 19.7716 4.64493 19.7742C4.64493 19.7742 4.64421 19.776 4.64528 19.7785C4.64456 19.7803 4.6449 19.7846 4.64418 19.7864C4.64345 19.7882 4.64345 19.7882 4.64453 19.7908C4.6438 19.7926 4.64416 19.7969 4.64343 19.7987C4.64343 19.7987 4.64271 19.8005 4.64378 19.803C4.64306 19.8048 4.64341 19.8092 4.64269 19.811C4.64269 19.811 4.64196 19.8128 4.64304 19.8153C4.64412 19.8178 4.64266 19.8214 4.64374 19.824L4.64301 19.8258C4.64409 19.8283 4.64264 19.8319 4.64372 19.8344C4.64372 19.8344 4.643 19.8362 4.64407 19.8388C4.64515 19.8413 4.6437 19.8449 4.64478 19.8474C4.64478 19.8474 4.64405 19.8492 4.64512 19.8517C4.6444 19.8536 4.64475 19.8579 4.64583 19.8604C4.64583 19.8604 4.6451 19.8622 4.64618 19.8647C4.64546 19.8665 4.64581 19.8709 4.64689 19.8734C4.64689 19.8734 4.64615 19.8752 4.64723 19.8777C4.64651 19.8795 4.64686 19.8839 4.64794 19.8864C4.64794 19.8864 4.64721 19.8882 4.64829 19.8907C4.64937 19.8933 4.64792 19.8969 4.64827 19.9012L4.64755 19.903C4.6479 19.9073 4.64717 19.9091 4.64752 19.9135L4.64679 19.9153C4.64714 19.9196 4.64642 19.9214 4.64678 19.9257L4.64605 19.9275C4.6464 19.9319 4.64568 19.9337 4.64603 19.938L4.6453 19.9398C4.64566 19.9441 4.64492 19.9459 4.64527 19.9503L4.64455 19.9521C4.6449 19.9564 4.64418 19.9582 4.64453 19.9625L4.64381 19.9643C4.64416 19.9687 4.64343 19.9705 4.64451 19.973C4.64451 19.973 4.64379 19.9748 4.64559 19.9755C4.64667 19.978 4.64521 19.9816 4.64629 19.9842C4.64629 19.9842 4.64556 19.986 4.64736 19.9867C4.64772 19.991 4.64699 19.9928 4.64735 19.9972L4.64662 19.999C4.64697 20.0033 4.64624 20.0051 4.64659 20.0094L4.64587 20.0112C4.64622 20.0156 4.6455 20.0174 4.64585 20.0217C4.64585 20.0217 4.64585 20.0217 4.64512 20.0235C4.64547 20.0278 4.64475 20.0296 4.6451 20.034L4.64438 20.0358C4.64473 20.0401 4.644 20.0419 4.64435 20.0462L4.64362 20.048C4.64397 20.0524 4.64325 20.0542 4.6436 20.0585L4.64288 20.0603C4.64323 20.0646 4.64251 20.0664 4.64286 20.0708L4.64213 20.0726C4.64321 20.0751 4.64177 20.0787 4.64284 20.0812C4.64212 20.083 4.64211 20.083 4.64318 20.0856C4.64426 20.0881 4.64281 20.0917 4.64389 20.0942C4.64317 20.096 4.64317 20.096 4.64424 20.0986C4.6446 20.1029 4.64387 20.1047 4.64423 20.109C4.64423 20.109 4.64423 20.109 4.6435 20.1108C4.64229 20.1711 4.64107 20.2313 4.64167 20.2923C4.64202 20.2966 4.64057 20.3002 4.64165 20.3028C4.64125 20.3194 4.64157 20.3342 4.64118 20.3508C4.64118 20.3508 4.64118 20.3508 4.64045 20.3526C4.6408 20.3569 4.64008 20.3587 4.64043 20.363C4.64043 20.363 4.63971 20.3648 4.64151 20.3656C4.64186 20.3699 4.64114 20.3717 4.64222 20.3742C4.64149 20.376 4.64148 20.376 4.64256 20.3786C4.64364 20.3811 4.64219 20.3847 4.64327 20.3872C4.64254 20.389 4.64254 20.389 4.64362 20.3915C4.6447 20.3941 4.64325 20.3977 4.64433 20.4002C4.6436 20.402 4.64359 20.402 4.64467 20.4045C4.64575 20.4071 4.6443 20.4107 4.64538 20.4132C4.64538 20.4132 4.64465 20.415 4.64646 20.4157C4.64681 20.4201 4.64609 20.4219 4.64716 20.4244C4.64716 20.4244 4.64643 20.4262 4.64751 20.4287C4.64858 20.4312 4.64714 20.4348 4.64821 20.4374C4.64821 20.4374 4.64929 20.4399 4.64857 20.4417C4.64784 20.4435 4.6482 20.4478 4.64927 20.4504L4.64963 20.4547C4.6489 20.4565 4.64997 20.459 4.64852 20.4626L4.64887 20.467C4.64815 20.4688 4.64922 20.4713 4.64777 20.4749C4.64705 20.4767 4.64813 20.4792 4.64813 20.4792C4.6474 20.481 4.64848 20.4836 4.64775 20.4854L4.64811 20.4897C4.64738 20.4915 4.64773 20.4958 4.6488 20.4984C4.64808 20.5002 4.64988 20.5009 4.64916 20.5027C4.64843 20.5045 4.64951 20.507 4.64806 20.5106C4.64806 20.5106 4.64914 20.5131 4.64842 20.515C4.64769 20.5168 4.64803 20.5211 4.64911 20.5236C4.64911 20.5236 4.65019 20.5261 4.64946 20.528C4.64873 20.5298 4.64909 20.5341 4.65017 20.5366C4.64944 20.5384 4.65125 20.5391 4.65052 20.5409C4.6498 20.5427 4.65087 20.5453 4.65122 20.5496C4.65049 20.5514 4.65157 20.5539 4.65157 20.5539C4.65085 20.5557 4.65193 20.5583 4.6512 20.5601C4.65048 20.5619 4.65155 20.5644 4.65155 20.5644C4.65083 20.5662 4.65191 20.5687 4.65118 20.5705C4.65046 20.5723 4.65154 20.5749 4.65154 20.5749C4.65081 20.5767 4.65189 20.5792 4.65116 20.581C4.65044 20.5828 4.65223 20.5835 4.65151 20.5853C4.65078 20.5871 4.65113 20.5915 4.65221 20.594C4.65148 20.5958 4.65329 20.5965 4.65257 20.5983C4.65184 20.6001 4.65219 20.6045 4.65327 20.607C4.65254 20.6088 4.65254 20.6088 4.65362 20.6113C4.65469 20.6138 4.65324 20.6174 4.65432 20.62C4.65359 20.6218 4.6536 20.6218 4.65468 20.6243C4.65575 20.6268 4.6543 20.6304 4.65538 20.633C4.65465 20.6348 4.65465 20.6348 4.65573 20.6373C4.6568 20.6398 4.65535 20.6434 4.65643 20.646C4.6557 20.6478 4.65751 20.6485 4.65679 20.6503C4.65786 20.6528 4.65714 20.6546 4.65749 20.6589C4.65676 20.6608 4.65856 20.6615 4.65784 20.6633C4.65891 20.6658 4.65819 20.6676 4.65673 20.6712C4.65601 20.673 4.65709 20.6755 4.65709 20.6755C4.65817 20.6781 4.65744 20.6799 4.65672 20.6817C4.65599 20.6835 4.65779 20.6842 4.65707 20.686C4.65815 20.6885 4.65743 20.6903 4.65778 20.6947C4.65705 20.6965 4.65884 20.6972 4.65812 20.699C4.6592 20.7015 4.65848 20.7033 4.65883 20.7077C4.6581 20.7095 4.6599 20.7102 4.65918 20.712C4.66026 20.7145 4.65954 20.7163 4.65989 20.7206C4.65916 20.7225 4.66095 20.7232 4.66023 20.725C4.66131 20.7275 4.66058 20.7293 4.66094 20.7336C4.66021 20.7354 4.66129 20.738 4.66129 20.738C4.66056 20.7398 4.66164 20.7423 4.66092 20.7441C4.66019 20.7459 4.662 20.7466 4.66127 20.7484C4.66055 20.7502 4.66161 20.7528 4.66089 20.7546C4.66016 20.7564 4.66124 20.7589 4.66052 20.7607C4.65979 20.7625 4.66087 20.765 4.66014 20.7668C4.65942 20.7686 4.6605 20.7712 4.65977 20.773C4.65905 20.7748 4.66012 20.7773 4.6594 20.7791C4.65867 20.7809 4.65975 20.7834 4.65903 20.7852C4.6583 20.787 4.65937 20.7896 4.65864 20.7914C4.65792 20.7932 4.659 20.7957 4.65827 20.7975C4.65755 20.7993 4.65862 20.8018 4.6579 20.8036C4.65717 20.8054 4.65825 20.808 4.65753 20.8098C4.6568 20.8116 4.65788 20.8141 4.65716 20.8159C4.65643 20.8177 4.65751 20.8202 4.65679 20.822C4.65606 20.8238 4.65714 20.8264 4.65641 20.8282C4.65569 20.83 4.65676 20.8325 4.65603 20.8343C4.65531 20.8361 4.65638 20.8386 4.65566 20.8404C4.65493 20.8422 4.65601 20.8448 4.65529 20.8466C4.65456 20.8484 4.65564 20.8509 4.65491 20.8527C4.65419 20.8545 4.65527 20.857 4.65454 20.8588C4.65382 20.8606 4.65489 20.8632 4.65417 20.865C4.65344 20.8668 4.65451 20.8693 4.65379 20.8711C4.65306 20.8729 4.65414 20.8754 4.65341 20.8772C4.65269 20.879 4.65377 20.8816 4.65304 20.8834C4.65232 20.8852 4.65339 20.8877 4.65267 20.8895C4.65194 20.8913 4.65302 20.8938 4.65229 20.8956C4.65157 20.8974 4.65265 20.9 4.65193 20.9018C4.6512 20.9036 4.65227 20.9061 4.65154 20.9079C4.65081 20.9097 4.6519 20.9122 4.65117 20.914C4.65044 20.9158 4.65152 20.9184 4.6508 20.9202C4.65007 20.922 4.65115 20.9245 4.65043 20.9263C4.6497 20.9281 4.65078 20.9306 4.65005 20.9324C4.64933 20.9342 4.65041 20.9368 4.64968 20.9386C4.64896 20.9404 4.65002 20.9429 4.6493 20.9447C4.64857 20.9465 4.64965 20.949 4.64893 20.9508C4.6482 20.9526 4.64928 20.9552 4.64855 20.957C4.64783 20.9588 4.64891 20.9613 4.64818 20.9631C4.64926 20.9656 4.64853 20.9674 4.64781 20.9692C4.64708 20.971 4.64817 20.9736 4.64744 20.9754C4.64852 20.9779 4.64779 20.9797 4.64707 20.9815C4.64634 20.9833 4.64741 20.9858 4.64668 20.9876C4.64776 20.9902 4.64704 20.992 4.64631 20.9938C4.64558 20.9956 4.64667 20.9981 4.64594 20.9999C4.64522 21.0017 4.64629 21.0042 4.64557 21.006C4.64484 21.0078 4.64592 21.0104 4.6452 21.0122C4.64627 21.0147 4.64555 21.0165 4.64482 21.0183C4.6441 21.0201 4.64517 21.0226 4.64444 21.0244C4.64552 21.027 4.64479 21.0288 4.64407 21.0306C4.64334 21.0324 4.64442 21.0349 4.6437 21.0367C4.64477 21.0392 4.64405 21.041 4.64332 21.0428C4.6426 21.0446 4.64367 21.0472 4.64295 21.049C4.64222 21.0508 4.6433 21.0533 4.64258 21.0551C4.64185 21.0569 4.64292 21.0594 4.64219 21.0612C4.64327 21.0638 4.64255 21.0656 4.64182 21.0674C4.6411 21.0692 4.64218 21.0717 4.64145 21.0735C4.64253 21.076 4.64181 21.0778 4.64108 21.0796C4.64035 21.0814 4.64143 21.084 4.64071 21.0858C4.63998 21.0876 4.64106 21.0901 4.64034 21.0919C4.63961 21.0937 4.64068 21.0962 4.63995 21.098C4.63923 21.0998 4.64031 21.1024 4.63958 21.1042C4.63886 21.106 4.63993 21.1085 4.63921 21.1103C4.63848 21.1121 4.63956 21.1146 4.63884 21.1164C4.63811 21.1182 4.63919 21.1208 4.63846 21.1226C4.63774 21.1244 4.63882 21.1269 4.63809 21.1287C4.63737 21.1305 4.63845 21.133 4.63772 21.1348C4.63699 21.1366 4.63806 21.1392 4.63734 21.141C4.63661 21.1428 4.63769 21.1453 4.63696 21.1471C4.63624 21.1489 4.63732 21.1514 4.63659 21.1532C4.63587 21.155 4.63695 21.1576 4.63622 21.1594C4.6355 21.1612 4.63658 21.1637 4.63585 21.1655C4.63513 21.1673 4.6362 21.1698 4.63548 21.1716C4.63475 21.1734 4.63582 21.176 4.6351 21.1778C4.63437 21.1796 4.63545 21.1821 4.63472 21.1839C4.634 21.1857 4.63508 21.1882 4.63435 21.19C4.63363 21.1918 4.6347 21.1944 4.63398 21.1962C4.63325 21.198 4.63433 21.2005 4.6336 21.2023C4.63288 21.2041 4.63396 21.2066 4.63323 21.2084C4.63251 21.2102 4.63357 21.2128 4.63285 21.2146C4.63212 21.2164 4.6332 21.2189 4.63248 21.2207C4.63175 21.2225 4.63283 21.225 4.63211 21.2268C4.63138 21.2286 4.63246 21.2312 4.63174 21.233C4.63101 21.2348 4.63209 21.2373 4.63136 21.2391C4.63064 21.2409 4.63172 21.2434 4.63172 21.2434C4.63099 21.2452 4.63206 21.2478 4.63133 21.2496C4.63061 21.2514 4.63168 21.2539 4.63168 21.2539C4.63096 21.2557 4.63204 21.2582 4.63312 21.2607C4.63239 21.2625 4.63347 21.2651 4.63347 21.2651C4.63274 21.2669 4.63383 21.2694 4.6331 21.2712C4.63238 21.273 4.63345 21.2755 4.63345 21.2755C4.63273 21.2773 4.6338 21.2799 4.63307 21.2817C4.63235 21.2835 4.63342 21.286 4.63342 21.286C4.6327 21.2878 4.63378 21.2903 4.63305 21.2921C4.63232 21.2939 4.63341 21.2965 4.63268 21.2983C4.63195 21.3001 4.63303 21.3026 4.63231 21.3044C4.63158 21.3062 4.63266 21.3087 4.63194 21.3105C4.63121 21.3123 4.63228 21.3149 4.63155 21.3167C4.63083 21.3185 4.63191 21.321 4.63118 21.3228C4.63046 21.3246 4.63153 21.3271 4.63081 21.3289C4.63008 21.3307 4.63116 21.3333 4.63044 21.3351C4.62971 21.3369 4.63079 21.3394 4.63006 21.3412C4.62934 21.343 4.63042 21.3455 4.62969 21.3473C4.62897 21.3491 4.63003 21.3517 4.62931 21.3535C4.62858 21.3553 4.62966 21.3578 4.62966 21.3578C4.62893 21.3596 4.63002 21.3621 4.62929 21.3639C4.62857 21.3657 4.62964 21.3683 4.62892 21.3701C4.62819 21.3719 4.62927 21.3744 4.62855 21.3762C4.62782 21.378 4.6289 21.3805 4.62817 21.3823C4.62745 21.3841 4.62852 21.3867 4.62779 21.3885C4.62707 21.3903 4.62814 21.3928 4.62742 21.3946C4.62669 21.3964 4.62777 21.3989 4.62705 21.4007C4.62632 21.4025 4.6274 21.4051 4.62667 21.4069C4.62595 21.4087 4.62703 21.4112 4.6263 21.413C4.62558 21.4148 4.62665 21.4173 4.62593 21.4191C4.6252 21.4209 4.62628 21.4235 4.62556 21.4253C4.62483 21.4271 4.6259 21.4296 4.62517 21.4314C4.62445 21.4332 4.62553 21.4357 4.6248 21.4375C4.62408 21.4393 4.62516 21.4419 4.62443 21.4437C4.62551 21.4462 4.62479 21.448 4.62406 21.4498C4.62333 21.4516 4.62441 21.4541 4.62441 21.4541C4.62369 21.4559 4.62476 21.4585 4.62404 21.4603C4.62331 21.4621 4.62438 21.4646 4.62366 21.4664C4.62293 21.4682 4.62401 21.4707 4.62328 21.4725C4.62256 21.4743 4.62364 21.4769 4.62291 21.4787C4.62219 21.4805 4.62327 21.483 4.62254 21.4848C4.62181 21.4866 4.6229 21.4891 4.62217 21.4909C4.62144 21.4927 4.62252 21.4953 4.6218 21.4971C4.62107 21.4989 4.62214 21.5014 4.62141 21.5032C4.62069 21.505 4.62177 21.5075 4.62104 21.5093C4.62032 21.5111 4.6214 21.5137 4.62067 21.5155C4.62175 21.518 4.62102 21.5198 4.6203 21.5216C4.61957 21.5234 4.62065 21.5259 4.61993 21.5277C4.6192 21.5295 4.62028 21.5321 4.61955 21.5339C4.61883 21.5357 4.6199 21.5382 4.61917 21.54C4.62025 21.5425 4.61953 21.5443 4.6206 21.5469C4.61988 21.5487 4.62096 21.5512 4.62096 21.5512C4.62204 21.5537 4.62131 21.5555 4.62239 21.558C4.62166 21.5598 4.62274 21.5624 4.62274 21.5624C4.62382 21.5649 4.62309 21.5667 4.62416 21.5692C4.62344 21.571 4.62452 21.5736 4.62452 21.5736C4.62559 21.5761 4.62487 21.5779 4.62595 21.5804C4.62523 21.5822 4.6263 21.5848 4.6263 21.5848C4.62738 21.5873 4.62664 21.5891 4.62772 21.5916C4.627 21.5934 4.6288 21.5941 4.62808 21.5959C4.62916 21.5985 4.62843 21.6003 4.62951 21.6028C4.62878 21.6046 4.63059 21.6053 4.62986 21.6071C4.63094 21.6097 4.63021 21.6115 4.63128 21.614C4.63056 21.6158 4.63236 21.6165 4.63164 21.6183C4.63271 21.6209 4.63199 21.6227 4.63234 21.627C4.63162 21.6288 4.63342 21.6295 4.6327 21.6313C4.63377 21.6338 4.63304 21.6356 4.63339 21.64C4.63267 21.6418 4.63447 21.6425 4.63375 21.6443C4.63482 21.6468 4.6341 21.6486 4.63518 21.6512C4.63445 21.653 4.63626 21.6537 4.63553 21.6555C4.63661 21.658 4.63588 21.6598 4.63696 21.6623C4.63623 21.6641 4.63731 21.6667 4.63731 21.6667C4.63838 21.6692 4.63766 21.671 4.63874 21.6735C4.63801 21.6753 4.63909 21.6779 4.63909 21.6779C4.64017 21.6804 4.63944 21.6822 4.64051 21.6847C4.63979 21.6865 4.64159 21.6873 4.64087 21.6891C4.64194 21.6916 4.64122 21.6934 4.6423 21.6959C4.64157 21.6977 4.64265 21.7003 4.64265 21.7003C4.64373 21.7028 4.643 21.7046 4.64408 21.7071C4.64335 21.7089 4.64443 21.7114 4.64443 21.7114C4.6455 21.714 4.64479 21.7158 4.64586 21.7183C4.64514 21.7201 4.64621 21.7226 4.64621 21.7226C4.64729 21.7252 4.64656 21.727 4.64763 21.7295C4.64691 21.7313 4.64872 21.732 4.64799 21.7338C4.64907 21.7363 4.64834 21.7382 4.64942 21.7407C4.64869 21.7425 4.64977 21.745 4.64977 21.745C4.65085 21.7475 4.65013 21.7493 4.65121 21.7519C4.65048 21.7537 4.65227 21.7544 4.65155 21.7562C4.65262 21.7587 4.65191 21.7605 4.65298 21.7631C4.65226 21.7649 4.65333 21.7674 4.65333 21.7674C4.65441 21.7699 4.65369 21.7717 4.65477 21.7742C4.65404 21.776 4.65584 21.7768 4.65511 21.7786C4.65619 21.7811 4.65546 21.7829 4.65654 21.7854C4.65581 21.7872 4.65762 21.788 4.6569 21.7898C4.65797 21.7923 4.65725 21.7941 4.65833 21.7966C4.6576 21.7984 4.65939 21.7992 4.65867 21.801C4.65974 21.8035 4.65903 21.8053 4.6601 21.8078C4.65938 21.8096 4.66118 21.8103 4.66045 21.8121C4.66153 21.8147 4.66081 21.8165 4.66116 21.8208C4.66044 21.8226 4.66223 21.8233 4.6615 21.8251C4.66258 21.8277 4.66186 21.8295 4.66294 21.832C4.66221 21.8338 4.66402 21.8345 4.66329 21.8363C4.66437 21.8389 4.66364 21.8407 4.66472 21.8432C4.66399 21.845 4.66508 21.8475 4.66508 21.8475C4.66435 21.8493 4.66542 21.8518 4.6665 21.8544C4.66577 21.8562 4.66685 21.8587 4.66685 21.8587C4.66613 21.8605 4.6672 21.863 4.66828 21.8656C4.66756 21.8674 4.66936 21.8681 4.66863 21.8699C4.66791 21.8717 4.66898 21.8742 4.67006 21.8768C4.66933 21.8786 4.67113 21.8793 4.67041 21.8811C4.66968 21.8829 4.67077 21.8854 4.67184 21.8879C4.67112 21.8897 4.67292 21.8905 4.6722 21.8923C4.67327 21.8948 4.67254 21.8966 4.67362 21.8991C4.67289 21.9009 4.6747 21.9017 4.67397 21.9035C4.67505 21.906 4.67432 21.9078 4.6754 21.9103C4.67468 21.9121 4.67648 21.9128 4.67576 21.9146C4.67684 21.9172 4.6761 21.919 4.67645 21.9233C4.67573 21.9251 4.67753 21.9258 4.67681 21.9276C4.67608 21.9294 4.67716 21.932 4.67824 21.9345C4.67751 21.9363 4.67859 21.9388 4.67859 21.9388C4.67786 21.9406 4.67894 21.9432 4.68001 21.9457C4.67929 21.9475 4.68037 21.95 4.68037 21.95C4.68144 21.9526 4.68072 21.9543 4.6818 21.9569C4.68107 21.9587 4.68288 21.9594 4.68215 21.9612C4.68323 21.9637 4.6825 21.9655 4.68285 21.9699C4.68212 21.9717 4.68393 21.9724 4.6832 21.9742C4.68428 21.9767 4.68356 21.9785 4.68391 21.9829C4.68318 21.9847 4.68499 21.9854 4.68426 21.9872C4.68534 21.9897 4.68461 21.9915 4.68496 21.9958C4.68423 21.9977 4.68604 21.9984 4.68531 22.0002C4.68639 22.0027 4.68494 22.0063 4.68602 22.0089C4.68602 22.0089 4.68529 22.0106 4.6871 22.0114C4.68818 22.0139 4.68671 22.0175 4.68779 22.02C4.68779 22.02 4.68887 22.0226 4.68815 22.0244C4.68922 22.0269 4.6885 22.0287 4.68885 22.033C4.68813 22.0348 4.68993 22.0356 4.68921 22.0374C4.69028 22.0399 4.68956 22.0417 4.69064 22.0442C4.68991 22.046 4.6917 22.0467 4.69098 22.0486C4.69206 22.0511 4.69134 22.0529 4.69241 22.0554C4.69169 22.0572 4.69349 22.0579 4.69277 22.0597C4.69384 22.0623 4.69312 22.0641 4.69347 22.0684C4.69275 22.0702 4.69454 22.0709 4.69381 22.0727C4.69489 22.0753 4.69417 22.0771 4.69525 22.0796C4.69452 22.0814 4.69633 22.0821 4.6956 22.0839C4.69668 22.0864 4.69596 22.0882 4.69631 22.0926C4.69558 22.0944 4.69738 22.0951 4.69665 22.0969C4.69773 22.0994 4.69701 22.1012 4.69736 22.1056C4.69736 22.1056 4.69663 22.1074 4.69844 22.1081C4.69951 22.1106 4.69987 22.115 4.69914 22.1168C4.69842 22.1186 4.69841 22.1186 4.70021 22.1193C4.70129 22.1218 4.69984 22.1254 4.70092 22.128C4.70019 22.1298 4.70199 22.1305 4.70127 22.1323C4.70235 22.1348 4.70163 22.1366 4.70198 22.1409C4.70125 22.1427 4.70305 22.1435 4.70233 22.1453C4.70341 22.1478 4.70267 22.1496 4.70303 22.1539C4.7023 22.1557 4.7041 22.1565 4.70338 22.1583C4.70446 22.1608 4.70374 22.1626 4.70409 22.1669C4.70336 22.1687 4.70516 22.1695 4.70444 22.1713C4.70552 22.1738 4.70478 22.1756 4.70514 22.1799C4.70514 22.1799 4.70441 22.1817 4.70621 22.1824C4.70729 22.185 4.70585 22.1886 4.70692 22.1911C4.70692 22.1911 4.7062 22.1929 4.708 22.1936C4.70908 22.1962 4.70942 22.2005 4.7087 22.2023C4.70905 22.2066 4.71013 22.2092 4.71048 22.2135C4.71048 22.2135 4.70976 22.2153 4.71156 22.216C4.71264 22.2185 4.71298 22.2229 4.71226 22.2247C4.71153 22.2265 4.71333 22.2272 4.71261 22.229C4.71369 22.2315 4.71297 22.2333 4.71332 22.2377C4.71259 22.2395 4.71439 22.2402 4.71367 22.242C4.71475 22.2445 4.71401 22.2463 4.71509 22.2489C4.71509 22.2489 4.71509 22.2489 4.71437 22.2507C4.71472 22.255 4.7158 22.2575 4.71615 22.2618C4.7165 22.2662 4.71758 22.2687 4.71793 22.273C4.72468 22.3239 4.72962 22.3741 4.73564 22.4268C4.73707 22.4336 4.73777 22.4423 4.7392 22.4492C4.7392 22.4492 4.7392 22.4492 4.73848 22.451C4.73991 22.4578 4.74062 22.4665 4.74024 22.4726C4.74024 22.4726 4.73951 22.4744 4.74131 22.4752C4.74274 22.482 4.74344 22.4907 4.74487 22.4975C4.74487 22.4975 4.74487 22.4975 4.74415 22.4993C4.7445 22.5037 4.74558 22.5062 4.74593 22.5105C4.74593 22.5105 4.74593 22.5105 4.74521 22.5123C4.74628 22.5149 4.74484 22.5185 4.74592 22.521L4.74698 22.5235C4.74733 22.5278 4.74842 22.5304 4.74877 22.5347C4.74912 22.539 4.7502 22.5416 4.75128 22.5441C4.75128 22.5441 4.75055 22.5459 4.75235 22.5466C4.7527 22.5509 4.75378 22.5535 4.75486 22.556C4.75486 22.556 4.75413 22.5578 4.75594 22.5585C4.75701 22.5611 4.75556 22.5647 4.75663 22.5672C4.75591 22.569 4.75771 22.5697 4.75698 22.5715C4.75734 22.5759 4.75842 22.5784 4.75877 22.5827C4.75877 22.5827 4.75877 22.5827 4.75805 22.5845C4.75912 22.587 4.75947 22.5914 4.75874 22.5932C4.75874 22.5932 4.75802 22.595 4.75982 22.5957C4.7609 22.5982 4.76126 22.6026 4.76053 22.6044L4.76161 22.6069C4.76268 22.6094 4.76195 22.6112 4.76303 22.6138C4.7623 22.6156 4.76411 22.6163 4.76338 22.6181C4.76446 22.6206 4.76374 22.6224 4.76409 22.6267C4.76409 22.6267 4.76517 22.6293 4.76444 22.6311C4.76552 22.6336 4.7648 22.6354 4.76515 22.6397C4.76442 22.6415 4.76622 22.6423 4.76549 22.6441C4.76657 22.6466 4.76585 22.6484 4.7662 22.6527C4.7662 22.6527 4.76728 22.6553 4.76655 22.6571C4.76763 22.6596 4.76691 22.6614 4.76726 22.6657C4.76653 22.6675 4.76832 22.6683 4.7676 22.6701C4.76795 22.6744 4.76723 22.6762 4.76831 22.6787C4.76831 22.6787 4.76758 22.6805 4.76938 22.6812C4.77046 22.6838 4.76902 22.6874 4.77009 22.6899C4.77009 22.6899 4.77116 22.6924 4.77043 22.6942C4.77151 22.6968 4.77079 22.6986 4.77114 22.7029C4.77114 22.7029 4.77222 22.7054 4.77149 22.7072C4.77257 22.7098 4.77185 22.7116 4.7722 22.7159C4.77148 22.7177 4.77327 22.7184 4.77254 22.7202C4.77362 22.7227 4.77218 22.7263 4.77325 22.7289L4.77433 22.7314C4.77541 22.7339 4.77469 22.7357 4.77504 22.7401C4.77431 22.7419 4.77612 22.7426 4.77539 22.7444C4.77647 22.7469 4.77574 22.7487 4.77609 22.7531C4.77536 22.7549 4.77717 22.7556 4.77717 22.7556C4.77824 22.7581 4.77752 22.7599 4.77787 22.7643C4.77715 22.7661 4.77895 22.7668 4.77823 22.7686C4.77858 22.7729 4.77857 22.7729 4.77892 22.7772C4.77892 22.7772 4.7782 22.779 4.78 22.7798C4.78108 22.7823 4.78143 22.7866 4.78071 22.7884C4.77998 22.7902 4.78178 22.791 4.78106 22.7928C4.78214 22.7953 4.78248 22.7996 4.78176 22.8014C4.78103 22.8032 4.78283 22.804 4.78211 22.8058C4.78318 22.8083 4.78247 22.8101 4.78354 22.8126C4.78282 22.8144 4.78462 22.8151 4.78389 22.8169C4.78497 22.8195 4.78424 22.8213 4.78532 22.8238C4.78459 22.8256 4.7864 22.8263 4.78567 22.8281C4.78675 22.8307 4.78602 22.8325 4.7871 22.835C4.78637 22.8368 4.78818 22.8375 4.78746 22.8393C4.78853 22.8418 4.7878 22.8437 4.78888 22.8462C4.78815 22.848 4.78996 22.8487 4.78923 22.8505C4.79031 22.853 4.78959 22.8548 4.79066 22.8574C4.78994 22.8592 4.79174 22.8599 4.79101 22.8617C4.79209 22.8642 4.79136 22.866 4.79244 22.8686C4.79171 22.8704 4.79352 22.8711 4.79279 22.8729C4.79387 22.8754 4.79315 22.8772 4.79422 22.8797C4.7935 22.8815 4.7953 22.8823 4.79458 22.8841C4.79565 22.8866 4.79492 22.8884 4.796 22.8909C4.79527 22.8927 4.79708 22.8935 4.79635 22.8953C4.79743 22.8978 4.79671 22.8996 4.79778 22.9021C4.79706 22.9039 4.79886 22.9047 4.79814 22.9065C4.79922 22.909 4.79848 22.9108 4.79956 22.9133C4.79883 22.9151 4.80064 22.9158 4.79991 22.9176C4.80099 22.9202 4.80027 22.922 4.80134 22.9245C4.80062 22.9263 4.80242 22.927 4.8017 22.9288C4.80277 22.9314 4.80205 22.9332 4.80313 22.9357C4.80241 22.9375 4.8042 22.9382 4.80347 22.94C4.80455 22.9426 4.80382 22.9444 4.8049 22.9469C4.80418 22.9487 4.80598 22.9494 4.80526 22.9512C4.80634 22.9537 4.80561 22.9555 4.80669 22.9581C4.80596 22.9599 4.80776 22.9606 4.80703 22.9624C4.80811 22.9649 4.80739 22.9667 4.80846 22.9693C4.80774 22.9711 4.80954 22.9718 4.80882 22.9736C4.80989 22.9761 4.80917 22.9779 4.81025 22.9805C4.80953 22.9823 4.81132 22.983 4.81059 22.9848C4.81167 22.9873 4.81095 22.9891 4.81203 22.9916C4.8113 22.9934 4.81238 22.996 4.81238 22.996C4.81346 22.9985 4.81273 23.0003 4.81381 23.0028C4.81308 23.0046 4.81488 23.0054 4.81415 23.0072C4.81523 23.0097 4.81451 23.0115 4.81558 23.014C4.81486 23.0158 4.81667 23.0165 4.81594 23.0183C4.81702 23.0209 4.81629 23.0227 4.81737 23.0252C4.81665 23.027 4.81845 23.0277 4.81772 23.0295C4.8188 23.0321 4.81807 23.0339 4.81915 23.0364C4.81842 23.0382 4.82022 23.0389 4.8195 23.0407C4.82058 23.0433 4.81986 23.0451 4.82093 23.0476C4.82021 23.0494 4.82201 23.0501 4.82128 23.0519C4.82236 23.0544 4.82163 23.0563 4.8227 23.0588C4.82198 23.0606 4.82379 23.0613 4.82306 23.0631C4.82414 23.0656 4.82341 23.0674 4.82449 23.07C4.82377 23.0718 4.82557 23.0725 4.82485 23.0743C4.82592 23.0768 4.82519 23.0786 4.82627 23.0812C4.82554 23.083 4.82734 23.0837 4.82662 23.0855C4.8277 23.088 4.82698 23.0898 4.82805 23.0923C4.82733 23.0941 4.82913 23.0949 4.8284 23.0967C4.82948 23.0992 4.82875 23.101 4.82983 23.1035C4.8291 23.1053 4.83091 23.1061 4.83018 23.1079C4.83126 23.1104 4.83053 23.1122 4.83161 23.1147C4.83088 23.1165 4.83269 23.1172 4.83197 23.1191C4.83304 23.1216 4.83231 23.1234 4.83339 23.1259C4.83266 23.1277 4.83447 23.1284 4.83374 23.1302C4.83482 23.1328 4.8341 23.1346 4.83517 23.1371C4.83445 23.1389 4.83625 23.1396 4.83552 23.1414C4.8366 23.144 4.83587 23.1458 4.83695 23.1483C4.83622 23.1501 4.83803 23.1508 4.8373 23.1526C4.83838 23.1552 4.83766 23.1569 4.83873 23.1595C4.83801 23.1613 4.83981 23.162 4.83909 23.1638C4.84016 23.1663 4.83943 23.1681 4.84051 23.1707C4.83978 23.1725 4.84086 23.175 4.84086 23.175C4.84194 23.1775 4.84121 23.1793 4.84229 23.1819C4.84157 23.1837 4.84337 23.1844 4.84265 23.1862C4.84373 23.1887 4.84299 23.1905 4.84407 23.193C4.84334 23.1948 4.84514 23.1956 4.84442 23.1974C4.8455 23.1999 4.84478 23.2017 4.84585 23.2042C4.84513 23.206 4.84693 23.2068 4.84621 23.2086C4.84728 23.2111 4.84656 23.2129 4.84764 23.2154C4.84692 23.2172 4.84871 23.218 4.84798 23.2198C4.84906 23.2223 4.84833 23.2241 4.84941 23.2266C4.84869 23.2284 4.85049 23.2291 4.84977 23.2309C4.85085 23.2335 4.85012 23.2353 4.8512 23.2378C4.85047 23.2396 4.85227 23.2403 4.85154 23.2421C4.85262 23.2447 4.8519 23.2465 4.85297 23.249C4.85225 23.2508 4.85405 23.2515 4.85333 23.2533C4.8544 23.2559 4.85368 23.2577 4.85476 23.2602C4.85403 23.262 4.8551 23.2645 4.85691 23.2652C4.85798 23.2678 4.85726 23.2696 4.85834 23.2721C4.85762 23.2739 4.85942 23.2746 4.85869 23.2764C4.85977 23.279 4.85903 23.2808 4.86011 23.2833C4.85939 23.2851 4.86119 23.2858 4.86047 23.2876C4.86155 23.2901 4.86082 23.292 4.8619 23.2945C4.86117 23.2963 4.86298 23.297 4.86225 23.2988C4.86333 23.3013 4.86261 23.3031 4.86368 23.3057C4.86296 23.3075 4.86475 23.3082 4.86403 23.31C4.8651 23.3125 4.86438 23.3143 4.86546 23.3169C4.86474 23.3187 4.86654 23.3194 4.86581 23.3212C4.86689 23.3237 4.86617 23.3255 4.86725 23.328C4.86652 23.3298 4.86831 23.3306 4.86759 23.3324C4.86867 23.3349 4.86794 23.3367 4.86902 23.3392C4.86829 23.341 4.86937 23.3436 4.86937 23.3436C4.87045 23.3461 4.86973 23.3479 4.8708 23.3504C4.87188 23.353 4.87115 23.3548 4.87223 23.3573C4.87331 23.3598 4.87258 23.3616 4.87366 23.3641C4.87474 23.3667 4.87402 23.3685 4.87582 23.3692C4.8769 23.3717 4.87616 23.3735 4.87724 23.3761C4.87832 23.3786 4.87759 23.3804 4.87939 23.3811C4.88047 23.3836 4.87975 23.3854 4.88083 23.388C4.88191 23.3905 4.88117 23.3923 4.88297 23.393C4.88405 23.3956 4.88333 23.3974 4.88441 23.3999C4.88549 23.4024 4.88476 23.4042 4.88657 23.4049C4.88764 23.4075 4.88691 23.4093 4.88798 23.4118C4.88726 23.4136 4.88907 23.4143 4.88834 23.4161C4.88942 23.4187 4.88869 23.4205 4.88977 23.423C4.88905 23.4248 4.89013 23.4273 4.89013 23.4273C4.8912 23.4298 4.89047 23.4317 4.89155 23.4342C4.89082 23.436 4.8919 23.4385 4.8919 23.4385C4.89298 23.441 4.89226 23.4428 4.89333 23.4454C4.89441 23.4479 4.89369 23.4497 4.89549 23.4504C4.89657 23.453 4.89584 23.4548 4.89691 23.4573C4.89619 23.4591 4.89799 23.4598 4.89726 23.4616C4.89834 23.4641 4.89762 23.4659 4.8987 23.4685C4.89797 23.4703 4.89978 23.471 4.89905 23.4728C4.90013 23.4753 4.89939 23.4771 4.90047 23.4797C4.89975 23.4815 4.90155 23.4822 4.90083 23.484C4.9019 23.4865 4.90118 23.4883 4.90226 23.4909C4.90153 23.4927 4.90261 23.4952 4.90261 23.4952C4.90369 23.4977 4.90296 23.4995 4.90403 23.502C4.90331 23.5038 4.90511 23.5046 4.90438 23.5064C4.90546 23.5089 4.90474 23.5107 4.90582 23.5132C4.90509 23.515 4.9069 23.5158 4.90617 23.5176C4.90725 23.5201 4.90651 23.5219 4.90759 23.5244C4.90687 23.5262 4.90867 23.5269 4.90795 23.5287C4.90902 23.5313 4.9083 23.5331 4.90938 23.5356C4.90865 23.5374 4.90974 23.5399 4.91081 23.5425C4.91189 23.545 4.91115 23.5468 4.91223 23.5493C4.91151 23.5511 4.91331 23.5518 4.91259 23.5537C4.91366 23.5562 4.91294 23.558 4.91402 23.5605C4.91329 23.5623 4.9151 23.563 4.91437 23.5649C4.91545 23.5674 4.91472 23.5692 4.91579 23.5717C4.91507 23.5735 4.91687 23.5742 4.91614 23.576C4.91722 23.5786 4.9165 23.5804 4.91758 23.5829C4.91866 23.5854 4.91793 23.5872 4.91974 23.588C4.92081 23.5905 4.92008 23.5923 4.92116 23.5948C4.92043 23.5966 4.92151 23.5991 4.92151 23.5991C4.92259 23.6017 4.92186 23.6035 4.92294 23.606C4.92402 23.6085 4.92401 23.6085 4.92509 23.611C4.92617 23.6136 4.92544 23.6154 4.92652 23.6179C4.9276 23.6204 4.9276 23.6204 4.92868 23.623C4.92976 23.6255 4.92902 23.6273 4.9301 23.6298C4.93118 23.6324 4.93045 23.6342 4.93153 23.6367C4.93261 23.6392 4.93189 23.641 4.93297 23.6435C4.93404 23.6461 4.93332 23.6479 4.93512 23.6486C4.9362 23.6511 4.93547 23.6529 4.93655 23.6555C4.93762 23.658 4.9369 23.6598 4.9387 23.6605C4.93978 23.663 4.93906 23.6649 4.94013 23.6674C4.94121 23.6699 4.94048 23.6717 4.94228 23.6724C4.94409 23.6732 4.94264 23.6768 4.94371 23.6793C4.94479 23.6818 4.94407 23.6836 4.94515 23.6861C4.94622 23.6887 4.94549 23.6905 4.94729 23.6912C4.94837 23.6937 4.94765 23.6955 4.94872 23.6981C4.9498 23.7006 4.94908 23.7024 4.95016 23.7049C4.95123 23.7075 4.9505 23.7093 4.95158 23.7118C4.95265 23.7143 4.95193 23.7161 4.95374 23.7168C4.95481 23.7194 4.95409 23.7212 4.95517 23.7237C4.95444 23.7255 4.95551 23.728 4.95732 23.7287C4.95839 23.7313 4.95767 23.7331 4.95875 23.7356C4.95982 23.7381 4.95982 23.7381 4.9591 23.7399C4.96018 23.7425 4.95946 23.7443 4.96053 23.7468C4.96161 23.7493 4.96088 23.7511 4.96195 23.7537C4.96303 23.7562 4.96231 23.758 4.96339 23.7605C4.96446 23.763 4.96374 23.7648 4.96554 23.7656C4.96662 23.7681 4.96589 23.7699 4.96769 23.7706C4.96877 23.7732 4.96805 23.775 4.96912 23.7775C4.9702 23.78 4.96948 23.7818 4.97128 23.7825C4.97236 23.7851 4.97163 23.7869 4.9727 23.7894C4.97378 23.7919 4.97378 23.7919 4.97306 23.7937C4.97413 23.7963 4.97341 23.7981 4.97449 23.8006C4.97556 23.8031 4.97557 23.8031 4.97665 23.8056C4.97772 23.8082 4.97699 23.81 4.97807 23.8125C4.97914 23.815 4.97842 23.8168 4.98023 23.8176C4.9813 23.8201 4.98058 23.8219 4.98166 23.8244C4.98273 23.827 4.982 23.8287 4.98308 23.8313C4.98416 23.8338 4.98343 23.8356 4.98524 23.8363C4.98631 23.8389 4.98559 23.8407 4.98739 23.8414C4.98847 23.8439 4.98774 23.8457 4.98882 23.8482C4.98989 23.8508 4.9899 23.8508 4.99097 23.8533C4.99205 23.8558 4.99133 23.8576 4.9924 23.8602C4.99348 23.8627 4.99347 23.8627 4.99275 23.8645C4.99383 23.867 4.9931 23.8688 4.99418 23.8714C4.99526 23.8739 4.99454 23.8757 4.99634 23.8764C4.99742 23.8789 4.99669 23.8807 4.99777 23.8833C4.99885 23.8858 4.99884 23.8858 4.99811 23.8876C4.99919 23.8901 4.99847 23.8919 4.99954 23.8945C5.00062 23.897 5.00062 23.897 4.9999 23.8988C5.00097 23.9013 5.00025 23.9031 5.00133 23.9056C5.00241 23.9082 5.0024 23.9082 5.00348 23.9107C5.00455 23.9132 5.00383 23.915 5.00491 23.9176C5.00598 23.9201 5.00527 23.9219 5.00707 23.9226C5.00814 23.9251 5.00741 23.927 5.00849 23.9295C5.00956 23.932 5.00884 23.9338 5.01065 23.9345C5.01172 23.9371 5.011 23.9389 5.01208 23.9414C5.01315 23.9439 5.01242 23.9457 5.01422 23.9465C5.0153 23.949 5.01458 23.9508 5.01566 23.9533C5.01674 23.9558 5.01601 23.9576 5.01709 23.9602C5.01817 23.9627 5.01743 23.9645 5.01851 23.967C5.01959 23.9695 5.01887 23.9714 5.02067 23.9721C5.02174 23.9746 5.02103 23.9764 5.0221 23.9789C5.02318 23.9815 5.02317 23.9815 5.02425 23.984C5.02533 23.9865 5.0246 23.9883 5.02568 23.9909C5.02675 23.9934 5.02604 23.9952 5.02784 23.9959C5.02892 23.9984 5.02818 24.0002 5.02926 24.0028C5.03033 24.0053 5.02962 24.0071 5.03069 24.0096C5.03177 24.0122 5.03105 24.014 5.03285 24.0147C5.03393 24.0172 5.0332 24.019 5.03427 24.0215C5.03355 24.0233 5.03463 24.0259 5.03643 24.0266C5.03751 24.0291 5.03678 24.0309 5.03786 24.0335C5.03894 24.036 5.03822 24.0378 5.04002 24.0385C5.0411 24.041 5.04036 24.0428 5.04217 24.0436C5.04324 24.0461 5.04252 24.0479 5.0436 24.0504C5.04467 24.053 5.04395 24.0548 5.04503 24.0573C5.04611 24.0598 5.04537 24.0616 5.04717 24.0623C5.04825 24.0649 5.04753 24.0667 5.04861 24.0692C5.04969 24.0717 5.04896 24.0735 5.05077 24.0743C5.05184 24.0768 5.05183 24.0768 5.05291 24.0793C5.05399 24.0818 5.05327 24.0836 5.05435 24.0862C5.05542 24.0887 5.0547 24.0905 5.0565 24.0912C5.05758 24.0938 5.05685 24.0956 5.05793 24.0981C5.059 24.1006 5.05828 24.1024 5.05936 24.1049C5.05863 24.1068 5.06044 24.1075 5.06151 24.11C5.06259 24.1125 5.06186 24.1143 5.06294 24.1169C5.06221 24.1187 5.06329 24.1212 5.06509 24.1219C5.06617 24.1244 5.06545 24.1262 5.06653 24.1288C5.0658 24.1306 5.06687 24.1331 5.06867 24.1338C5.06975 24.1364 5.06903 24.1382 5.07011 24.1407C5.06938 24.1425 5.07118 24.1432 5.07046 24.145C5.07154 24.1475 5.07081 24.1494 5.07189 24.1519C5.07116 24.1537 5.07296 24.1544 5.07223 24.1562C5.07331 24.1587 5.07259 24.1605 5.07366 24.1631C5.07294 24.1649 5.07474 24.1656 5.07402 24.1674C5.07509 24.1699 5.07437 24.1717 5.07545 24.1743C5.07473 24.1761 5.07579 24.1786 5.0776 24.1793C5.07867 24.1818 5.07795 24.1836 5.07903 24.1862C5.07831 24.188 5.07938 24.1905 5.08119 24.1912C5.08226 24.1938 5.08334 24.1963 5.08261 24.1981C5.08261 24.1981 5.08369 24.2006 5.08296 24.2024C5.08404 24.2049 5.08512 24.2075 5.08439 24.2093C5.08439 24.2093 5.08547 24.2118 5.08475 24.2136C5.08583 24.2161 5.08509 24.2179 5.08617 24.2205C5.08725 24.223 5.08725 24.223 5.08652 24.2248C5.0876 24.2273 5.08688 24.2291 5.08795 24.2317C5.08903 24.2342 5.08903 24.2342 5.08831 24.236C5.08938 24.2385 5.09046 24.241 5.08973 24.2428C5.08901 24.2446 5.09081 24.2454 5.09008 24.2472C5.09116 24.2497 5.09044 24.2515 5.09152 24.254C5.09259 24.2566 5.09259 24.2566 5.09187 24.2584C5.09295 24.2609 5.09221 24.2627 5.09401 24.2634C5.09509 24.266 5.09437 24.2677 5.09545 24.2703C5.09653 24.2728 5.0958 24.2746 5.09761 24.2753C5.09868 24.2779 5.09796 24.2797 5.09904 24.2822C5.10011 24.2847 5.10118 24.2873 5.10046 24.2891C5.09973 24.2909 5.10154 24.2916 5.10081 24.2934C5.10189 24.2959 5.10297 24.2984 5.10225 24.3002C5.10152 24.302 5.10332 24.3028 5.1026 24.3046C5.10367 24.3071 5.10475 24.3096 5.10402 24.3114C5.1033 24.3132 5.1051 24.314 5.10437 24.3158C5.10545 24.3183 5.1058 24.3226 5.10688 24.3252L5.10795 24.3277C5.10903 24.3302 5.10938 24.3345 5.11046 24.3371C5.11046 24.3371 5.10974 24.3389 5.11154 24.3396C5.11262 24.3421 5.11296 24.3465 5.11404 24.349C5.11404 24.349 5.11332 24.3508 5.11512 24.3515C5.1162 24.354 5.11655 24.3584 5.11763 24.3609C5.11763 24.3609 5.11763 24.3609 5.11871 24.3634C5.11906 24.3678 5.12013 24.3703 5.12049 24.3746C5.13444 24.4284 5.1484 24.4822 5.16236 24.536C5.16236 24.536 5.16236 24.536 5.16344 24.5385C5.16452 24.541 5.16486 24.5454 5.16594 24.5479L5.16702 24.5504C5.1681 24.553 5.16918 24.5555 5.16953 24.5598C5.17096 24.5667 5.17418 24.5743 5.17561 24.5811C5.17561 24.5811 5.17561 24.5811 5.17488 24.5829C5.17596 24.5855 5.17632 24.5898 5.1774 24.5923L5.17847 24.5948C5.17955 24.5974 5.18062 24.5999 5.18098 24.6042L5.18205 24.6067C5.18313 24.6093 5.18421 24.6118 5.18456 24.6161L5.18564 24.6187C5.18672 24.6212 5.18779 24.6237 5.18887 24.6263C5.18814 24.6281 5.18995 24.6288 5.18922 24.6306C5.1903 24.6331 5.19138 24.6356 5.19066 24.6374C5.19066 24.6374 5.19172 24.64 5.191 24.6418C5.19207 24.6443 5.19316 24.6468 5.19243 24.6486L5.19351 24.6512C5.19459 24.6537 5.19565 24.6562 5.19601 24.6605C5.19601 24.6605 5.19601 24.6605 5.19709 24.6631C5.19817 24.6656 5.19852 24.6699 5.1996 24.6725L5.20068 24.675C5.20175 24.6775 5.2021 24.6818 5.20318 24.6844C5.20318 24.6844 5.20425 24.6869 5.20353 24.6887C5.20461 24.6912 5.20569 24.6938 5.20677 24.6963L5.20784 24.6988C5.20891 24.7013 5.21 24.7039 5.21035 24.7082L5.21143 24.7107C5.2125 24.7133 5.21357 24.7158 5.21392 24.7201L5.21501 24.7226C5.21608 24.7252 5.21716 24.7277 5.21824 24.7302C5.21824 24.7302 5.21931 24.7328 5.21858 24.7346C5.21966 24.7371 5.22074 24.7396 5.22182 24.7421L5.2229 24.7447C5.22398 24.7472 5.22505 24.7497 5.2254 24.7541L5.22648 24.7566C5.22756 24.7591 5.22791 24.7635 5.22899 24.766L5.23007 24.7685C5.23115 24.771 5.23149 24.7754 5.23257 24.7779L5.23365 24.7804C5.23472 24.783 5.2358 24.7855 5.23615 24.7898L5.23722 24.7923C5.2383 24.7949 5.23866 24.7992 5.23974 24.8017C5.23974 24.8017 5.23901 24.8035 5.24082 24.8042C5.24189 24.8068 5.24224 24.8111 5.24332 24.8136C5.24332 24.8136 5.24259 24.8154 5.2444 24.8162C5.24547 24.8187 5.24583 24.823 5.2469 24.8256L5.24798 24.8281C5.24905 24.8306 5.25013 24.8331 5.25048 24.8375C5.25048 24.8375 5.24976 24.8393 5.25156 24.84C5.25264 24.8425 5.25299 24.8469 5.25406 24.8494L5.25514 24.8519C5.25622 24.8544 5.2573 24.857 5.25765 24.8613L5.25872 24.8638C5.2598 24.8663 5.26088 24.8689 5.26124 24.8732L5.26231 24.8757C5.26339 24.8783 5.26446 24.8808 5.26554 24.8833L5.26661 24.8859C5.26769 24.8884 5.26878 24.8909 5.26913 24.8952C5.2684 24.897 5.27021 24.8978 5.27021 24.8978C5.27128 24.9003 5.27236 24.9028 5.27343 24.9053C5.27271 24.9071 5.27451 24.9079 5.27451 24.9079C5.27559 24.9104 5.27666 24.9129 5.27774 24.9155C5.27701 24.9173 5.27882 24.918 5.27809 24.9198C5.27917 24.9223 5.28025 24.9248 5.28133 24.9274L5.2824 24.9299C5.28348 24.9324 5.28455 24.935 5.28491 24.9393L5.28598 24.9418C5.28706 24.9443 5.28813 24.9469 5.28849 24.9512L5.28956 24.9537C5.29064 24.9563 5.29173 24.9588 5.29208 24.9631C5.29135 24.9649 5.29316 24.9656 5.29316 24.9656C5.29423 24.9682 5.2953 24.9707 5.29638 24.9732L5.29746 24.9758C5.29853 24.9783 5.29962 24.9808 5.29997 24.9851L5.30104 24.9877C5.30211 24.9902 5.3032 24.9927 5.30355 24.9971L5.30463 24.9996C5.3057 25.0021 5.30677 25.0046 5.30785 25.0072L5.30893 25.0097C5.31001 25.0122 5.31109 25.0148 5.31217 25.0173L5.31323 25.0198C5.31431 25.0223 5.3154 25.0249 5.31575 25.0292L5.31683 25.0317C5.3179 25.0343 5.31825 25.0386 5.31933 25.0411L5.32041 25.0436C5.32148 25.0462 5.32184 25.0505 5.32291 25.053L5.324 25.0556C5.32507 25.0581 5.32614 25.0606 5.32649 25.0649L5.32757 25.0675C5.32865 25.07 5.32972 25.0725 5.33007 25.0769L5.33115 25.0794C5.33223 25.0819 5.33331 25.0844 5.33367 25.0888L5.33474 25.0913C5.33582 25.0938 5.33689 25.0964 5.33725 25.1007L5.33832 25.1032C5.3394 25.1057 5.34048 25.1083 5.34083 25.1126C5.34083 25.1126 5.3401 25.1144 5.3419 25.1151C5.34298 25.1177 5.34333 25.122 5.34441 25.1245L5.34549 25.1271C5.34657 25.1296 5.34764 25.1321 5.34799 25.1364L5.34907 25.139C5.35015 25.1415 5.35123 25.144 5.35158 25.1483L5.35265 25.1509C5.35373 25.1534 5.35481 25.1559 5.35516 25.1603L5.35624 25.1628C5.35732 25.1653 5.35839 25.1679 5.35874 25.1722L5.35982 25.1747C5.3609 25.1772 5.36198 25.1798 5.36233 25.1841L5.36341 25.1866C5.36448 25.1892 5.36556 25.1917 5.36591 25.196L5.36699 25.1985C5.36806 25.2011 5.36914 25.2036 5.36949 25.2079C5.36949 25.2079 5.36949 25.2079 5.37057 25.2105C5.37164 25.213 5.372 25.2173 5.37308 25.2198C5.37308 25.2198 5.37235 25.2216 5.37416 25.2224C5.37523 25.2249 5.37558 25.2292 5.37665 25.2318C5.37665 25.2318 5.37593 25.2336 5.37774 25.2343C5.37881 25.2368 5.37916 25.2411 5.38023 25.2437L5.38131 25.2462C5.38239 25.2487 5.38275 25.2531 5.38383 25.2556L5.3849 25.2581C5.38598 25.2606 5.38633 25.265 5.38741 25.2675L5.38848 25.27C5.38956 25.2726 5.38992 25.2769 5.391 25.2794L5.39206 25.2819C5.39314 25.2845 5.39349 25.2888 5.39457 25.2913L5.39565 25.2939C5.39673 25.2964 5.3978 25.2989 5.39815 25.3032L5.39923 25.3058C5.40031 25.3083 5.40139 25.3108 5.40174 25.3152L5.40281 25.3177C5.40389 25.3202 5.40497 25.3227 5.40532 25.3271L5.4064 25.3296C5.40748 25.3321 5.40855 25.3347 5.4089 25.339L5.40998 25.3415C5.41106 25.344 5.41214 25.3466 5.41249 25.3509L5.41357 25.3534C5.41465 25.356 5.41499 25.3603 5.41607 25.3628L5.41715 25.3653C5.41822 25.3679 5.41857 25.3722 5.41965 25.3747L5.42073 25.3773C5.4218 25.3798 5.42289 25.3823 5.42324 25.3866L5.42432 25.3892C5.4254 25.3917 5.42647 25.3942 5.42682 25.3986C5.42682 25.3986 5.4261 25.4004 5.4279 25.4011C5.42898 25.4036 5.43005 25.4062 5.43041 25.4105C5.43041 25.4105 5.42968 25.4123 5.43148 25.413C5.43255 25.4155 5.43291 25.4199 5.43399 25.4224C5.43399 25.4224 5.43326 25.4242 5.43506 25.4249C5.43614 25.4275 5.43649 25.4318 5.43757 25.4343L5.43864 25.4368C5.43972 25.4394 5.44008 25.4437 5.44116 25.4462C5.44116 25.4462 5.44115 25.4462 5.44222 25.4487C5.4433 25.4513 5.44366 25.4556 5.44474 25.4581C5.44474 25.4581 5.44401 25.4599 5.44582 25.4607C5.44689 25.4632 5.44724 25.4675 5.44831 25.4701C5.44831 25.4701 5.44832 25.47 5.44939 25.4726C5.45047 25.4751 5.45155 25.4776 5.4519 25.482L5.45298 25.4845C5.45406 25.487 5.45441 25.4914 5.45548 25.4939C5.45548 25.4939 5.45548 25.4939 5.45656 25.4964C5.45764 25.4989 5.45799 25.5033 5.45906 25.5058C5.45906 25.5058 5.45834 25.5076 5.46014 25.5083C5.46122 25.5108 5.46158 25.5152 5.46265 25.5177C5.46265 25.5177 5.46193 25.5195 5.46373 25.5202C5.46481 25.5228 5.46515 25.5271 5.46623 25.5296L5.46731 25.5321C5.46839 25.5347 5.46946 25.5372 5.46981 25.5415C5.46981 25.5415 5.46908 25.5433 5.47089 25.5441C5.47196 25.5466 5.47232 25.5509 5.4734 25.5535L5.47448 25.556C5.47556 25.5585 5.4759 25.5628 5.47698 25.5654L5.47806 25.5679C5.47914 25.5704 5.47949 25.5748 5.48057 25.5773L5.48164 25.5798C5.48272 25.5823 5.48307 25.5867 5.48415 25.5892C5.48415 25.5892 5.48415 25.5892 5.48342 25.591C5.4845 25.5935 5.48485 25.5979 5.48773 25.6011C5.48773 25.6011 5.48773 25.6011 5.487 25.6029C5.48808 25.6054 5.48844 25.6098 5.49132 25.613C5.49239 25.6156 5.49274 25.6199 5.49382 25.6224C5.49382 25.6224 5.49309 25.6242 5.4949 25.6249C5.49597 25.6275 5.49633 25.6318 5.49741 25.6343C5.49741 25.6343 5.49741 25.6343 5.49668 25.6361C5.49776 25.6387 5.49811 25.643 5.50099 25.6462C5.50099 25.6462 5.50099 25.6462 5.50206 25.6488C5.50314 25.6513 5.50349 25.6556 5.50637 25.6589C5.50637 25.6589 5.50637 25.6589 5.50564 25.6607C5.50672 25.6632 5.50708 25.6675 5.50816 25.6701C5.50816 25.6701 5.50815 25.6701 5.50922 25.6726C5.5103 25.6751 5.51066 25.6795 5.51354 25.6827C5.51462 25.6852 5.51676 25.6903 5.51784 25.6928C5.51892 25.6954 5.51928 25.6997 5.52216 25.7029C5.52324 25.7055 5.52359 25.7098 5.52647 25.713C5.52647 25.713 5.52647 25.713 5.52754 25.7156C5.52862 25.7181 5.52897 25.7224 5.53184 25.7257C5.53292 25.7282 5.53327 25.7325 5.53615 25.7358C5.53723 25.7383 5.53939 25.7434 5.54047 25.7459C5.54155 25.7484 5.54189 25.7528 5.54477 25.756L5.54404 25.7578C5.54512 25.7604 5.54728 25.7654 5.54836 25.7679C5.54944 25.7705 5.55159 25.7755 5.55267 25.7781C5.55302 25.7824 5.55589 25.7856 5.55697 25.7882C5.55732 25.7925 5.56021 25.7958 5.56129 25.7983C5.56452 25.8059 5.56594 25.8127 5.56917 25.8203C5.5724 25.8279 5.57383 25.8347 5.57706 25.8423C5.69616 26.1709 5.8261 26.4934 5.96542 26.8134L9.52285 25.2499C8.35164 22.3468 8.28815 19.1061 9.45557 16.1429ZM25.3599 31.3179C22.4493 32.6223 19.2107 32.7118 16.2388 31.566L14.842 35.1929C18.9134 36.7603 23.2493 36.5259 26.9512 34.8635L25.3599 31.3179ZM34.8251 13.9304L31.2921 15.5477C32.6192 18.4486 32.7314 21.688 31.6098 24.6675L35.2458 26.0366C35.6907 24.8583 35.9837 23.6567 36.1356 22.4569C36.1353 22.4526 36.1367 22.449 36.1364 22.4447C36.136 22.4403 36.1375 22.4367 36.1371 22.4324C36.1368 22.4281 36.1382 22.4244 36.1379 22.4201C36.1375 22.4158 36.139 22.4122 36.1386 22.4079C36.1383 22.4035 36.1397 22.3999 36.1393 22.3956C36.139 22.3913 36.1404 22.3876 36.1401 22.3833C36.1397 22.379 36.1412 22.3754 36.1409 22.3711C36.1423 22.3675 36.142 22.3631 36.1416 22.3588C36.1416 22.3588 36.1416 22.3588 36.1423 22.357C36.1438 22.3534 36.1434 22.3491 36.1442 22.3472L36.1449 22.3454C36.1463 22.3418 36.146 22.3375 36.1467 22.3357C36.1467 22.3357 36.1467 22.3357 36.1474 22.3339C36.1489 22.3303 36.1485 22.326 36.1492 22.3242C36.1492 22.3242 36.1492 22.3242 36.15 22.3224C36.1514 22.3188 36.1511 22.3144 36.1518 22.3126L36.1525 22.3108C36.154 22.3072 36.1536 22.3029 36.1543 22.3011C36.1543 22.3011 36.1543 22.3011 36.1551 22.2993C36.1565 22.2957 36.1562 22.2913 36.1569 22.2895L36.1576 22.2877C36.1591 22.2841 36.158 22.2816 36.1594 22.278L36.1602 22.2762C36.1616 22.2726 36.1605 22.2701 36.162 22.2665L36.1627 22.2647C36.1642 22.2611 36.1631 22.2585 36.1645 22.2549L36.1653 22.2531C36.1667 22.2495 36.1656 22.247 36.1671 22.2434L36.1678 22.2416C36.1693 22.238 36.1682 22.2354 36.1697 22.2318L36.1704 22.23C36.1718 22.2264 36.1708 22.2239 36.1722 22.2203C36.1729 22.2185 36.1729 22.2185 36.1729 22.2185C36.1744 22.2149 36.1733 22.2124 36.1748 22.2088L36.1755 22.2069C36.1769 22.2033 36.1759 22.2008 36.1773 22.1972C36.178 22.1954 36.178 22.1954 36.178 22.1954C36.1795 22.1918 36.1784 22.1893 36.1799 22.1857C36.1806 22.1839 36.1806 22.1839 36.1806 22.1839C36.182 22.1803 36.181 22.1777 36.1824 22.1741C36.1831 22.1723 36.1831 22.1723 36.1831 22.1723C36.1846 22.1687 36.1835 22.1662 36.1849 22.1626C36.1857 22.1608 36.185 22.1626 36.1857 22.1608C36.1853 22.1565 36.186 22.1547 36.1875 22.151C36.1882 22.1492 36.1882 22.1492 36.1882 22.1492C36.1897 22.1456 36.1886 22.1431 36.19 22.1395C36.1908 22.1377 36.1908 22.1377 36.1908 22.1377C36.1922 22.1341 36.1911 22.1316 36.1926 22.128C36.1933 22.1262 36.1933 22.1262 36.1933 22.1262C36.1948 22.1226 36.1937 22.12 36.1951 22.1164C36.1959 22.1146 36.1959 22.1146 36.1959 22.1146C36.1973 22.111 36.1962 22.1085 36.1977 22.1049C36.1984 22.1031 36.1984 22.1031 36.1984 22.1031C36.1999 22.0995 36.1988 22.097 36.2003 22.0933C36.201 22.0915 36.201 22.0915 36.201 22.0915C36.2024 22.0879 36.2014 22.0854 36.2028 22.0818C36.2035 22.08 36.2035 22.08 36.2035 22.08C36.205 22.0764 36.2039 22.0739 36.2054 22.0703L36.2061 22.0685C36.2075 22.0649 36.2065 22.0623 36.2079 22.0587C36.2086 22.0569 36.2086 22.0569 36.2086 22.0569C36.2101 22.0533 36.209 22.0508 36.2105 22.0472C36.2112 22.0454 36.2112 22.0454 36.2112 22.0454C36.2126 22.0418 36.2116 22.0392 36.213 22.0356C36.2137 22.0338 36.2137 22.0338 36.2137 22.0338C36.2152 22.0302 36.2141 22.0277 36.2156 22.0241L36.2163 22.0223C36.2177 22.0187 36.2166 22.0162 36.2181 22.0126L36.2188 22.0108C36.2203 22.0072 36.2192 22.0046 36.2206 22.001L36.2214 21.9992C36.2221 21.9974 36.2217 21.9931 36.2225 21.9913C36.2232 21.9895 36.2232 21.9895 36.2221 21.9869C36.2236 21.9833 36.2225 21.9808 36.2239 21.9772L36.2247 21.9754C36.2261 21.9718 36.225 21.9693 36.2265 21.9657C36.2272 21.9639 36.2272 21.9639 36.2272 21.9639C36.2287 21.9603 36.2276 21.9577 36.2291 21.9541C36.2298 21.9523 36.2298 21.9523 36.2298 21.9523C36.2312 21.9487 36.2302 21.9462 36.2316 21.9426L36.2323 21.9408C36.2338 21.9372 36.2327 21.9346 36.2342 21.931L36.2349 21.9292C36.2363 21.9256 36.2353 21.9231 36.2367 21.9195C36.2374 21.9177 36.2374 21.9177 36.2374 21.9177C36.2389 21.9141 36.2378 21.9116 36.2393 21.908C36.24 21.9062 36.24 21.9062 36.24 21.9062C36.2414 21.9026 36.2404 21.9 36.2418 21.8964C36.2425 21.8946 36.2425 21.8946 36.2425 21.8946C36.2422 21.8903 36.2429 21.8885 36.2444 21.8849L36.2451 21.8831C36.2447 21.8787 36.2455 21.8769 36.2469 21.8733C36.2476 21.8715 36.2476 21.8715 36.2476 21.8715C36.2473 21.8672 36.248 21.8654 36.2494 21.8618L36.2502 21.86C36.2516 21.8564 36.2505 21.8539 36.252 21.8503L36.2527 21.8484C36.2542 21.8448 36.2531 21.8423 36.2545 21.8387L36.2553 21.8369C36.256 21.8351 36.2556 21.8308 36.2571 21.8272C36.2571 21.8272 36.2578 21.8254 36.2585 21.8236C36.26 21.82 36.2589 21.8174 36.2597 21.8156C36.2604 21.8138 36.2604 21.8138 36.2611 21.812C36.2626 21.8084 36.2615 21.8059 36.2622 21.8041C36.2622 21.8041 36.2629 21.8023 36.2619 21.7998C36.2633 21.7962 36.2622 21.7936 36.263 21.7918C36.263 21.7918 36.2637 21.79 36.2626 21.7875C36.2633 21.7857 36.263 21.7814 36.2637 21.7796C36.2644 21.7778 36.2644 21.7778 36.2633 21.7752C36.2648 21.7716 36.2637 21.7691 36.2644 21.7673C36.2652 21.7655 36.2652 21.7655 36.2641 21.763C36.2648 21.7612 36.2645 21.7568 36.2652 21.755C36.2659 21.7532 36.2659 21.7532 36.2648 21.7507C36.2656 21.7489 36.2652 21.7446 36.2659 21.7428C36.2667 21.741 36.2667 21.741 36.2656 21.7384C36.2663 21.7366 36.266 21.7323 36.2667 21.7305C36.2674 21.7287 36.2674 21.7287 36.2663 21.7262C36.2671 21.7244 36.2667 21.72 36.2674 21.7182C36.2682 21.7164 36.2682 21.7164 36.2671 21.7139C36.2678 21.7121 36.2675 21.7078 36.2682 21.706C36.2689 21.7042 36.2689 21.7042 36.2678 21.7016C36.2686 21.6998 36.2675 21.6973 36.2689 21.6937C36.2697 21.6919 36.2697 21.6919 36.2686 21.6894C36.2693 21.6876 36.269 21.6832 36.2697 21.6814C36.2704 21.6796 36.2704 21.6796 36.2693 21.6771C36.27 21.6753 36.2697 21.671 36.2704 21.6692C36.2711 21.6674 36.2711 21.6674 36.2701 21.6648C36.2708 21.663 36.2705 21.6587 36.2712 21.6569C36.2719 21.6551 36.2719 21.6551 36.2708 21.6526C36.2716 21.6508 36.2712 21.6464 36.2719 21.6446C36.2727 21.6428 36.2727 21.6428 36.2716 21.6403C36.2723 21.6385 36.272 21.6342 36.2727 21.6324C36.2734 21.6306 36.2734 21.6306 36.2723 21.628C36.273 21.6262 36.2727 21.6219 36.2734 21.6201C36.2741 21.6183 36.2741 21.6183 36.2731 21.6158C36.2738 21.614 36.2727 21.6114 36.2742 21.6078C36.2749 21.606 36.2738 21.6035 36.2745 21.6017C36.2753 21.5999 36.2742 21.5974 36.2756 21.5938C36.2764 21.592 36.2764 21.592 36.2753 21.5894C36.276 21.5876 36.2757 21.5833 36.2764 21.5815C36.2771 21.5797 36.2771 21.5797 36.276 21.5772C36.2768 21.5754 36.2757 21.5728 36.2771 21.5692C36.2779 21.5674 36.2779 21.5674 36.2768 21.5649C36.2775 21.5631 36.2764 21.5606 36.2772 21.5588C36.2779 21.557 36.2768 21.5544 36.2775 21.5526C36.2783 21.5508 36.2772 21.5483 36.2779 21.5465C36.2786 21.5447 36.2776 21.5422 36.2783 21.5404C36.279 21.5386 36.2779 21.536 36.2787 21.5342C36.2794 21.5324 36.2783 21.5299 36.279 21.5281C36.2797 21.5263 36.2787 21.5238 36.2794 21.522C36.2801 21.5202 36.279 21.5176 36.2798 21.5158C36.2805 21.514 36.2794 21.5115 36.2801 21.5097C36.2809 21.5079 36.2798 21.5054 36.2805 21.5036C36.2813 21.5018 36.2802 21.4992 36.2809 21.4974C36.2816 21.4956 36.2806 21.4931 36.2813 21.4913C36.282 21.4895 36.2809 21.487 36.2816 21.4852C36.2824 21.4834 36.2813 21.4808 36.282 21.479C36.2827 21.4772 36.2817 21.4747 36.2824 21.4729C36.2831 21.4711 36.282 21.4686 36.2828 21.4668C36.2835 21.465 36.2824 21.4624 36.2824 21.4624C36.2831 21.4606 36.2821 21.4581 36.2835 21.4545C36.2842 21.4527 36.2842 21.4527 36.2832 21.4502C36.2839 21.4484 36.2828 21.4458 36.2843 21.4422C36.285 21.4404 36.2839 21.4379 36.2839 21.4379C36.2846 21.4361 36.2835 21.4336 36.285 21.43C36.2857 21.4282 36.2857 21.4282 36.2847 21.4256C36.2854 21.4238 36.285 21.4195 36.2858 21.4177C36.2858 21.4177 36.2865 21.4159 36.2854 21.4134C36.2861 21.4116 36.2858 21.4072 36.2865 21.4054L36.2872 21.4036C36.2862 21.4011 36.2876 21.3975 36.2873 21.3932C36.288 21.3914 36.2869 21.3888 36.2876 21.387C36.2883 21.3852 36.2873 21.3827 36.288 21.3809C36.288 21.3809 36.2887 21.3791 36.2876 21.3766C36.2866 21.374 36.288 21.3704 36.2887 21.3686L36.2895 21.3668C36.2906 21.3589 36.291 21.3528 36.2902 21.3441L36.291 21.3423C36.2928 21.3116 36.2947 21.281 36.2955 21.2478C36.2959 21.2312 36.2974 21.2171 36.2978 21.2005L36.2985 21.1987C36.2996 21.1908 36.2989 21.1821 36.3 21.1742C36.3011 21.1662 36.2996 21.1594 36.3008 21.1514L36.3015 21.1496C36.3011 21.1453 36.3018 21.1435 36.3015 21.1392L36.3022 21.1374C36.3011 21.1348 36.3026 21.1312 36.3015 21.1287C36.3015 21.1287 36.3023 21.1269 36.3005 21.1262C36.3001 21.1219 36.3008 21.1201 36.3005 21.1157L36.3012 21.1139C36.3001 21.1114 36.3016 21.1078 36.3012 21.1035L36.3019 21.1017C36.3016 21.0973 36.3023 21.0955 36.302 21.0912L36.3027 21.0894C36.3023 21.0851 36.3031 21.0833 36.3027 21.0789L36.3034 21.0771C36.3031 21.0728 36.3038 21.071 36.3034 21.0667L36.3042 21.0649C36.3031 21.0623 36.3046 21.0587 36.3042 21.0544C36.3042 21.0544 36.3049 21.0526 36.3031 21.0519C36.3021 21.0493 36.3035 21.0457 36.3024 21.0432L36.3032 21.0414C36.3021 21.0389 36.3035 21.0353 36.3032 21.0309L36.3039 21.0291C36.3036 21.0248 36.3043 21.023 36.3039 21.0187L36.3046 21.0169C36.3036 21.0143 36.305 21.0107 36.3039 21.0082C36.3039 21.0082 36.3047 21.0064 36.3036 21.0039C36.3032 20.9995 36.304 20.9977 36.3029 20.9952L36.3036 20.9934C36.3033 20.9891 36.304 20.9873 36.3036 20.9829L36.3044 20.9811C36.304 20.9768 36.3047 20.975 36.3044 20.9707L36.3051 20.9689C36.3048 20.9645 36.3055 20.9627 36.3051 20.9584L36.3059 20.9566C36.3055 20.9523 36.3062 20.9505 36.3059 20.9461L36.3066 20.9443C36.3063 20.94 36.307 20.9382 36.3066 20.9339L36.3073 20.9321C36.307 20.9277 36.3077 20.9259 36.3074 20.9216L36.3081 20.9198C36.3077 20.9155 36.3085 20.9137 36.3081 20.9093L36.3089 20.9075C36.3085 20.9032 36.3092 20.9014 36.3089 20.8971L36.3096 20.8953C36.3092 20.891 36.31 20.8891 36.3096 20.8848L36.3103 20.883C36.31 20.8787 36.3107 20.8769 36.3104 20.8725L36.3111 20.8707C36.3107 20.8664 36.3115 20.8646 36.3111 20.8603L36.3118 20.8585C36.3115 20.8541 36.3122 20.8523 36.3119 20.848L36.3126 20.8462C36.3122 20.8419 36.313 20.8401 36.3126 20.8358L36.3133 20.8339C36.313 20.8296 36.3137 20.8278 36.3134 20.8235L36.3141 20.8217C36.3137 20.8173 36.3145 20.8155 36.3141 20.8112L36.3148 20.8094C36.3145 20.8051 36.3152 20.8033 36.3148 20.7989L36.3156 20.7971C36.3152 20.7928 36.3159 20.791 36.3156 20.7867L36.3163 20.7849C36.316 20.7805 36.3167 20.7787 36.3163 20.7744C36.3163 20.7744 36.3163 20.7744 36.3171 20.7726C36.3167 20.7683 36.3175 20.7665 36.3171 20.7622L36.3178 20.7604C36.3175 20.756 36.3182 20.7542 36.3178 20.7499C36.3178 20.7499 36.3178 20.7499 36.3186 20.7481C36.3182 20.7438 36.3189 20.7419 36.3186 20.7376C36.3186 20.7376 36.3186 20.7376 36.3193 20.7358C36.319 20.7315 36.3197 20.7297 36.3193 20.7253L36.3201 20.7235C36.3197 20.7192 36.3204 20.7174 36.3201 20.7131L36.3208 20.7113C36.3205 20.7069 36.3212 20.7051 36.3208 20.7008L36.3216 20.699C36.3212 20.6947 36.3219 20.6929 36.3216 20.6885L36.3223 20.6867C36.3219 20.6824 36.3227 20.6806 36.3223 20.6763C36.3223 20.6763 36.3223 20.6763 36.3231 20.6745C36.3227 20.6702 36.3234 20.6684 36.3231 20.664L36.3238 20.6622C36.3235 20.6579 36.3242 20.6561 36.3238 20.6518C36.3238 20.6518 36.3238 20.6518 36.3245 20.6499C36.3242 20.6456 36.3249 20.6438 36.3246 20.6395C36.3246 20.6395 36.3246 20.6395 36.3253 20.6377C36.3249 20.6334 36.3257 20.6315 36.3253 20.6272C36.325 20.6229 36.3257 20.6211 36.3253 20.6167L36.3261 20.6149C36.3257 20.6106 36.3264 20.6088 36.3261 20.6045C36.3261 20.6045 36.3261 20.6045 36.3268 20.6027C36.3265 20.5984 36.3272 20.5966 36.3268 20.5922L36.3276 20.5904C36.3272 20.5861 36.3279 20.5843 36.3276 20.58C36.3276 20.58 36.3276 20.58 36.3283 20.5782C36.328 20.5738 36.3287 20.572 36.3283 20.5677L36.3291 20.5659C36.328 20.5634 36.3294 20.5598 36.3291 20.5554L36.3298 20.5536C36.3294 20.5493 36.3302 20.5475 36.3298 20.5432L36.3305 20.5413C36.3295 20.5388 36.3309 20.5352 36.3306 20.5309C36.3306 20.5309 36.3306 20.5309 36.3313 20.5291C36.331 20.5248 36.3317 20.523 36.3313 20.5186L36.3321 20.5168C36.331 20.5143 36.3332 20.5089 36.3321 20.5064C36.3321 20.5064 36.3321 20.5064 36.3328 20.5046C36.3324 20.5002 36.3332 20.4984 36.3328 20.4941C36.3328 20.4941 36.3328 20.4941 36.3335 20.4923C36.3332 20.488 36.3339 20.4862 36.3336 20.4818C36.3332 20.4775 36.3339 20.4757 36.3336 20.4714C36.3336 20.4714 36.3336 20.4714 36.3343 20.4696C36.334 20.4652 36.3347 20.4634 36.3343 20.4591C36.334 20.4548 36.3347 20.453 36.3344 20.4486C36.334 20.4443 36.3347 20.4425 36.3344 20.4382C36.334 20.4338 36.3348 20.432 36.3344 20.4277C36.3344 20.4277 36.3344 20.4277 36.3351 20.4259C36.3348 20.4216 36.3355 20.4198 36.3351 20.4154C36.3348 20.4111 36.3355 20.4093 36.3352 20.405C36.3348 20.4006 36.3355 20.3988 36.3352 20.3945C36.3348 20.3902 36.3356 20.3884 36.3352 20.384C36.3349 20.3797 36.3356 20.3779 36.3352 20.3736C36.3349 20.3693 36.3356 20.3674 36.3353 20.3631C36.3349 20.3588 36.3356 20.357 36.3353 20.3527C36.3349 20.3483 36.3364 20.3447 36.3353 20.3422C36.3349 20.3379 36.3364 20.3342 36.3353 20.3317C36.335 20.3274 36.3364 20.3238 36.3354 20.3213C36.3347 20.3126 36.335 20.3065 36.3343 20.2978C36.2261 18.0633 35.7291 15.9049 34.8251 13.9304Z" fill="white"/>
<path d="M16.2442 31.0155C14.1082 30.1558 12.3133 28.6773 11.0524 26.7413C9.41991 24.2348 8.86228 21.2435 9.479 18.3163C10.0975 15.3899 11.8179 12.8797 14.3244 11.2472C17.384 9.2551 21.2341 8.8797 24.6266 10.245C26.7626 11.1047 28.5575 12.5832 29.8184 14.5192C31.4509 17.0257 32.0085 20.017 31.3918 22.9442C30.7751 25.8713 29.053 28.3808 26.5465 30.0133C23.4886 32.0061 19.6367 32.3808 16.2442 31.0155Z" fill="white"/>
<path d="M24.918 9.52638L24.3376 10.9684C26.3241 11.7679 27.9928 13.1433 29.1678 14.9442C30.6859 17.2769 31.2075 20.061 30.6309 22.7844C30.0562 25.5084 28.4542 27.8443 26.1233 29.3631C23.2764 31.2168 19.6927 31.5653 16.5364 30.295C14.5499 29.4955 12.8793 28.1194 11.7043 26.3186C10.1862 23.9859 9.66463 21.2017 10.2412 18.4784C10.8178 15.755 12.418 13.4184 14.7489 11.8996C17.5958 10.046 21.1795 9.69742 24.3358 10.9677L24.918 9.52638ZM24.9162 9.52565C21.4138 8.11606 17.3027 8.38013 13.8994 10.5963C8.35812 14.2058 6.79049 21.6243 10.4 27.1655C11.7933 29.3035 13.7532 30.8505 15.9524 31.7356C19.4548 33.1452 23.5659 32.8811 26.9692 30.6649C32.5105 27.0555 34.0781 19.637 30.4686 14.0957C29.0771 11.9585 27.1171 10.4115 24.9162 9.52565Z" fill="black"/>
<path d="M24.4601 23.4708C23.438 24.4404 21.8097 24.5298 20.5952 23.6671L20.434 23.5058L20.2727 23.6671C19.0583 24.5298 17.4299 24.4404 16.4079 23.4708C15.345 22.4643 15.207 20.7622 16.1028 19.4972L16.2641 19.3359L16.2621 19.334L20.4301 15.166L20.432 15.168L20.434 15.166L24.6019 19.334L24.6 19.3359L24.7612 19.4972C25.6628 20.7622 25.5229 22.4624 24.4601 23.4708Z" fill="black"/>
<path d="M22.2652 25.9239H18.6035C18.9553 25.5663 19.4334 25.0007 19.8241 24.2078C20.2011 23.444 20.3605 22.7482 20.4343 22.2623C20.5432 22.7773 20.7356 23.4498 21.101 24.1845C21.478 24.9424 21.9115 25.5197 22.2652 25.9239Z" fill="black"/>
<path d="M20.4276 5.56722C28.7713 5.56722 35.5604 12.3564 35.5604 20.7C35.5604 29.0437 28.7713 35.8329 20.4276 35.8329C12.084 35.8329 5.29479 29.0437 5.29479 20.7C5.29479 12.3564 12.084 5.56722 20.4276 5.56722ZM20.4276 4.59567C11.5341 4.59567 4.32324 11.8065 4.32324 20.7C4.32324 29.5936 11.5341 36.8044 20.4276 36.8044C29.3211 36.8044 36.532 29.5936 36.532 20.7C36.532 11.8046 29.3231 4.59567 20.4276 4.59567Z" fill="black"/>
</svg>
