<svg width="41" height="40" viewBox="0 0 41 40" fill="none" xmlns="http://www.w3.org/2000/svg">
<path d="M6.7335 8.10001C4.85818 8.10001 3.3335 9.62469 3.3335 11.5V22.55V26.8V27.65C3.3335 29.9981 5.23537 31.9 7.5835 31.9C8.97537 31.9 10.2079 31.2306 10.9835 30.2C11.7591 31.2306 12.9916 31.9 14.3835 31.9C16.7316 31.9 18.6335 29.9981 18.6335 27.65C18.6335 27.3578 18.6016 27.0763 18.5485 26.8H25.4335H27.2185C27.1654 27.0763 27.1335 27.3578 27.1335 27.65C27.1335 29.9981 29.0354 31.9 31.3835 31.9C33.7316 31.9 35.6335 29.9981 35.6335 27.65C35.6335 27.3578 35.6016 27.0763 35.5485 26.8H35.6335C36.5738 26.8 37.3335 26.0403 37.3335 25.1V21.7V20.85V20.3028C37.3335 19.8141 37.1635 19.3359 36.8554 18.9588L33.7316 15.1444C33.1685 14.4538 32.3238 14.0553 31.4313 14.0553H28.8335V11.5C28.8335 9.62469 27.3088 8.10001 25.4335 8.10001H6.7335ZM34.4116 20H28.8335V16.6H31.426C31.5535 16.6 31.6757 16.6584 31.7554 16.7541L34.4116 20ZM31.3835 25.95C31.8344 25.95 32.2668 26.1291 32.5856 26.4479C32.9044 26.7667 33.0835 27.1991 33.0835 27.65C33.0835 28.1009 32.9044 28.5333 32.5856 28.8521C32.2668 29.1709 31.8344 29.35 31.3835 29.35C30.9326 29.35 30.5002 29.1709 30.1814 28.8521C29.8626 28.5333 29.6835 28.1009 29.6835 27.65C29.6835 27.1991 29.8626 26.7667 30.1814 26.4479C30.5002 26.1291 30.9326 25.95 31.3835 25.95ZM12.6835 27.65C12.6835 27.1991 12.8626 26.7667 13.1814 26.4479C13.5002 26.1291 13.9326 25.95 14.3835 25.95C14.8344 25.95 15.2668 26.1291 15.5856 26.4479C15.9044 26.7667 16.0835 27.1991 16.0835 27.65C16.0835 28.1009 15.9044 28.5333 15.5856 28.8521C15.2668 29.1709 14.8344 29.35 14.3835 29.35C13.9326 29.35 13.5002 29.1709 13.1814 28.8521C12.8626 28.5333 12.6835 28.1009 12.6835 27.65ZM7.5835 25.95C8.03436 25.95 8.46677 26.1291 8.78558 26.4479C9.10439 26.7667 9.2835 27.1991 9.2835 27.65C9.2835 28.1009 9.10439 28.5333 8.78558 28.8521C8.46677 29.1709 8.03436 29.35 7.5835 29.35C7.13263 29.35 6.70023 29.1709 6.38141 28.8521C6.0626 28.5333 5.8835 28.1009 5.8835 27.65C5.8835 27.1991 6.0626 26.7667 6.38141 26.4479C6.70023 26.1291 7.13263 25.95 7.5835 25.95Z" fill="white"/>
</svg>
