<svg width="12" height="16" viewBox="0 0 12 16" fill="none" xmlns="http://www.w3.org/2000/svg">
<path d="M1.96875 14.845C1.6125 15.1459 1.11375 15.2145 0.69 15.0126C0.26625 14.8107 0 14.3804 0 13.9081V1.72061C0 1.24834 0.27 0.81797 0.69 0.616114C1.11 0.414259 1.60875 0.479005 1.96875 0.783692L9.16875 6.87744L9.6 7.24307V1.72061C9.6 1.04649 10.1363 0.501856 10.8 0.501856C11.4638 0.501856 12 1.04649 12 1.72061V13.9081C12 14.5822 11.4638 15.1269 10.8 15.1269C10.1363 15.1269 9.6 14.5822 9.6 13.9081V8.38565L9.16875 8.75127L1.96875 14.845Z" fill="#7554FF"/>
</svg>
