<svg width="20" height="19" viewBox="0 0 20 19" fill="none" xmlns="http://www.w3.org/2000/svg">
<path d="M6.95761 2.24967C6.71633 1.66686 6.08025 1.35665 5.47237 1.52272L2.71497 2.27474C2.16976 2.42514 1.79062 2.92022 1.79062 3.48424C1.79062 11.2363 8.07623 17.5219 15.8283 17.5219C16.3923 17.5219 16.8874 17.1428 17.0378 16.5975L17.7898 13.8401C17.9559 13.2323 17.6457 12.5962 17.0628 12.3549L14.0548 11.1016C13.544 10.8885 12.9518 11.0357 12.604 11.465L11.3381 13.0098C9.13219 11.9664 7.34615 10.1803 6.30272 7.97441L7.84749 6.71165C8.27677 6.3607 8.42404 5.77162 8.21097 5.26088L6.95761 2.25281V2.24967Z" fill="black"/>
</svg>
