<svg width="21" height="20" viewBox="0 0 21 20" fill="none" xmlns="http://www.w3.org/2000/svg">
<path d="M11.5815 17.6524C11.5815 18.422 10.9597 19.0437 10.1901 19.0437C9.42053 19.0437 8.79877 18.422 8.79877 17.6524V11.3913H2.53771C1.76812 11.3913 1.14636 10.7696 1.14636 9.99998C1.14636 9.23039 1.76812 8.60863 2.53771 8.60863H8.79877V2.34757C8.79877 1.57799 9.42053 0.956228 10.1901 0.956228C10.9597 0.956228 11.5815 1.57799 11.5815 2.34757V8.60863H17.8425C18.6121 8.60863 19.2339 9.23039 19.2339 9.99998C19.2339 10.7696 18.6121 11.3913 17.8425 11.3913H11.5815V17.6524Z" fill="black"/>
</svg>
