<svg width="65" height="64" viewBox="0 0 65 64" fill="none" xmlns="http://www.w3.org/2000/svg">
<rect x="0.666504" width="64" height="64" rx="32" fill="#F7F8FA"/>
<g clip-path="url(#clip0_125_2409)">
<path d="M17 26.0001C17 21.5813 20.5813 18.0001 25 18.0001H41C45.4188 18.0001 49 21.5813 49 26.0001V28.1001C46.7188 28.5626 45 30.5813 45 33.0001V36.0001H21V33.0001C21 30.5813 19.2812 28.5626 17 28.1001V26.0001ZM47 33.0001C47 31.6938 47.8375 30.5813 49 30.1688C49.3125 30.0563 49.65 30.0001 50 30.0001C51.6562 30.0001 53 31.3438 53 33.0001V44.0001C53 45.1063 52.1063 46.0001 51 46.0001H49C47.8937 46.0001 47 45.1063 47 44.0001H19C19 45.1063 18.1062 46.0001 17 46.0001H15C13.8937 46.0001 13 45.1063 13 44.0001V33.0001C13 31.3438 14.3438 30.0001 16 30.0001C16.35 30.0001 16.6875 30.0626 17 30.1688C18.1625 30.5813 19 31.6938 19 33.0001V36.0001V38.0001H21H45H47V36.0001V33.0001Z" fill="#6DC8C5"/>
</g>
<defs>
<clipPath id="clip0_125_2409">
<rect width="40" height="35.5556" fill="white" transform="translate(12.6665 14.2222)"/>
</clipPath>
</defs>
</svg>
