<svg width="41" height="40" viewBox="0 0 41 40" fill="none" xmlns="http://www.w3.org/2000/svg">
<path d="M12.1665 3C9.82236 3 7.9165 4.90586 7.9165 7.25V13.625H12.1665V7.25H27.2208L29.1665 9.1957V13.625H33.4165V9.1957C33.4165 8.0668 32.9716 6.98438 32.1747 6.1875L30.229 4.2418C29.4321 3.44492 28.3497 3 27.2208 3H12.1665ZM29.1665 26.375V28.5V32.75H12.1665V28.5V27.4375V26.375H29.1665ZM33.4165 28.5H35.5415C36.7169 28.5 37.6665 27.5504 37.6665 26.375V20C37.6665 17.6559 35.7606 15.75 33.4165 15.75H7.9165C5.57236 15.75 3.6665 17.6559 3.6665 20V26.375C3.6665 27.5504 4.61611 28.5 5.7915 28.5H7.9165V32.75C7.9165 35.0941 9.82236 37 12.1665 37H29.1665C31.5106 37 33.4165 35.0941 33.4165 32.75V28.5ZM32.354 19.4688C32.7767 19.4688 33.1821 19.6367 33.481 19.9355C33.7798 20.2344 33.9478 20.6398 33.9478 21.0625C33.9478 21.4852 33.7798 21.8906 33.481 22.1895C33.1821 22.4883 32.7767 22.6562 32.354 22.6562C31.9313 22.6562 31.5259 22.4883 31.2271 22.1895C30.9282 21.8906 30.7603 21.4852 30.7603 21.0625C30.7603 20.6398 30.9282 20.2344 31.2271 19.9355C31.5259 19.6367 31.9313 19.4688 32.354 19.4688Z" fill="white"/>
</svg>
