<svg width="27" height="27" viewBox="0 0 27 27" fill="none" xmlns="http://www.w3.org/2000/svg">
<path d="M20.0614 11.4368C20.0614 13.4082 19.4213 15.2293 18.3431 16.7068L23.7816 22.1486C24.3186 22.6854 24.3186 23.5573 23.7816 24.0942C23.2447 24.6311 22.3726 24.6311 21.8356 24.0942L16.3971 18.6524C14.9193 19.7348 13.0978 20.3704 11.126 20.3704C6.19008 20.3704 2.19063 16.3717 2.19063 11.4368C2.19063 6.50178 6.19008 2.50311 11.126 2.50311C16.062 2.50311 20.0614 6.50178 20.0614 11.4368ZM11.126 17.6216C11.9384 17.6216 12.7428 17.4616 13.4933 17.1508C14.2438 16.84 14.9258 16.3844 15.5002 15.8101C16.0746 15.2358 16.5303 14.554 16.8412 13.8036C17.1521 13.0532 17.3121 12.249 17.3121 11.4368C17.3121 10.6246 17.1521 9.82031 16.8412 9.06993C16.5303 8.31955 16.0746 7.63774 15.5002 7.06343C14.9258 6.48911 14.2438 6.03354 13.4933 5.72272C12.7428 5.4119 11.9384 5.25193 11.126 5.25193C10.3137 5.25193 9.50925 5.4119 8.75873 5.72272C8.0082 6.03354 7.32626 6.48911 6.75183 7.06343C6.1774 7.63774 5.72174 8.31955 5.41087 9.06993C5.09999 9.82031 4.93998 10.6246 4.93998 11.4368C4.93998 12.249 5.09999 13.0532 5.41087 13.8036C5.72174 14.554 6.1774 15.2358 6.75183 15.8101C7.32626 16.3844 8.0082 16.84 8.75873 17.1508C9.50925 17.4616 10.3137 17.6216 11.126 17.6216Z" fill="black"/>
</svg>
